<svg xmlns="http://www.w3.org/2000/svg" xmlns:xlink="http://www.w3.org/1999/xlink" width="450" height="250" viewBox="0 0 450 250">
  <defs>
    <clipPath id="clip-SVG">
      <rect width="450" height="250"/>
    </clipPath>
  </defs>
  <g id="SVG" clip-path="url(#clip-SVG)">
    <rect width="450" height="250" fill="#fff"/>
    <g id="Group_31" data-name="Group 31" transform="translate(-2007 -9098)">
      <g id="Group_30" data-name="Group 30">
        <rect id="Rectangle_167" data-name="Rectangle 167" width="450" height="250" transform="translate(2007 9098)" fill="#fff"/>
        <path id="Intersection_1" data-name="Intersection 1" d="M399.644,250l12.878-13.221h19.461L419.1,250Zm-77.077,0,12.878-13.221h19.461L342.028,250Zm-75.872,0,12.878-13.221h19.46L266.154,250Zm-77.078,0,12.878-13.221h19.462L189.077,250Zm-75.873,0,12.878-13.221h19.461L113.2,250ZM17.87,250l12.878-13.221H50.208L37.331,250Zm420.115-39.364L450,198.3v19.98l-12.015,12.335ZM0,189.213l12.561-12.9V196.3L0,209.194ZM437.985,131.5,450,119.168v19.98l-12.015,12.335ZM0,111.317l12.561-12.9V118.4L0,131.3ZM437.985,53.608,450,41.273V61.252L437.985,73.587ZM0,32.185l12.561-12.9v19.98L0,52.165ZM400.245,13.221,413.123,0h19.461L419.707,13.221Zm-75.873,0L337.25,0h19.461L343.833,13.221Zm-75.873,0L261.377,0h19.461L267.96,13.221Zm-77.078,0L184.3,0h19.461L190.883,13.221Zm-75.873,0L108.426,0h19.461L115.01,13.221Zm-77.077,0L31.349,0H50.81L37.932,13.221Z" transform="translate(2007 9098)" fill="#ef2932"/>
        <rect id="Rectangle_166" data-name="Rectangle 166" width="425" height="224" transform="translate(2020 9111)" fill="#fff5bf"/>
        <path id="Intersection_2" data-name="Intersection 2" d="M436.979,250,450,236.631V250Zm-75.873,0,12.878-13.221h19.46L380.566,250Zm-77.078,0,12.878-13.221h19.461L303.489,250Zm-75.873,0,12.878-13.221h19.462L227.617,250Zm-75.873,0,12.878-13.221h19.461L151.743,250Zm-77.077,0,12.878-13.221h19.46L74.665,250ZM0,228.78l12.561-12.9v19.98L0,248.76Zm437.985-57.71L450,158.735v19.979l-12.015,12.335ZM0,150.885l12.561-12.9v19.98L0,170.865ZM437.985,91.936,450,79.6V99.582l-12.015,12.335ZM0,71.752l12.561-12.9V78.835L0,91.731ZM437.985,14.041,450,1.706v19.98L437.985,34.022ZM0,0H13.476L0,13.835ZM362.911,13.221,375.789,0H395.25L382.372,13.221Zm-77.077,0L298.712,0h19.46L305.294,13.221Zm-75.874,0L222.838,0H242.3L229.422,13.221Zm-75.872,0L146.966,0h19.461L153.549,13.221Zm-77.077,0L69.888,0h19.46L76.471,13.221Z" transform="translate(2007 9098)" fill="#2959a2"/>
      </g>
    </g>
  </g>
</svg>
