<svg xmlns="http://www.w3.org/2000/svg" xmlns:xlink="http://www.w3.org/1999/xlink" width="3508" height="2480" viewBox="0 0 3508 2480">
  <defs>
    <clipPath id="clip-Artboard_1">
      <rect width="3508" height="2480"/>
    </clipPath>
  </defs>
  <g id="Artboard_1" data-name="Artboard – 1" clip-path="url(#clip-Artboard_1)">
    <rect width="3508" height="2480" fill="#fff"/>
    <path id="Path_145" data-name="Path 145" d="M12728.295,6925.917l1048.023.014.563,148-1158.851,169.288Z" transform="translate(-10268.327 -6925.93)" fill="#97e078"/>
    <path id="Path_149" data-name="Path 149" d="M12432.711,6042.96l1073.2,617.6-268.245,709.083h-379.5Z" transform="translate(-11687.521 -4888.724)" fill="#329e50"/>
    <path id="Path_142" data-name="Path 142" d="M13094.881,6916.008h463.081l163.276,535.222-626.588,84.511Z" transform="translate(-13095 -6916)" fill="#1b8d4c"/>
    <path id="Path_150" data-name="Path 150" d="M12973.021,7122.38l629.033-83.854,215.044,759.568-844.311-427.539Z" transform="translate(-12989.65 -6541)" fill="#4ea674"/>
    <path id="Path_144" data-name="Path 144" d="M12588.645,6943.827l1264.5-.473-357.089,991.5Z" transform="translate(-11372.476 -6944.337)" fill="#abe692"/>
    <path id="Path_147" data-name="Path 147" d="M13050.393,6382.81l1368.557,1517.428-330.926,1.4-1346.148-705.5Z" transform="translate(-10940 -5420)" fill="#b1e89a"/>
    <path id="Path_148" data-name="Path 148" d="M13045.509,6390.406l1345.516,705.016-1605.391-1.344Z" transform="translate(-11243.04 -4614)" fill="#8dd386"/>
    <path id="Path_146" data-name="Path 146" d="M12614.437,6710,13759.2,6553.27l-.113,2342.969h-32.15L12359.688,7378.2Z" transform="translate(-10251 -6416)" fill="#a5e48a"/>
    <path id="Path_143" data-name="Path 143" d="M12879.716,6916.008l794.761-.231,872.89,965.33-308.939,811.367-975.4-519.545Z" transform="translate(-12436 -6916)" fill="#41a069"/>
    <path id="Path_151" data-name="Path 151" d="M12972.924,6574.845l827.232,429.139,372.975,1223.126-1199.9.272Z" transform="translate(-12973 -5747)" fill="#33995f"/>
  </g>
</svg>
