<svg width="64" height="64" viewBox="0 0 64 64" fill="none" xmlns="http://www.w3.org/2000/svg">
<path d="M14.6221 60.5108C14.6218 61.3336 14.2948 62.1226 13.7129 62.7043C13.131 63.2861 12.3419 63.6128 11.5191 63.6128H8.26306C7.44088 63.612 6.65265 63.2849 6.07156 62.7032C5.49047 62.1216 5.16406 61.333 5.16406 60.5108V22.8158C5.16433 21.9938 5.49085 21.2055 6.07191 20.6241C6.65297 20.0427 7.44105 19.7156 8.26306 19.7148H11.5181C11.9254 19.7147 12.3288 19.7948 12.7052 19.9506C13.0816 20.1064 13.4237 20.3347 13.7118 20.6227C13.9999 20.9106 14.2285 21.2525 14.3846 21.6288C14.5406 22.0051 14.6209 22.4085 14.6211 22.8158V60.5108" fill="#888887"/>
<path d="M12.1391 63.4509C11.7319 63.4509 11.3288 63.3707 10.9527 63.2148C10.5765 63.059 10.2348 62.8305 9.94703 62.5425C9.65924 62.2546 9.43101 61.9127 9.27539 61.5365C9.11976 61.1602 9.0398 60.757 9.04006 60.3499V22.6569C9.04006 21.2839 9.93206 20.1209 11.1691 19.7119H8.26306C7.44097 19.7124 6.65273 20.0394 6.07162 20.6209C5.4905 21.2024 5.16406 21.9908 5.16406 22.8129V60.5079C5.16406 61.3301 5.49047 62.1187 6.07156 62.7003C6.65265 63.282 7.44088 63.6091 8.26306 63.6099H11.5181C11.8591 63.6099 12.1881 63.5519 12.4921 63.4509H12.1391" fill="#757675"/>
<path d="M58.8097 60.5108C58.8092 61.3337 58.4819 62.1227 57.8998 62.7044C57.3178 63.2861 56.5286 63.6128 55.7057 63.6128H52.4507C51.6278 63.6128 50.8386 63.2861 50.2565 62.7044C49.6745 62.1227 49.3472 61.3337 49.3467 60.5108V22.8158C49.3475 21.9931 49.6749 21.2044 50.2569 20.6229C50.8389 20.0415 51.628 19.7148 52.4507 19.7148H55.7057C56.5285 19.7146 57.3177 20.0411 57.8998 20.6226C58.4819 21.2042 58.8092 21.9931 58.8097 22.8158V60.5108" fill="#888887"/>
<path d="M56.3296 63.4509C55.9224 63.4512 55.519 63.3711 55.1427 63.2154C54.7665 63.0596 54.4246 62.8312 54.1366 62.5432C53.8487 62.2552 53.6204 61.9132 53.4648 61.5369C53.3091 61.1605 53.2292 60.7572 53.2296 60.3499V22.6569C53.2296 21.2839 54.1226 20.1209 55.3546 19.7119H52.4536C51.6308 19.7116 50.8416 20.0382 50.2595 20.6197C49.6774 21.2012 49.3501 21.9901 49.3496 22.8129V60.5079C49.3501 61.3308 49.6774 62.1198 50.2595 62.7015C50.8415 63.2832 51.6307 63.6099 52.4536 63.6099H55.7086C56.0506 63.6099 56.3746 63.5519 56.6836 63.4509H56.3296" fill="#757675"/>
<path d="M63.8359 36.113C63.8354 37.0968 63.4442 38.0402 62.7483 38.7358C62.0524 39.4313 61.1088 39.822 60.1249 39.822H3.71491C3.2277 39.8221 2.74524 39.7263 2.29507 39.5399C1.84491 39.3536 1.43585 39.0805 1.09125 38.736C0.746649 38.3916 0.473262 37.9827 0.286696 37.5327C0.10013 37.0826 0.00403755 36.6002 0.00390625 36.113V15.983C0.00443617 14.9989 0.395586 14.0553 1.09142 13.3595C1.78725 12.6637 2.73085 12.2725 3.71491 12.272H60.1249C61.1089 12.2728 62.0523 12.664 62.7481 13.3598C63.4439 14.0556 63.8351 14.999 63.8359 15.983V36.113Z" fill="#FFDD15"/>
<path d="M63.8362 33.0739V20.9839L48.4102 39.8229H58.3102L63.8362 33.0739Z" fill="#243438"/>
<path d="M26.6065 39.823H37.6665L60.2265 12.278C60.1895 12.275 60.1565 12.271 60.1205 12.271H49.1675L26.6025 39.823" fill="#243438"/>
<path d="M6.738 12.271L0 20.5V33.022L16.995 12.271H6.738Z" fill="#243438"/>
<path d="M27.7291 12.271L5.16406 39.823H15.8731L38.4361 12.271H27.7291Z" fill="#243438"/>
</svg>
