<svg width="339" height="150" viewBox="0 0 339 150" fill="none" xmlns="http://www.w3.org/2000/svg">
<path d="M83.8098 23L83.7042 24.6914C83.6793 25.0901 83.7881 25.4858 84.0132 25.8158V25.8158C84.4264 26.4215 85.1662 26.7153 85.8823 26.5582L86.6383 26.3924C88.1419 26.0625 89.4881 27.3878 89.1818 28.8964V28.8964C88.8983 30.2922 90.0385 31.5675 91.4572 31.4415L93.1768 31.2888C94.6608 31.1571 95.5749 32.8728 94.6378 34.031V34.031C93.7757 35.0966 94.4765 36.6911 95.8445 36.7765L97.9708 36.9092" stroke="#FFC000" stroke-linecap="round" stroke-linejoin="round"/>
<path d="M72 124.154L73.5991 124.715C73.9761 124.847 74.3864 124.85 74.7652 124.723V124.723C75.4603 124.49 75.9441 123.858 75.9874 123.126L76.0332 122.353C76.1243 120.817 77.7654 119.881 79.1341 120.586V120.586C80.4004 121.238 81.9374 120.487 82.2017 119.088L82.5219 117.391C82.7983 115.927 84.6979 115.514 85.5579 116.73V116.73C86.3492 117.849 88.0741 117.608 88.528 116.315L89.2334 114.304" stroke="#EB5757" stroke-linecap="round" stroke-linejoin="round"/>
<path d="M270.691 35.5513L269.029 35.2187C268.638 35.1403 268.231 35.1947 267.874 35.3733V35.3733C267.218 35.701 266.827 36.3945 266.886 37.1253L266.949 37.8967C267.073 39.4311 265.578 40.5863 264.125 40.0794V40.0794C262.78 39.6104 261.362 40.5682 261.296 41.991L261.215 43.7155C261.146 45.2037 259.323 45.8782 258.301 44.7936V44.7936C257.362 43.7956 255.687 44.2751 255.418 45.6192L255 47.7081" stroke="#EB5757" stroke-linecap="round" stroke-linejoin="round"/>
<path d="M207.818 133.167L208.134 131.944C208.208 131.656 208.184 131.352 208.066 131.079V131.079C207.849 130.577 207.349 130.258 206.803 130.272L206.227 130.287C205.081 130.317 204.283 129.158 204.719 128.098V128.098C205.123 127.117 204.469 126.024 203.413 125.916L202.134 125.786C201.03 125.673 200.603 124.29 201.451 123.574V123.574C202.232 122.916 201.944 121.651 200.955 121.396L199.419 121" stroke="#5BD7FF" stroke-linecap="round" stroke-linejoin="round"/>
<path d="M71.7099 69.3308L72.2497 68.1052C72.9052 66.6168 71.9899 64.9083 70.3877 64.6294V64.6294C69.3329 64.4459 68.2781 64.9533 67.7632 65.8921L67.4026 66.5496C67.088 67.1232 66.9379 67.7727 66.9689 68.4262L66.9774 68.6051C67.0853 70.8797 68.9906 72.6513 71.2669 72.5938L71.8846 72.5782C74.1212 72.5217 76.025 70.9335 76.4815 68.7432L76.665 67.8632L76.7247 67.5508C77.3478 64.2903 75.1436 61.1629 71.8634 60.6535V60.6535C71.3871 60.5795 70.9034 60.5645 70.4233 60.6089L70.2635 60.6237C68.1293 60.821 66.1956 61.9635 64.9932 63.7376L64.8612 63.9324C64.2622 64.8162 63.8545 65.8154 63.6643 66.866L63.6398 67.0017C63.3057 68.8473 63.6105 70.7609 64.4954 72.4145V72.4145C65.497 74.2861 67.1774 75.7184 69.1868 76.4029L69.5076 76.5121C70.9663 77.009 72.5261 77.1331 74.045 76.8731L74.3533 76.8204C74.9135 76.7245 75.4607 76.5638 75.9838 76.3414V76.3414C77.6431 75.6362 78.9843 74.3442 79.751 72.7123L79.9006 72.3938" stroke="#006DFF"/>
<path d="M262.042 121.158L261.808 122.477C261.524 124.078 262.818 125.521 264.441 125.413V125.413C265.509 125.341 266.413 124.598 266.691 123.564L266.886 122.84C267.056 122.208 267.048 121.542 266.863 120.914L266.812 120.742C266.168 118.558 263.898 117.288 261.7 117.883L261.103 118.045C258.944 118.629 257.47 120.623 257.546 122.86L257.576 123.758L257.592 124.076C257.759 127.391 260.641 129.907 263.949 129.625V129.625C264.429 129.584 264.903 129.484 265.359 129.327L265.51 129.275C267.537 128.578 269.145 127.009 269.893 125.001L269.975 124.78C270.348 123.78 270.507 122.713 270.443 121.647L270.434 121.509C270.322 119.637 269.572 117.85 268.321 116.453V116.453C266.904 114.872 264.932 113.879 262.818 113.69L262.481 113.66C260.946 113.522 259.401 113.771 257.987 114.384L257.7 114.508C257.178 114.734 256.685 115.02 256.229 115.36V115.36C254.784 116.438 253.787 118.011 253.429 119.778L253.359 120.123" stroke="#006DFF"/>
<path d="M69.0076 36.072L65.8854 40.2255L63.8494 35.4448L69.0076 36.072Z" stroke="#FFC000"/>
<path d="M114.463 124.554L109.887 127.016L110.043 121.822L114.463 124.554Z" stroke="#006DFF"/>
<path d="M263.847 93.8199L258.795 95.036L260.268 90.0529L263.847 93.8199Z" stroke="#FFC000"/>
<path d="M237.062 23.9641L234.464 28.4641L231.866 23.9641L237.062 23.9641Z" stroke="#5BD7FF"/>
<path fill-rule="evenodd" clip-rule="evenodd" d="M124.5 17C124.776 17 125 17.2239 125 17.5V18.3561L125.124 18.6917C125.326 19.2409 125.759 19.6738 126.308 19.8763L126.644 20H127.5C127.776 20 128 20.2239 128 20.5C128 20.7761 127.776 21 127.5 21H126.644L126.308 21.1237C125.759 21.3262 125.326 21.7591 125.124 22.3083L125 22.6439V23.5C125 23.7761 124.776 24 124.5 24C124.224 24 124 23.7761 124 23.5V22.6438L123.876 22.3084C123.674 21.7591 123.241 21.3262 122.692 21.1237L122.356 21H121.5C121.224 21 121 20.7761 121 20.5C121 20.2239 121.224 20 121.5 20H122.356L122.692 19.8763C123.241 19.6738 123.674 19.2409 123.876 18.6916L124 18.3562V17.5C124 17.2239 124.224 17 124.5 17Z" fill="#EB5757"/>
<path fill-rule="evenodd" clip-rule="evenodd" d="M266.5 62C266.776 62 267 62.2239 267 62.5V63.3561L267.124 63.6917C267.326 64.2409 267.759 64.6738 268.308 64.8763L268.644 65H269.5C269.776 65 270 65.2239 270 65.5C270 65.7761 269.776 66 269.5 66H268.644L268.308 66.1237C267.759 66.3262 267.326 66.7591 267.124 67.3083L267 67.6439V68.5C267 68.7761 266.776 69 266.5 69C266.224 69 266 68.7761 266 68.5V67.6438L265.876 67.3084C265.674 66.7591 265.241 66.3262 264.692 66.1237L264.356 66H263.5C263.224 66 263 65.7761 263 65.5C263 65.2239 263.224 65 263.5 65H264.356L264.692 64.8763C265.241 64.6738 265.674 64.2409 265.876 63.6916L266 63.3562V62.5C266 62.2239 266.224 62 266.5 62Z" fill="#EB5757"/>
<path fill-rule="evenodd" clip-rule="evenodd" d="M236.5 127C236.776 127 237 127.224 237 127.5V128.356L237.124 128.692C237.326 129.241 237.759 129.674 238.308 129.876L238.644 130H239.5C239.776 130 240 130.224 240 130.5C240 130.776 239.776 131 239.5 131H238.644L238.308 131.124C237.759 131.326 237.326 131.759 237.124 132.308L237 132.644V133.5C237 133.776 236.776 134 236.5 134C236.224 134 236 133.776 236 133.5V132.644L235.876 132.308C235.674 131.759 235.241 131.326 234.692 131.124L234.356 131H233.5C233.224 131 233 130.776 233 130.5C233 130.224 233.224 130 233.5 130H234.356L234.692 129.876C235.241 129.674 235.674 129.241 235.876 128.692L236 128.356V127.5C236 127.224 236.224 127 236.5 127Z" fill="#FFC000"/>
<path fill-rule="evenodd" clip-rule="evenodd" d="M65.5 94C65.7761 94 66 94.2239 66 94.5V95.3561L66.1237 95.6917C66.3262 96.2409 66.7592 96.6738 67.3084 96.8763L67.6439 97H68.5C68.7761 97 69 97.2239 69 97.5C69 97.7761 68.7761 98 68.5 98H67.6439L67.3084 98.1237C66.7592 98.3262 66.3262 98.7591 66.1237 99.3083L66 99.6439V100.5C66 100.776 65.7761 101 65.5 101C65.2239 101 65 100.776 65 100.5V99.6438L64.8764 99.3084C64.6739 98.7591 64.2409 98.3262 63.6917 98.1237L63.3562 98H62.5C62.2239 98 62 97.7761 62 97.5C62 97.2239 62.2239 97 62.5 97H63.3562L63.6917 96.8763C64.2409 96.6738 64.6739 96.2409 64.8764 95.6916L65 95.3562V94.5C65 94.2239 65.2239 94 65.5 94Z" fill="#FFC000"/>
<path fill-rule="evenodd" clip-rule="evenodd" d="M134.5 127C134.776 127 135 127.224 135 127.5V128.356L135.124 128.692C135.326 129.241 135.759 129.674 136.308 129.876L136.644 130H137.5C137.776 130 138 130.224 138 130.5C138 130.776 137.776 131 137.5 131H136.644L136.308 131.124C135.759 131.326 135.326 131.759 135.124 132.308L135 132.644V133.5C135 133.776 134.776 134 134.5 134C134.224 134 134 133.776 134 133.5V132.644L133.876 132.308C133.674 131.759 133.241 131.326 132.692 131.124L132.356 131H131.5C131.224 131 131 130.776 131 130.5C131 130.224 131.224 130 131.5 130H132.356L132.692 129.876C133.241 129.674 133.674 129.241 133.876 128.692L134 128.356V127.5C134 127.224 134.224 127 134.5 127Z" fill="#5BD7FF"/>
</svg>
