<svg width="13" height="14" viewBox="0 0 13 14" fill="none" xmlns="http://www.w3.org/2000/svg">
<path d="M6.2 2.18332e-08C6.74891 -7.72662e-05 7.27801 0.205044 7.68344 0.575088C8.08886 0.945132 8.3413 1.45337 8.3912 2H11.8C11.952 2.00005 12.0984 2.0578 12.2094 2.16158C12.3205 2.26536 12.3881 2.40744 12.3984 2.5591C12.4088 2.71077 12.3612 2.86071 12.2653 2.97864C12.1693 3.09656 12.0322 3.17368 11.8816 3.1944L11.8 3.2H11.3336L10.32 11.984C10.2749 12.3739 10.088 12.7336 9.79487 12.9947C9.50177 13.2558 9.12292 13.4001 8.7304 13.4H3.6696C3.27708 13.4001 2.89823 13.2558 2.60513 12.9947C2.31204 12.7336 2.12514 12.3739 2.08 11.984L1.0656 3.2H0.6C0.45501 3.19999 0.314926 3.14749 0.205655 3.05219C0.0963846 2.95689 0.0253186 2.82524 0.00559998 2.6816L0 2.6C6.11432e-06 2.45501 0.0525141 2.31493 0.147814 2.20566C0.243113 2.09638 0.374757 2.02532 0.5184 2.0056L0.6 2H4.0088C4.0587 1.45337 4.31114 0.945132 4.71657 0.575088C5.12199 0.205044 5.65109 -7.72662e-05 6.2 2.18332e-08V2.18332e-08ZM5 5C4.804 5 4.64 5.124 4.6064 5.2872L4.6 5.3504V10.2504L4.6064 10.3128C4.64 10.476 4.804 10.6 5 10.6C5.196 10.6 5.36 10.476 5.3936 10.3128L5.4 10.2496V5.3512L5.3936 5.2872C5.36 5.1248 5.196 5 5 5ZM7.4 5C7.204 5 7.04 5.124 7.0064 5.2872L7 5.3504V10.2504L7.0064 10.3128C7.04 10.476 7.204 10.6 7.4 10.6C7.596 10.6 7.76 10.476 7.7936 10.3128L7.8 10.2496V5.3512L7.7936 5.2872C7.76 5.1248 7.596 5.0008 7.4 5.0008V5ZM6.2 1.2C5.716 1.2 5.312 1.544 5.22 2H7.18C7.0872 1.544 6.684 1.2 6.2 1.2V1.2Z" fill="#EB5757"/>
</svg>
