<svg width="100" height="100" viewBox="0 0 100 100" fill="none" xmlns="http://www.w3.org/2000/svg">
<path d="M25.2368 47.4951V20.3174H74.2309V47.4951" stroke="#4F4F4F"/>
<path d="M28.9648 20.3167V16.6582H70.5033V20.3167" stroke="#4F4F4F"/>
<path d="M31.6274 16.6585V13H67.8405V16.6585" stroke="#4F4F4F"/>
<path d="M60.9495 40.1777C60.9495 46.2431 55.9368 51.176 49.7336 51.176C43.5303 51.176 38.5176 46.2431 38.5176 40.1777C38.5176 34.1123 43.5303 29.1794 49.7336 29.1794C55.9368 29.1794 60.9495 34.1123 60.9495 40.1777Z" stroke="#EB5757"/>
<line y1="-0.5" x2="11" y2="-0.5" transform="matrix(0.707107 0.707107 -0.720244 0.693721 45.1616 36.3071)" stroke="#EB5757"/>
<line y1="-0.5" x2="11" y2="-0.5" transform="matrix(0.707107 -0.707107 0.720244 0.693721 45.6934 44.1165)" stroke="#EB5757"/>
<path d="M5 88H18.3136M19.1124 88L49.7337 62.1289L80.355 88M19.1124 88H80.355M19.1124 88H18.3136M80.355 88H81.4201M85.9467 88H81.4201M18.3136 42.2682L47.5686 63.9582M18.3136 42.2682L25.363 37.0417M18.3136 42.2682H25.363M18.3136 42.2682V88M81.4201 42.2682L52.1651 63.9582M81.4201 42.2682L74.3707 37.0417M81.4201 42.2682H74.3707M81.4201 42.2682V88M88.6095 88H95" stroke="#4F4F4F"/>
<path d="M17.7807 39.6548L16.1831 34.167" stroke="#4F4F4F"/>
<path d="M15.6468 40.7542L10.8579 37.5161" stroke="#4F4F4F"/>
<path d="M16.0589 42.8729L10.3252 43.8267" stroke="#4F4F4F"/>
</svg>
