<svg width="145" height="56" viewBox="0 0 145 56" fill="none" xmlns="http://www.w3.org/2000/svg">
<path d="M139.907 28.8632C138.419 28.6392 135.592 26.6981 135.592 26.6981C135.592 26.6981 137.371 25.1228 137.491 25.0406C138.908 24.0626 142.267 23.0771 143.755 24.3612C143.995 24.5823 144.188 24.854 144.322 25.1587C144.456 25.4635 144.527 25.7945 144.532 26.1302C144.537 26.466 144.474 26.7991 144.349 27.1078C144.224 27.4166 144.038 27.6941 143.804 27.9225C142.855 28.9603 141.19 29.0573 139.907 28.8632Z" fill="#263238"/>
<path d="M111.007 14.1013C111.007 14.1013 111.723 11.7645 111.776 11.6231C112.546 9.97831 114.993 7.22467 117.062 7.43305C117.405 7.4778 117.735 7.59178 118.029 7.76758C118.324 7.94338 118.577 8.17708 118.772 8.45355C118.967 8.73002 119.1 9.04309 119.162 9.37243C119.224 9.70177 119.214 10.04 119.132 10.3653C118.832 11.7645 117.393 12.8287 116.139 13.4092C114.669 14.079 111.007 14.1013 111.007 14.1013Z" fill="#263238"/>
<path d="M107.35 53.2803C106.669 54.1257 106.054 54.927 105.498 55.6621H104.1C104.832 54.7505 105.623 53.7287 106.552 52.6187C107.087 51.9718 107.679 51.2955 108.287 50.6044C107.728 49.9228 107.21 49.2085 106.735 48.4652C105.382 48.7538 103.994 48.8503 102.614 48.7519C102.519 49.5753 102.431 50.3839 102.365 51.1411C102.204 52.8539 102.109 54.3756 102.043 55.6621H100.909C101.004 54.3536 101.136 52.7878 101.333 51.0308C101.428 50.1928 101.546 49.3033 101.677 48.3844C101.355 48.2888 98.7494 47.4728 97.7832 46.6201C96.817 45.7673 96.0192 44.6132 96.1143 43.3782C96.1258 43.0846 96.1995 42.7968 96.3305 42.5341C96.4615 42.2714 96.6468 42.0398 96.874 41.8547C97.1013 41.6696 97.3652 41.5353 97.6482 41.4609C97.9312 41.3864 98.2268 41.3734 98.5152 41.4228C100.228 41.7315 101.531 44.6058 101.743 46.157C101.743 46.2452 101.743 47.2523 101.743 47.8918C101.794 47.5169 101.846 47.1567 101.904 46.7671C102.021 46.032 102.16 45.2528 102.299 44.4368C102.387 44.0472 102.468 43.6575 102.556 43.2532C102.643 42.8489 102.761 42.4519 102.863 42.0403C103.127 41.1067 103.427 40.1657 103.763 39.2247C103.097 39.1218 100.748 38.7248 99.7668 38.0853C98.786 37.4457 97.7247 36.3725 97.6295 35.1448C97.5988 34.8555 97.6288 34.5629 97.7177 34.286C97.8066 34.0091 97.9523 33.754 98.1454 33.5372C98.3386 33.3203 98.5748 33.1466 98.839 33.0272C99.1032 32.9078 99.3893 32.8453 99.679 32.8439C101.421 32.8953 103.149 35.5344 103.58 37.0341C103.58 37.1296 103.807 38.2397 103.902 38.8498C104.1 38.2911 104.298 37.7251 104.525 37.159C105.169 35.5344 105.871 33.9098 106.567 32.2852C106.779 31.7926 106.984 31.2928 107.196 30.8149C106.955 30.8149 104.159 30.3665 103.053 29.6534C102.08 29.0212 101.011 27.9479 100.916 26.7129C100.885 26.4236 100.915 26.1311 101.004 25.8542C101.093 25.5773 101.239 25.3222 101.432 25.1053C101.625 24.8885 101.861 24.7147 102.126 24.5953C102.39 24.4759 102.676 24.4134 102.966 24.412C104.708 24.4634 106.435 27.1025 106.874 28.6022C106.874 28.7125 107.182 30.315 107.233 30.7267C107.687 29.6314 108.133 28.5213 108.536 27.4334C109.078 25.9524 109.523 24.4372 109.868 22.8976C109.758 22.8976 106.838 22.4566 105.71 21.7288C104.73 21.0966 103.661 20.0159 103.573 18.7883C103.541 18.4988 103.57 18.2058 103.659 17.9283C103.747 17.6509 103.893 17.3954 104.086 17.1783C104.28 16.9612 104.516 16.7874 104.781 16.6684C105.046 16.5494 105.333 16.4877 105.623 16.4874C107.365 16.5388 109.085 19.1779 109.524 20.6776C109.524 20.7731 109.766 21.9934 109.853 22.5742H109.949C110.259 21.0147 110.428 19.4302 110.454 17.84C110.454 16.9652 110.454 16.1272 110.454 15.3112C109.897 15.3112 107.372 15.1641 106.289 14.6202C105.205 14.0762 104.093 13.1499 103.844 11.9296C103.782 11.6453 103.779 11.3511 103.837 11.0659C103.895 10.7807 104.012 10.5109 104.181 10.2739C104.349 10.037 104.565 9.83814 104.815 9.69026C105.064 9.54239 105.342 9.44877 105.63 9.41547C107.365 9.27579 109.37 11.7091 109.963 13.1499C109.963 13.2308 110.241 14.0614 110.41 14.6716C110.41 14.304 110.366 13.9365 110.336 13.5763C110.227 12.253 110.044 11.0548 109.875 9.98886C109.773 9.38606 109.67 8.84207 109.568 8.33483C109.041 8.03343 106.911 6.76902 106.215 5.80601C105.52 4.843 104.92 3.46833 105.279 2.28478C105.352 2.00347 105.484 1.74087 105.665 1.51417C105.846 1.28747 106.073 1.10176 106.331 0.969218C106.589 0.836679 106.871 0.760291 107.16 0.745033C107.45 0.729775 107.739 0.776007 108.009 0.880692C109.619 1.55701 110.278 4.64452 110.146 6.20298C110.146 6.3353 109.722 8.40835 109.692 8.40835C109.802 8.89353 109.912 9.42282 110.014 9.99622C110.212 11.0548 110.417 12.253 110.556 13.5763C110.725 14.9985 110.808 16.4297 110.805 17.8621C110.812 19.4685 110.677 21.0725 110.402 22.6551C110.402 22.6551 110.402 22.6918 110.402 22.7065C110.644 22.2507 111.347 21.0084 111.412 20.9201C112.335 19.6557 114.845 17.7591 116.5 18.3105C116.757 18.4214 116.99 18.5837 117.184 18.7876C117.377 18.9916 117.527 19.2328 117.625 19.4967C117.723 19.7607 117.766 20.0418 117.753 20.3232C117.739 20.6045 117.669 20.8801 117.546 21.1333C117.041 22.2581 115.673 22.9123 114.538 23.177C113.257 23.471 110.476 22.8976 110.249 22.8535C109.932 24.4565 109.506 26.0358 108.975 27.5804C108.668 28.4772 108.338 29.3741 107.994 30.2709C108.206 29.8887 108.404 29.5358 108.441 29.4991C109.363 28.2346 111.874 26.3454 113.564 26.8894C113.837 26.9877 114.086 27.1429 114.295 27.3447C114.504 27.5466 114.669 27.7905 114.777 28.0605C114.886 28.3306 114.936 28.6206 114.925 28.9116C114.914 29.2026 114.842 29.4879 114.714 29.749C114.216 30.8811 112.84 31.528 111.713 31.7926C110.585 32.0573 108.177 31.6236 107.548 31.4986C107.409 31.8367 107.277 32.1822 107.138 32.5278C106.479 34.1671 105.813 35.7991 105.213 37.4237C104.993 37.9971 104.81 38.5705 104.62 39.1365C104.81 38.7984 104.978 38.5117 105.008 38.4676C105.93 37.2032 108.441 35.3065 110.095 35.8579C110.368 35.9562 110.617 36.1114 110.826 36.3133C111.035 36.5151 111.199 36.759 111.308 37.0291C111.416 37.2991 111.467 37.5891 111.456 37.8801C111.445 38.1711 111.373 38.4565 111.244 38.7175C110.746 39.8496 109.37 40.4965 108.243 40.7612C107.116 41.0258 104.935 40.6288 104.188 40.4892C104.012 41.0773 103.829 41.6653 103.683 42.2461C103.595 42.6431 103.478 43.0253 103.412 43.4297C103.346 43.834 103.258 44.2236 103.185 44.6132C103.068 45.3483 102.936 46.1569 102.841 46.9068C102.775 47.4214 102.717 47.9139 102.658 48.4138C102.863 47.8404 103.288 46.7304 103.332 46.6421C104.005 45.4361 104.975 44.4237 106.15 43.7016C106.223 43.5659 106.306 43.4356 106.398 43.312C106.569 43.0772 106.787 42.8811 107.038 42.7362C107.288 42.5914 107.567 42.5012 107.855 42.4714C108.142 42.4416 108.433 42.4729 108.708 42.5632C108.983 42.6536 109.236 42.801 109.451 42.9959C110.71 44.2089 110.219 47.3258 109.546 48.7299C109.502 48.8181 108.968 49.6635 108.624 50.2001C108.873 49.9208 109.114 49.6414 109.356 49.3547C109.868 48.7813 110.395 48.23 110.966 47.6346L111.822 46.7892C112.108 46.4951 112.437 46.2305 112.752 45.9438C113.484 45.3042 114.252 44.6941 115.043 44.0913C114.545 43.6355 112.847 42.0035 112.335 40.9302C111.822 39.8569 111.603 38.3646 112.174 37.2914C112.306 37.032 112.491 36.8035 112.717 36.6211C112.943 36.4386 113.205 36.3062 113.486 36.2327C113.766 36.1591 114.059 36.1459 114.345 36.1941C114.631 36.2423 114.904 36.3506 115.145 36.5121C116.609 37.5119 116.558 40.6729 116.097 42.1652C116.097 42.2608 115.621 43.29 115.365 43.856C115.841 43.4958 116.317 43.1209 116.829 42.7974C118.256 41.7977 119.757 40.8273 121.221 39.8569C121.675 39.5629 122.121 39.2615 122.568 38.9601C122.385 38.8057 120.277 36.9017 119.757 35.7035C119.288 34.6302 119.025 33.1379 119.589 32.0646C119.721 31.8055 119.906 31.5772 120.132 31.3947C120.358 31.2121 120.619 31.0794 120.9 31.0052C121.18 30.931 121.473 30.9169 121.759 30.9639C122.045 31.0109 122.318 31.118 122.56 31.2781C123.988 32.2852 123.973 35.4462 123.512 36.9385C123.512 37.0488 122.831 38.5411 122.648 38.9086C123.629 38.247 124.61 37.5781 125.539 36.8797C126.811 35.9498 128.016 34.9329 129.148 33.8363C129.068 33.7628 126.857 31.7926 126.315 30.5576C125.854 29.4917 125.583 27.9994 126.154 26.9188C126.288 26.661 126.474 26.4343 126.7 26.2532C126.927 26.0721 127.188 25.9405 127.468 25.8671C127.748 25.7937 128.04 25.78 128.326 25.8269C128.611 25.8739 128.884 25.9803 129.126 26.1395C130.553 27.1467 130.539 30.3003 130.078 31.7926C130.078 31.8956 129.558 33.0276 129.346 33.5643L129.426 33.6157C130.545 32.4871 131.557 31.2567 132.449 29.9401C132.947 29.205 133.393 28.514 133.803 27.8156C133.357 27.4922 131.322 25.9852 130.714 24.9266C130.107 23.868 129.668 22.4639 130.151 21.3318C130.254 21.0604 130.413 20.8137 130.617 20.6079C130.821 20.402 131.066 20.2416 131.336 20.1369C131.606 20.0323 131.894 19.9857 132.183 20.0003C132.472 20.015 132.755 20.0904 133.013 20.2218C134.543 21.0672 134.879 24.2062 134.587 25.7426C134.587 25.8234 134.316 26.6541 134.118 27.2569C134.301 26.9408 134.491 26.61 134.66 26.3013C135.297 25.1398 135.802 24.0371 136.248 23.0594C136.49 22.5007 136.702 21.9861 136.9 21.5083C136.621 20.9569 135.545 18.7295 135.487 17.5312C135.428 16.333 135.692 14.8701 136.643 14.0761C136.86 13.8832 137.115 13.7382 137.392 13.6508C137.668 13.5634 137.96 13.5354 138.248 13.5687C138.536 13.602 138.814 13.6958 139.063 13.844C139.312 13.9922 139.528 14.1916 139.696 14.429C140.662 15.8993 139.52 18.8398 138.554 20.0454C138.473 20.1556 136.98 21.6626 136.965 21.6332C136.79 22.0963 136.599 22.5962 136.373 23.1035C135.948 24.0959 135.465 25.2133 134.85 26.3895C134.21 27.6573 133.494 28.8848 132.705 30.0651C131.83 31.4075 130.838 32.6695 129.741 33.8363L129.697 33.873C130.144 33.6305 131.417 32.9835 131.52 32.9394C132.984 32.4028 136.124 32.2043 137.2 33.5863C137.372 33.8197 137.494 34.0868 137.557 34.3705C137.62 34.6542 137.623 34.948 137.566 35.2329C137.509 35.5178 137.392 35.7875 137.225 36.0243C137.057 36.2611 136.841 36.4599 136.592 36.6077C135.553 37.2693 134.052 37.0561 132.932 36.6445C131.703 36.1813 129.69 34.1671 129.529 34.0054C128.382 35.1647 127.16 36.2453 125.869 37.2399C125.137 37.8206 124.354 38.3867 123.57 38.938L124.368 38.5411C125.832 38.0044 128.972 37.8059 130.048 39.188C130.221 39.4218 130.342 39.6893 130.405 39.9733C130.467 40.2573 130.47 40.5513 130.412 40.8363C130.354 41.1213 130.236 41.3908 130.068 41.6273C129.899 41.8639 129.683 42.0622 129.434 42.2093C128.394 42.871 126.894 42.6578 125.81 42.2461C124.727 41.8344 122.956 40.1436 122.494 39.6952L121.594 40.3274C120.13 41.3272 118.666 42.3269 117.29 43.3414C116.8 43.7016 116.331 44.0765 115.826 44.4441L116.558 44.106C118.022 43.562 121.155 43.3708 122.238 44.7455C122.411 44.9793 122.532 45.2469 122.594 45.5309C122.657 45.8148 122.659 46.1089 122.601 46.3938C122.543 46.6788 122.426 46.9483 122.258 47.1849C122.089 47.4214 121.873 47.6197 121.623 47.7669C120.584 48.4285 119.083 48.2153 117.964 47.7669C116.844 47.3185 115.285 45.8335 114.736 45.2969C114.267 45.6865 113.791 46.0835 113.352 46.4878C113.052 46.7671 112.752 47.017 112.474 47.3184L111.632 48.1859C111.112 48.7519 110.578 49.3327 110.088 49.9061C109.744 50.2957 109.429 50.678 109.107 51.0602C109.59 50.6927 110.571 50.0016 110.644 49.9575C112.005 49.2224 115.08 48.5314 116.353 49.7296C116.559 49.9346 116.719 50.1808 116.823 50.452C116.928 50.7233 116.975 51.0136 116.96 51.3041C116.946 51.5947 116.87 51.8789 116.739 52.1383C116.608 52.3977 116.424 52.6265 116.2 52.8098C115.277 53.6258 113.755 53.6332 112.62 53.3979C111.369 53.1333 109.158 51.5233 108.88 51.3175C108.338 52.06 107.826 52.6849 107.35 53.2803Z" fill="#263238"/>
<path d="M79.337 28.3572C77.7725 28.1346 74.7999 26.205 74.7999 26.205C74.7999 26.205 76.6698 24.639 76.7965 24.5574C78.2865 23.5852 81.8179 22.6055 83.3824 23.882C83.6347 24.1017 83.8377 24.3718 83.9785 24.6748C84.1193 24.9777 84.1945 25.3067 84.1994 25.6405C84.2044 25.9743 84.1388 26.3054 84.007 26.6123C83.8753 26.9192 83.6802 27.1951 83.4345 27.4221C82.4362 28.4537 80.6854 28.5502 79.337 28.3572Z" fill="#263238"/>
<path d="M50.3933 13.6687C50.3933 13.6687 51.0861 11.3383 51.1383 11.1973C51.8833 9.55715 54.2524 6.81116 56.2565 7.01896C56.5886 7.06358 56.9076 7.17724 57.1928 7.35256C57.478 7.52787 57.723 7.76092 57.9119 8.03662C58.1009 8.31233 58.2296 8.62453 58.2896 8.95295C58.3497 9.28138 58.3398 9.61871 58.2606 9.94308C57.97 11.3383 56.5769 12.3996 55.3625 12.9785C53.9395 13.6465 50.3933 13.6687 50.3933 13.6687Z" fill="#263238"/>
<path d="M46.6087 53.0411C45.9158 53.8945 45.29 54.7035 44.7238 55.4456H43.3008C44.0459 54.5254 44.8505 53.4938 45.7966 52.3731C46.3405 51.72 46.9439 51.0372 47.5623 50.3396C46.9934 49.6514 46.466 48.9303 45.9829 48.1799C44.6052 48.4712 43.1933 48.5687 41.7885 48.4693C41.6916 49.3006 41.6022 50.1169 41.5352 50.8814C41.3713 52.6106 41.2744 54.1469 41.2074 55.4456H40.0526C40.1494 54.1246 40.2836 52.5438 40.4847 50.77C40.5816 49.924 40.7008 49.026 40.8349 48.0983C40.5071 48.0018 37.8548 47.178 36.8714 46.3171C35.888 45.4562 35.0759 44.291 35.1728 43.0441C35.1844 42.7477 35.2594 42.4572 35.3928 42.192C35.5261 41.9267 35.7147 41.6929 35.946 41.5061C36.1773 41.3192 36.4459 41.1837 36.734 41.1085C37.022 41.0333 37.3229 41.0202 37.6164 41.07C39.3597 41.3817 40.6859 44.2836 40.9019 45.8495C40.9019 45.9386 40.9019 46.9553 40.9019 47.601C40.9541 47.2225 41.0062 46.8588 41.0658 46.4655C41.185 45.7233 41.3266 44.9367 41.4681 44.1129C41.5575 43.7195 41.6395 43.3262 41.7289 42.918C41.8183 42.5098 41.9375 42.109 42.0418 41.6934C42.31 40.7509 42.6154 39.8009 42.9581 38.8509C42.2802 38.747 39.8887 38.3463 38.8904 37.7006C37.8921 37.0549 36.8118 35.9713 36.715 34.7319C36.6837 34.4399 36.7143 34.1445 36.8047 33.865C36.8952 33.5854 37.0435 33.3278 37.2401 33.1089C37.4367 32.89 37.6771 32.7146 37.946 32.5941C38.2149 32.4735 38.5061 32.4104 38.801 32.409C40.5741 32.4609 42.3323 35.1253 42.7719 36.6393C42.7719 36.7358 43.0028 37.8564 43.0997 38.4724C43.3008 37.9084 43.502 37.3369 43.733 36.7655C44.3886 35.1253 45.1038 33.4851 45.8115 31.8449C46.0276 31.3477 46.2362 30.843 46.4522 30.3606C46.2064 30.3606 43.3604 29.9079 42.2355 29.188C41.2446 28.5497 40.1569 27.4662 40.06 26.2194C40.0288 25.9273 40.0594 25.6319 40.1498 25.3524C40.2403 25.0728 40.3886 24.8153 40.5852 24.5964C40.7817 24.3774 41.0222 24.202 41.2911 24.0815C41.56 23.9609 41.8512 23.8978 42.1461 23.8964C43.9192 23.9483 45.6774 26.6127 46.1244 28.1267C46.1244 28.238 46.4373 29.856 46.4895 30.2716C46.9514 29.1657 47.4059 28.0451 47.8156 26.9467C48.3678 25.4515 48.8207 23.9219 49.1715 22.3675C49.0598 22.3675 46.0872 21.9222 44.9399 21.1875C43.9416 20.5492 42.8538 19.4583 42.7644 18.2189C42.732 17.9266 42.7617 17.6307 42.8517 17.3507C42.9417 17.0706 43.09 16.8126 43.2868 16.5934C43.4836 16.3742 43.7246 16.1989 43.994 16.0787C44.2634 15.9585 44.5553 15.8962 44.8505 15.8959C46.6236 15.9478 48.3744 18.6122 48.8214 20.1262C48.8214 20.2227 49.0672 21.4547 49.1566 22.041H49.2535C49.5696 20.4666 49.7417 18.8669 49.7675 17.2615C49.7675 16.3783 49.7675 15.5323 49.7675 14.7085C49.2013 14.7085 46.631 14.56 45.5284 14.0108C44.4258 13.4616 43.2934 12.5265 43.0401 11.2945C42.9767 11.0075 42.9744 10.7104 43.0334 10.4225C43.0924 10.1346 43.2115 9.86222 43.3828 9.62299C43.5541 9.38377 43.774 9.18303 44.028 9.03373C44.2821 8.88444 44.5649 8.78993 44.8579 8.75631C46.6236 8.6153 48.6649 11.0719 49.2684 12.5265C49.2684 12.6081 49.5515 13.4468 49.7228 14.0628C49.7228 13.6917 49.6781 13.3206 49.6483 12.9569C49.5366 11.6211 49.3503 10.4113 49.179 9.33519C49.0747 8.72662 48.9704 8.17742 48.8661 7.66533C48.3297 7.36104 46.1617 6.08453 45.4539 5.11229C44.7462 4.14006 44.1353 2.75224 44.5003 1.55736C44.5749 1.27335 44.7089 1.00824 44.8935 0.779369C45.0781 0.550499 45.3091 0.363011 45.5714 0.229204C45.8337 0.0953957 46.1214 0.0182763 46.4157 0.00287253C46.71 -0.0125312 47.0043 0.0341434 47.2792 0.139831C48.9182 0.822619 49.5887 3.93969 49.4546 5.51307C49.4546 5.64666 49.0225 7.73955 48.9927 7.73955C49.1045 8.22938 49.2162 8.76374 49.3205 9.34262C49.5217 10.4113 49.7303 11.6211 49.8718 12.9569C50.0438 14.3928 50.1284 15.8377 50.1251 17.2838C50.1323 18.9056 49.9952 20.5249 49.7154 22.1226C49.7154 22.1226 49.7154 22.1597 49.7154 22.1746C49.9612 21.7144 50.6765 20.4602 50.7435 20.3711C51.6822 19.0946 54.2376 17.1798 55.9213 17.7365C56.1837 17.8484 56.4205 18.0123 56.6174 18.2182C56.8143 18.4241 56.9672 18.6676 57.0668 18.9341C57.1664 19.2005 57.2107 19.4844 57.1969 19.7684C57.1832 20.0524 57.1116 20.3307 56.9867 20.5864C56.4726 21.7219 55.0795 22.3824 53.9247 22.6496C52.6209 22.9464 49.7899 22.3675 49.5589 22.323C49.2365 23.9413 48.8034 25.5357 48.2626 27.0951C47.9497 28.0006 47.6145 28.906 47.2643 29.8114C47.4804 29.4255 47.6815 29.0693 47.7188 29.0321C48.6575 27.7556 51.2129 25.8483 52.9338 26.3975C53.2116 26.4968 53.4652 26.6534 53.6779 26.8572C53.8906 27.061 54.0576 27.3073 54.1681 27.5799C54.2785 27.8525 54.3299 28.1453 54.3188 28.4391C54.3076 28.7328 54.2343 29.0209 54.1035 29.2845C53.5969 30.4274 52.1963 31.0805 51.049 31.3477C49.9016 31.6149 47.4506 31.177 46.8098 31.0508C46.6683 31.3922 46.5342 31.741 46.3926 32.0898C45.7221 33.7449 45.0442 35.3925 44.4333 37.0326C44.2098 37.6115 44.0235 38.1904 43.8298 38.7619C44.0235 38.4205 44.1949 38.131 44.2247 38.0865C45.1634 36.81 47.7188 34.8952 49.4025 35.4518C49.6803 35.5511 49.9338 35.7078 50.1465 35.9116C50.3592 36.1154 50.5263 36.3616 50.6367 36.6342C50.7472 36.9069 50.7985 37.1996 50.7874 37.4934C50.7763 37.7872 50.7029 38.0753 50.5722 38.3389C50.0655 39.4818 48.6649 40.1349 47.5176 40.4021C46.3703 40.6692 44.1502 40.2685 43.3902 40.1275C43.2114 40.7212 43.0252 41.3149 42.8762 41.9012C42.7868 42.302 42.6676 42.6879 42.6005 43.0961C42.5335 43.5043 42.4441 43.8976 42.3696 44.291C42.2504 45.0331 42.1163 45.8495 42.0194 46.6065C41.9524 47.126 41.8928 47.6233 41.8332 48.128C42.0418 47.5491 42.4739 46.4284 42.5186 46.3393C43.2042 45.1218 44.1917 44.0997 45.3869 43.3707C45.4616 43.2336 45.5463 43.1022 45.6402 42.9774C45.8137 42.7403 46.0353 42.5423 46.2906 42.396C46.5459 42.2498 46.8293 42.1587 47.1222 42.1287C47.4151 42.0986 47.7112 42.1301 47.991 42.2214C48.2709 42.3126 48.5285 42.4615 48.7469 42.6582C50.0283 43.8828 49.5291 47.0295 48.8437 48.4471C48.799 48.5361 48.2552 49.3896 47.905 49.9314C48.1583 49.6494 48.4042 49.3674 48.65 49.0779C49.1715 48.499 49.7079 47.9424 50.289 47.3413L51.1607 46.4878C51.4513 46.1909 51.7865 45.9237 52.1069 45.6343C52.8519 44.9886 53.6341 44.3726 54.4388 43.764C53.9322 43.3039 52.2037 41.6563 51.6822 40.5727C51.1607 39.4892 50.9372 37.9826 51.5183 36.8991C51.6527 36.6372 51.8411 36.4066 52.0712 36.2224C52.3014 36.0381 52.568 35.9045 52.8536 35.8302C53.1393 35.7559 53.4375 35.7426 53.7286 35.7913C54.0198 35.8399 54.2974 35.9493 54.5431 36.1124C56.0331 37.1217 55.9809 40.313 55.5116 41.8196C55.5116 41.9161 55.0273 42.9551 54.7666 43.5265C55.2508 43.1629 55.7351 42.7844 56.2566 42.4578C57.7094 41.4485 59.2366 40.4688 60.7267 39.4892C61.1886 39.1923 61.643 38.888 62.0975 38.5838C61.9112 38.4279 59.7656 36.5057 59.2366 35.296C58.7598 34.2124 58.4916 32.7058 59.0653 31.6223C59.1998 31.3606 59.3882 31.1302 59.6181 30.9459C59.848 30.7616 60.1144 30.6276 60.3997 30.5527C60.6851 30.4778 60.9831 30.4636 61.2743 30.5111C61.5656 30.5585 61.8435 30.6666 62.09 30.8282C63.5428 31.8449 63.5279 35.0362 63.0585 36.5428C63.0585 36.6541 62.3657 38.1607 62.1794 38.5318C63.1777 37.8639 64.176 37.1885 65.1222 36.4834C66.416 35.5447 67.6432 34.518 68.7951 33.4109C68.7132 33.3367 66.4632 31.3477 65.9119 30.1009C65.4426 29.0247 65.1669 27.5181 65.748 26.4272C65.8841 26.167 66.0734 25.9381 66.3037 25.7552C66.534 25.5723 66.8003 25.4396 67.0852 25.3654C67.3702 25.2913 67.6676 25.2775 67.9582 25.3249C68.2489 25.3722 68.5264 25.4798 68.7728 25.6405C70.2255 26.6572 70.2106 29.8411 69.7413 31.3477C69.7413 31.4516 69.2123 32.5945 68.9963 33.1363L69.0782 33.1883C70.2169 32.0488 71.247 30.8066 72.1551 29.4774C72.6617 28.7353 73.1162 28.0376 73.5334 27.3326C73.0789 27.006 71.0078 25.4846 70.3894 24.4159C69.7711 23.3472 69.3241 21.9297 69.8158 20.7868C69.9207 20.5127 70.0823 20.2637 70.2901 20.0559C70.4979 19.848 70.7472 19.6861 71.0218 19.5804C71.2965 19.4747 71.5904 19.4278 71.8844 19.4425C72.1785 19.4573 72.4662 19.5334 72.7288 19.6661C74.2858 20.5196 74.6286 23.6886 74.3305 25.2397C74.3305 25.3214 74.0549 26.16 73.8537 26.7686C74.04 26.4494 74.2337 26.1155 74.405 25.8037C75.0532 24.6311 75.5673 23.5179 76.0217 22.5308C76.2676 21.9668 76.4836 21.4473 76.6848 20.9649C76.4017 20.4082 75.3065 18.1595 75.2469 16.9498C75.1873 15.74 75.4555 14.2631 76.424 13.4616C76.6449 13.2668 76.9044 13.1205 77.1858 13.0322C77.4672 12.9439 77.7641 12.9157 78.0572 12.9493C78.3502 12.9829 78.6329 13.0776 78.8868 13.2272C79.1407 13.3769 79.3601 13.5781 79.5307 13.8178C80.5141 15.3022 79.3519 18.2708 78.3685 19.488C78.2866 19.5993 76.7667 21.1207 76.7518 21.091C76.573 21.5586 76.3793 22.0632 76.1484 22.5753C75.7163 23.5773 75.2246 24.7053 74.5988 25.8928C73.9475 27.1728 73.2186 28.412 72.4159 29.6036C71.5248 30.9589 70.5151 32.2329 69.3986 33.4109L69.3539 33.448C69.8083 33.2031 71.1047 32.55 71.209 32.5055C72.699 31.9637 75.8951 31.7633 76.9902 33.1586C77.1659 33.3941 77.2899 33.6638 77.3541 33.9502C77.4183 34.2366 77.4214 34.5333 77.3631 34.8209C77.3048 35.1085 77.1864 35.3808 77.0156 35.6199C76.8449 35.859 76.6255 36.0597 76.3719 36.2089C75.314 36.8768 73.7867 36.6616 72.6468 36.246C71.3952 35.7784 69.3464 33.7449 69.1825 33.5816C68.0157 34.752 66.7712 35.843 65.4575 36.8471C64.7125 37.4334 63.9153 38.0049 63.1181 38.5615L63.9302 38.1607C65.4202 37.6189 68.6163 37.4186 69.7115 38.8138C69.8868 39.0499 70.0104 39.32 70.074 39.6067C70.1377 39.8934 70.1401 40.1902 70.0811 40.4779C70.0221 40.7656 69.9029 41.0377 69.7314 41.2765C69.5599 41.5154 69.3399 41.7156 69.0857 41.8641C68.0278 42.5321 66.5005 42.3168 65.3979 41.9012C64.2953 41.4856 62.4923 39.7786 62.023 39.3259L61.1066 39.9642C59.6166 40.9735 58.1266 41.9828 56.7259 43.007C56.2268 43.3707 55.75 43.7492 55.2359 44.1203L55.9809 43.7789C57.471 43.2297 60.6596 43.0367 61.7622 44.4246C61.9376 44.6606 62.0611 44.9307 62.1248 45.2174C62.1885 45.5041 62.1909 45.801 62.1318 46.0887C62.0728 46.3764 61.9537 46.6484 61.7822 46.8873C61.6107 47.1261 61.3907 47.3263 61.1364 47.4749C60.0785 48.1428 58.5512 47.9276 57.4114 47.4749C56.2715 47.0221 54.6846 45.523 54.1259 44.9812C53.649 45.3745 53.1648 45.7753 52.7178 46.1835C52.4123 46.4655 52.1069 46.7178 51.8238 47.0221L50.967 47.8979C50.438 48.4693 49.8942 49.0557 49.395 49.6345C49.0449 50.0279 48.7245 50.4138 48.3967 50.7997C48.8884 50.4286 49.8867 49.731 49.9612 49.6865C51.347 48.9443 54.476 48.2467 55.7723 49.4564C55.9815 49.6634 56.1445 49.9119 56.251 50.1857C56.3574 50.4596 56.4047 50.7527 56.39 51.046C56.3752 51.3393 56.2987 51.6262 56.1653 51.8881C56.0319 52.15 55.8447 52.381 55.6159 52.5661C54.6772 53.3899 53.1275 53.3973 51.9728 53.1598C50.6988 52.8926 48.4489 51.2673 48.1658 51.0595C47.6145 51.8091 47.093 52.4399 46.6087 53.0411Z" fill="#263238"/>
<path d="M3.5619 36.4165C4.70922 36.2533 6.8772 34.8431 6.8772 34.8431C6.8772 34.8431 5.51383 33.7002 5.38718 33.6334C4.27711 32.8913 1.71427 32.2085 0.581857 33.1436C0.398823 33.3065 0.252384 33.5061 0.15212 33.7292C0.0518556 33.9524 2.78613e-05 34.1942 2.78613e-05 34.4387C2.78613e-05 34.6832 0.0518556 34.9249 0.15212 35.1481C0.252384 35.3713 0.398823 35.5708 0.581857 35.7337C0.999241 36.0559 1.48193 36.2838 1.99649 36.4017C2.51105 36.5196 3.04518 36.5246 3.5619 36.4165V36.4165Z" fill="#263238"/>
<path d="M24.2061 25.6846C24.2061 25.6846 23.6994 23.985 23.6473 23.8811C23.1183 22.6788 21.4123 20.675 19.9222 20.8308C19.6769 20.8595 19.4406 20.9398 19.2288 21.0664C19.017 21.193 18.8346 21.363 18.6937 21.5651C18.5528 21.7671 18.4567 21.9967 18.4116 22.2387C18.3665 22.4806 18.3735 22.7293 18.4322 22.9682C18.603 23.4705 18.8814 23.9297 19.248 24.3142C19.6146 24.6986 20.0608 24.9991 20.5555 25.1947C21.6209 25.6697 24.2061 25.6846 24.2061 25.6846Z" fill="#263238"/>
<path d="M26.5902 53.6863C27.0968 54.3097 27.5587 54.9034 27.9684 55.4452H29.004C28.4825 54.7773 27.879 54.0203 27.1862 53.2187C26.7839 52.7438 26.3518 52.2391 25.8973 51.7344C26.3111 51.2308 26.6942 50.7029 27.0446 50.1536C28.0526 50.3678 29.0858 50.4403 30.1141 50.3688C30.1886 50.9774 30.2482 51.5711 30.3003 52.1278C30.4195 53.3969 30.494 54.5175 30.5387 55.4675H31.3806C31.3135 54.5027 31.2167 53.3449 31.0677 52.0535C30.9932 51.4376 30.9112 50.777 30.8144 50.1017C31.8392 49.8157 32.814 49.3752 33.705 48.7955C34.0739 48.5108 34.3762 48.1496 34.5911 47.737C34.8059 47.3243 34.9281 46.8701 34.9492 46.4057C34.9508 46.1834 34.9023 45.9636 34.8072 45.7625C34.7121 45.5614 34.5729 45.3841 34.3999 45.2437C34.2268 45.1034 34.0243 45.0036 33.8073 44.9516C33.5904 44.8997 33.3644 44.897 33.1463 44.9437C31.8723 45.1737 30.9112 47.2889 30.7473 48.4318C30.7473 48.4986 30.7473 49.2408 30.7473 49.7083C30.7101 49.4337 30.6728 49.1665 30.6281 48.8845C30.5387 48.3205 30.4419 47.7639 30.3301 47.1627C30.2705 46.8807 30.2109 46.5913 30.1439 46.2944C30.0768 45.9975 29.9874 45.7006 29.9129 45.3964C29.7192 44.7062 29.4957 44.016 29.2498 43.3183C30.2807 43.1937 31.286 42.9108 32.2299 42.4797C32.6347 42.2564 32.9862 41.9484 33.2602 41.5768C33.5341 41.2053 33.724 40.779 33.8168 40.3274C33.8397 40.1136 33.8173 39.8974 33.7511 39.6928C33.6849 39.4882 33.5763 39.2996 33.4324 39.1395C33.2884 38.9793 33.1123 38.8509 32.9154 38.7628C32.7186 38.6747 32.5053 38.6287 32.2895 38.6279C30.9932 38.665 29.7118 40.6094 29.3914 41.7227C29.3914 41.7895 29.22 42.6058 29.153 43.0586C29.004 42.6429 28.855 42.2273 28.6911 41.8117C28.2068 40.6169 27.6853 39.4146 27.2011 38.2197L26.7317 37.1213C27.7945 36.988 28.8315 36.6978 29.8086 36.2604C30.2156 36.0351 30.5688 35.7248 30.844 35.3508C31.1192 34.9767 31.3099 34.5477 31.4029 34.0933C31.4247 33.8797 31.4015 33.664 31.3349 33.4598C31.2682 33.2557 31.1595 33.0677 31.0158 32.9077C30.8721 32.7478 30.6965 32.6195 30.5001 32.531C30.3038 32.4425 30.0911 32.3957 29.8757 32.3937C28.5793 32.3937 27.2979 34.3753 26.9701 35.4811C26.9701 35.5702 26.7392 36.7502 26.7019 37.0545C26.3667 36.2455 26.0314 35.4366 25.7334 34.6202C25.3315 33.5268 25.0005 32.4088 24.7425 31.273C25.8103 31.1446 26.8525 30.8569 27.8343 30.4196C28.2431 30.192 28.5969 29.8781 28.8711 29.4999C29.1452 29.1217 29.333 28.6883 29.4212 28.2302C29.4451 28.0196 29.4246 27.8064 29.361 27.6042C29.2973 27.402 29.192 27.2153 29.0517 27.056C28.9115 26.8967 28.7393 26.7683 28.5464 26.6791C28.3534 26.5899 28.1439 26.5419 27.9312 26.5381C26.6349 26.5381 25.3534 28.5196 25.0331 29.6254C25.0331 29.6997 24.8543 30.5977 24.7872 31.0281H24.7127C24.4825 29.8791 24.3578 28.7115 24.3402 27.54C24.3402 26.8943 24.3402 26.2709 24.3402 25.6697C25.3939 25.6622 26.4398 25.4894 27.4395 25.1576C27.8701 24.9809 28.2563 24.7116 28.5706 24.3691C28.8848 24.0266 29.1193 23.6192 29.2573 23.1761C29.3048 22.9668 29.3073 22.75 29.2646 22.5397C29.222 22.3294 29.1353 22.1305 29.01 21.956C28.8848 21.7815 28.7239 21.6353 28.538 21.5271C28.3521 21.4189 28.1453 21.3511 27.9312 21.3281C26.6423 21.2168 25.1523 23.0128 24.7053 24.0815C24.7053 24.1335 24.5041 24.7495 24.3775 25.2022C24.3775 24.9276 24.3775 24.653 24.4296 24.3932C24.5116 23.421 24.6457 22.5304 24.7723 21.7511C24.8468 21.3058 24.9213 20.9051 25.0033 20.5266C25.9263 20.037 26.7682 19.4087 27.4991 18.6637C27.7968 18.3068 28.013 17.8895 28.1327 17.441C28.2523 16.9924 28.2725 16.5233 28.1919 16.0662C28.1371 15.8584 28.039 15.6644 27.9039 15.497C27.7688 15.3295 27.5998 15.1923 27.4079 15.0942C27.216 14.9962 27.0055 14.9396 26.7902 14.928C26.5748 14.9164 26.3594 14.9502 26.1581 15.0272C24.966 15.5244 24.4743 17.8028 24.5712 18.9532C24.5712 19.0497 24.8915 20.5934 24.9064 20.5785C24.8245 20.9422 24.7425 21.3207 24.6606 21.7511C24.519 22.5304 24.3626 23.4136 24.2583 24.3932C24.1359 25.4427 24.0737 26.4983 24.072 27.5548C24.0665 28.7392 24.1687 29.9216 24.3775 31.0875C24.3782 31.0999 24.3782 31.1123 24.3775 31.1246C24.1987 30.7907 23.6325 29.8704 23.6325 29.8036C22.9471 28.8759 21.0771 27.4806 19.8478 27.8814C19.6454 27.9544 19.4607 28.069 19.3056 28.2178C19.1506 28.3666 19.0287 28.5463 18.9479 28.745C18.8671 28.9438 18.8292 29.1573 18.8366 29.3716C18.844 29.586 18.8967 29.7964 18.991 29.9891C19.2324 30.3839 19.5575 30.7214 19.9436 30.9778C20.3297 31.2342 20.7674 31.4034 21.2261 31.4734C22.2949 31.558 23.3704 31.4779 24.4147 31.2359C24.6534 32.4187 24.972 33.5841 25.3683 34.7241C25.5918 35.3846 25.8377 36.0526 26.1134 36.7131C25.9494 36.4237 25.8004 36.1713 25.7781 36.1416C25.0927 35.2065 23.2227 33.8112 21.9934 34.2194C21.791 34.2925 21.6063 34.4071 21.4513 34.5559C21.2962 34.7047 21.1743 34.8843 21.0935 35.0831C21.0127 35.2819 20.9748 35.4954 20.9822 35.7097C20.9897 35.924 21.0423 36.1344 21.1367 36.3272C21.3792 36.721 21.7046 37.0577 22.0905 37.314C22.4764 37.5702 22.9135 37.74 23.3717 37.8115C24.4101 37.8968 25.4556 37.8217 26.471 37.5888L26.769 38.331C27.2607 39.5407 27.7598 40.743 28.2068 41.9379C28.3633 42.3609 28.5048 42.784 28.6464 43.207C28.5048 42.9547 28.3782 42.7394 28.3558 42.7097C27.6704 41.782 25.8004 40.3794 24.5712 40.7875C24.3688 40.8606 24.184 40.9752 24.029 41.124C23.8739 41.2728 23.7521 41.4524 23.6713 41.6512C23.5905 41.85 23.5526 42.0635 23.56 42.2778C23.5674 42.4922 23.62 42.7025 23.7144 42.8953C23.958 43.2881 24.2838 43.6241 24.6695 43.8802C25.0552 44.1364 25.4917 44.3067 25.9494 44.3796C26.9473 44.4626 27.9519 44.3951 28.9295 44.1792C29.0636 44.6097 29.1977 45.0476 29.302 45.478C29.369 45.7675 29.4585 46.0495 29.5106 46.3463C29.5628 46.6432 29.6224 46.9327 29.6745 47.2221C29.7639 47.7861 29.8608 48.365 29.9278 48.9142C29.98 49.2927 30.0247 49.6564 30.0694 50.0275C29.9129 49.6044 29.6 48.7806 29.5628 48.7213C29.0612 47.8373 28.3404 47.0963 27.4693 46.569C27.4168 46.4707 27.3571 46.3764 27.2905 46.287C27.164 46.1188 27.0041 45.9784 26.8208 45.8745C26.6375 45.7707 26.4346 45.7055 26.2249 45.6833C26.0152 45.661 25.8031 45.682 25.6019 45.745C25.4007 45.808 25.2146 45.9117 25.0554 46.0495C24.1167 46.9401 24.4818 49.2408 24.9809 50.2798C24.9809 50.3392 25.413 50.97 25.6663 51.3633C25.4801 51.1555 25.3013 50.9477 25.1076 50.7399C24.7276 50.3169 24.3626 49.9087 23.9081 49.4708L23.2749 48.8474C23.0588 48.6322 22.813 48.4318 22.582 48.224C22.0381 47.7565 21.4645 47.3037 20.8759 46.8584C21.662 46.1886 22.3404 45.4026 22.8875 44.528C23.1036 44.1164 23.2269 43.6627 23.2488 43.1987C23.2707 42.7346 23.1906 42.2714 23.0141 41.8414C22.9152 41.6476 22.7761 41.4768 22.606 41.3405C22.4359 41.2042 22.2387 41.1055 22.0274 41.0507C21.8161 40.996 21.5956 40.9866 21.3804 41.0231C21.1652 41.0596 20.9603 41.1412 20.7791 41.2625C19.7212 42.0047 19.7286 44.3351 20.0341 45.4335C20.0341 45.5077 20.3917 46.2721 20.5779 46.6877C20.2278 46.4206 19.8329 46.1534 19.5051 45.901C18.4397 45.1589 17.3371 44.4538 16.242 43.7339L15.2436 43.0734C16.0606 42.3831 16.7667 41.5721 17.3371 40.6688C17.5537 40.2573 17.6773 39.8036 17.6992 39.3395C17.7211 38.8753 17.6407 38.4121 17.4638 37.9822C17.3651 37.7881 17.2259 37.6172 17.0556 37.4809C16.8853 37.3447 16.6878 37.2462 16.4762 37.1921C16.2646 37.138 16.0439 37.1296 15.8288 37.1673C15.6137 37.2049 15.4091 37.288 15.2287 37.4107C14.1708 38.1529 14.1783 40.4758 14.4837 41.5817C14.4837 41.6633 14.9903 42.7617 15.1244 43.066C14.3794 42.5762 13.6344 42.0863 12.9714 41.5817C12.0294 40.8988 11.1334 40.1551 10.2893 39.3552C11.1094 38.6581 11.8201 37.8426 12.3977 36.9357C12.6112 36.5231 12.7324 36.0692 12.753 35.6054C12.7736 35.1417 12.693 34.6789 12.5169 34.2491C12.4241 34.0495 12.2878 33.873 12.1181 33.7322C11.9483 33.5915 11.7493 33.4902 11.5354 33.4355C11.3215 33.3808 11.0981 33.3741 10.8813 33.416C10.6645 33.4579 10.4597 33.5473 10.2819 33.6777C9.21651 34.4198 9.23141 36.7428 9.53686 37.8486C9.53686 37.9228 9.93172 38.754 10.1105 39.1548L10.0509 39.1919C9.2261 38.36 8.47807 37.4559 7.81589 36.4904C7.44338 35.9635 7.11558 35.4366 6.80267 34.9171C7.67483 34.3285 8.45122 33.6101 9.10476 32.7871C9.36468 32.4013 9.5367 31.9636 9.60877 31.5046C9.68085 31.0456 9.65122 30.5765 9.52196 30.1301C9.44436 29.9304 9.32551 29.7492 9.17311 29.5981C9.02071 29.4471 8.83816 29.3297 8.63728 29.2534C8.4364 29.1771 8.22168 29.1437 8.00703 29.1554C7.79238 29.1671 7.58258 29.2236 7.39123 29.3212C6.25136 29.9372 6.00551 32.2527 6.22156 33.3882C6.22156 33.4476 6.42272 34.0636 6.57172 34.5089C6.43762 34.2714 6.28862 34.0339 6.16941 33.8038C5.70006 32.9429 5.3201 32.134 4.9923 31.4066C4.80604 30.9985 4.64959 30.62 4.50059 30.2637C5.00259 29.3473 5.35705 28.3581 5.55105 27.3322C5.60348 26.8713 5.55395 26.4045 5.40594 25.9648C5.25792 25.525 5.01501 25.1228 4.69429 24.7866C4.53461 24.6485 4.34789 24.545 4.14595 24.4825C3.944 24.4201 3.73125 24.4001 3.52114 24.4238C3.31104 24.4475 3.10817 24.5144 2.92538 24.6203C2.7426 24.7262 2.58387 24.8687 2.45926 25.0389C1.71425 26.115 2.58591 28.2821 3.30112 29.1876C3.36817 29.2692 4.47824 30.3825 4.48569 30.3602C4.61234 30.7016 4.76135 31.0652 4.92525 31.466C5.23815 32.2082 5.6032 33.0171 6.05766 33.8929C6.58701 34.8359 7.17419 35.7455 7.81589 36.6166C8.47948 37.6041 9.22725 38.5327 10.0509 39.3923V39.3923C9.72311 39.2142 8.7695 38.7318 8.695 38.7021C7.60728 38.3013 5.2754 38.1677 4.47824 39.1771C4.35033 39.3493 4.26018 39.5463 4.21362 39.7555C4.16707 39.9646 4.16516 40.1812 4.20801 40.3911C4.25086 40.601 4.33751 40.7996 4.46235 40.974C4.58719 41.1484 4.74744 41.2948 4.93269 41.4036C5.35493 41.5999 5.81522 41.7016 6.28117 41.7016C6.74712 41.7016 7.2074 41.5999 7.62963 41.4036C8.56351 40.8836 9.41466 40.2282 10.1552 39.4591C11.0076 40.3124 11.916 41.1083 12.8745 41.8414C13.4333 42.2719 14.0069 42.6875 14.588 43.0957L13.992 42.8062C12.9043 42.4055 10.5724 42.2645 9.77526 43.2812C9.64589 43.4525 9.55433 43.6492 9.50657 43.8582C9.45881 44.0672 9.45595 44.284 9.49815 44.4942C9.54036 44.7044 9.62668 44.9034 9.75148 45.078C9.87627 45.2527 10.0367 45.3991 10.2223 45.5077C10.6458 45.7041 11.1073 45.8059 11.5745 45.8059C12.0416 45.8059 12.5031 45.7041 12.9267 45.5077C13.8392 45.01 14.6687 44.374 15.3852 43.6226L16.0557 44.0902C17.136 44.8323 18.2162 45.5745 19.2518 46.3167C19.6243 46.5838 19.9968 46.8584 20.3246 47.1256L19.8106 46.8733C18.7228 46.4725 16.391 46.3389 15.5864 47.3482C15.4584 47.5205 15.3683 47.7175 15.3217 47.9267C15.2752 48.1358 15.2733 48.3523 15.3161 48.5623C15.359 48.7722 15.4456 48.9708 15.5705 49.1452C15.6953 49.3196 15.8555 49.466 16.0408 49.5747C16.463 49.771 16.9233 49.8728 17.3893 49.8728C17.8552 49.8728 18.3155 49.771 18.7377 49.5747C19.6278 49.0971 20.4372 48.4836 21.1367 47.7565C21.4943 48.0459 21.8817 48.3353 22.1722 48.6322C22.3883 48.84 22.6193 49.0255 22.8279 49.2482L23.4537 49.8864C23.8336 50.3021 24.1987 50.7325 24.5935 51.1555C24.8543 51.445 25.0852 51.7196 25.3385 52.0016C24.9735 51.7344 24.2583 51.2595 24.1912 51.1927C23.178 50.6286 20.8983 50.1388 19.9447 51.022C19.7929 51.1735 19.6746 51.355 19.5974 51.5548C19.5202 51.7546 19.4857 51.9683 19.4962 52.1821C19.5067 52.3959 19.562 52.6052 19.6585 52.7965C19.755 52.9878 19.8905 53.1569 20.0564 53.293C20.4421 53.5552 20.8806 53.7302 21.3414 53.8058C21.8021 53.8815 22.2738 53.8559 22.7236 53.7308C23.722 53.3606 24.6588 52.8427 25.5024 52.1946C25.86 52.7883 26.24 53.2484 26.5902 53.6863Z" fill="#263238"/>
</svg>
