<?xml version="1.0" encoding="utf-8"?>
<!-- Generator: Adobe Illustrator 23.0.1, SVG Export Plug-In . SVG Version: 6.00 Build 0)  -->
<svg version="1.1" id="Layer_1" xmlns="http://www.w3.org/2000/svg" xmlns:xlink="http://www.w3.org/1999/xlink" x="0px" y="0px"
	 viewBox="0 0 27.84 64" style="enable-background:new 0 0 27.84 64;" xml:space="preserve">
<style type="text/css">
	.st0{opacity:0.45;fill:#FFFFFF;}
	.st1{opacity:0.44;fill:#FFFFFF;}
	.st2{fill:#145782;}
	.st3{fill:none;}
</style>
<g>
	<path class="st0" d="M19.17,10.17c0,0.22-0.11,0.41-0.25,0.41c-0.14,0-0.25-0.18-0.25-0.41c0-0.23,0.11-0.41,0.25-0.41
		C19.06,9.76,19.17,9.95,19.17,10.17z"/>
	<path class="st1" d="M19.17,10.17c0,0.22-0.11,0.41-0.25,0.41c-0.14,0-0.25-0.18-0.25-0.41c0-0.23,0.11-0.41,0.25-0.41
		C19.06,9.76,19.17,9.95,19.17,10.17z"/>
	<path class="st2" d="M19.17,10.17c0,0.22-0.11,0.41-0.25,0.41c-0.14,0-0.25-0.18-0.25-0.41c0-0.23,0.11-0.41,0.25-0.41
		C19.06,9.76,19.17,9.95,19.17,10.17z"/>
	<g>
		<path class="st2" d="M12.71,24.58h0.08C12.77,24.57,12.74,24.57,12.71,24.58z M14.8,24.58h0.08
			C14.84,24.57,14.82,24.57,14.8,24.58z"/>
		<path class="st2" d="M21.16,23.62l-0.18,0.11l0,0c0.01,0.03,0.09,0.32-0.34,1.52c-0.44,1.24,0.25,1.75,0.48,1.87v0.48l-0.82-0.05
			c-0.01,0-0.03,0-0.04,0h-1.2c-0.12,0-0.24-0.04-0.35-0.1l-0.64-0.41c-0.07-0.04-0.15-0.08-0.24-0.09v-0.54
			c0.1-0.07,0.63-0.48,0.71-1.22c0.06-0.61-0.8-2.34-0.88-2.5c0-0.01-0.01-0.02-0.01-0.02l-0.19,0.11c0,0,0,0,0,0
			c0.01,0.03,0.09,0.33-0.35,1.6c-0.46,1.3,0.27,1.83,0.5,1.96v0.59h-0.5c-0.13,0-0.26,0.04-0.37,0.11l-0.23,0.16
			c-0.11,0.07-0.24,0.11-0.37,0.11h-0.58c-0.11,0-0.22-0.03-0.32-0.08c1.09-1.55,0.44-3.36,0.31-4.28c-0.1-0.68-0.41-2.21-0.57-3.01
			h0.05c0-0.36,0.1-0.7,0.28-1c0.18-0.3,0.44-0.54,0.76-0.71c0.34-0.18,0.72-0.34,1.05-0.41c0.89-0.18,2.22-1.2,2.22-1.99
			c0-0.78-0.08-3.74-0.08-3.74l1.31-1.31h0.5l0.04,1.21c0.02,0.8-0.14,1.58-0.44,2.32c-0.16,0.4-0.25,0.85-0.01,1.18
			c0.51,0.68,2.22,1.32,2.32,1.36c-0.09-0.09-1.41-1.42-0.83-2.38c0.6-0.99,0.85-1.02,0.34-2.56c-0.5-1.54-1.31-2.85-3.27-3.68
			c0,0-0.55-0.08-0.24-0.73c0.31-0.65,0.55-1.78-1.59-1.62l-0.34-0.08c-0.11-0.03-0.22,0.05-0.24,0.16l-0.06,0.41
			c-0.08,0.54-0.27,1.05-0.56,1.51c-0.01,0.02-0.02,0.04-0.02,0.06c0,0.06,0.04,0.11,0.11,0.12c0.33,0.02,1.01,0.08,1.45,0.17
			c0.6,0.13,0.11,0.52,0.11,0.52s-1.18,0.39-0.86,1.94v1.91l-3.03,0.02c-0.48,0-0.94,0.16-1.32,0.44l-1.48,1.1
			c0,0-0.37-1.49,1.1-3.53c0.96-1.33,1.86-2.42,2.36-3.01c0.4-0.47,0.52-1.14,0.26-1.7c-0.19-0.41-0.58-0.76-1.34-0.73
			c-1.25,0.06-1.53,0.85-1.59,1.31c-0.02,0.19-0.19,0.33-0.38,0.33l-1.48-0.02c0,0-1.31,0.07-1.5,1.3C8.55,8.26,8.46,8.35,8.34,8.36
			c-0.46,0.03-1.51,0.23-1.67,1.6c0,0-0.04,1.28,0.14,1.78c0.04,0.11,0.01,0.24-0.07,0.33c-0.35,0.4-1.07,1.43-0.2,2.39l0.02,1.18
			c0,0.4,0.17,0.79,0.45,1.07c0.06,0.06,0.11,0.12,0.16,0.18c0.21,0.26,1.33,0,1.33,0s-0.26,1.6,1.07,1.67
			c0.65,0.04,1.46,0.09,2.12,0.13c0.61,0.04,1.1,0.5,1.18,1.09c-0.09,0.37-0.28,1.2-0.72,3.07c-0.59,2.54-0.01,3.8,0.32,4.27
			c-0.01,0.01-0.03,0.02-0.04,0.03c-0.12,0.12-0.29,0.19-0.46,0.19H11.4c-0.13,0-0.26-0.04-0.37-0.11l-0.24-0.16
			c-0.11-0.07-0.24-0.11-0.37-0.11h-0.4v-0.59c0.1-0.07,0.63-0.48,0.71-1.22c0.06-0.61-0.8-2.35-0.88-2.5
			c0-0.01-0.01-0.02-0.01-0.02l-0.19,0.11c0,0,0,0,0,0c0.01,0.03,0.09,0.33-0.35,1.6c-0.46,1.31,0.27,1.83,0.5,1.96v0.66
			c-0.12,0-0.24,0.04-0.34,0.1l-0.64,0.4c-0.1,0.07-0.23,0.1-0.35,0.1h-1.1c-0.08,0-0.16,0-0.24,0.01L6.63,27.6v-0.15
			c0.1-0.07,0.63-0.48,0.71-1.22c0.06-0.61-0.8-2.34-0.88-2.5c0-0.01-0.01-0.02-0.01-0.02l-0.19,0.11c0,0,0,0,0,0
			c0.01,0.03,0.09,0.33-0.35,1.6c-0.46,1.3,0.27,1.83,0.5,1.96v0.23l-0.43,0.03v0.25c0,0,0.36,0.55,2.69,2.69
			c1.41,1.29,2.98,1.59,4.02,1.63v0.49h-0.14c-0.21,0-0.39,0.08-0.53,0.22c-0.14,0.14-0.22,0.32-0.22,0.53
			c0,0.41,0.33,0.74,0.75,0.74h0.14v0.54c-0.33,0.09-0.61,0.3-0.77,0.61c-0.23,0.45-0.23,1.15,0.69,2.12c0,0-1.96,4.86-1.67,7.96
			c0.05,0.55,0.3,1.06,0.67,1.46l0.66,0.7v1.8h3.34v-1.8l0.66-0.7c0.38-0.4,0.62-0.92,0.67-1.46c0.29-3.1-1.67-7.96-1.67-7.96
			c0.92-0.97,0.92-1.66,0.69-2.12c-0.18-0.35-0.52-0.58-0.9-0.64v-0.5h0.14c0.21,0,0.39-0.08,0.53-0.22
			c0.13-0.14,0.22-0.32,0.22-0.53c0-0.41-0.33-0.74-0.74-0.74h-0.14v-0.5c1.03-0.07,2.5-0.41,3.82-1.62
			c2.33-2.14,2.69-2.69,2.69-2.69v-0.25l-0.22-0.01v-0.44c0.09-0.07,0.6-0.46,0.67-1.16c0.06-0.58-0.76-2.24-0.84-2.38
			C21.17,23.64,21.17,23.63,21.16,23.62z M21.71,14.16v0.21c-0.34,0.04-0.47,0.7-0.47,0.7h-0.18
			C21.03,14.34,21.71,14.16,21.71,14.16z M7.59,15.72c0,0-0.78-0.51-0.55-1c0.24-0.49,1.16-0.2,1.9,1H7.59z M7.67,12.25
			c0,0-0.96-2.55,0.1-3.08c1.06-0.53,1.51,1.1,1.51,1.1l0.14,4.22L7.67,12.25z M12.97,6.18c0.15-0.1,0.34-0.17,0.55-0.15
			c0.2,0.02,0.4,0.12,0.52,0.27c0.07,0.07,0.1,0.16,0.14,0.24c0.03,0.08,0.05,0.17,0.05,0.26C14.14,6.76,14.07,6.72,14,6.68
			c-0.07-0.03-0.13-0.08-0.19-0.1c-0.12-0.07-0.23-0.09-0.33-0.1C13.26,6.45,13,6.52,12.65,6.61C12.7,6.43,12.82,6.29,12.97,6.18z
			 M10.63,7.22c0.34,0.18,0.75,1.05,0.26,0.64c-0.48-0.4-0.92,0-0.92,0C9.71,7.52,10.29,7.04,10.63,7.22z M9.86,9.83
			c0.35-1.1,2.08-1.47,2.43-0.98c0.24,0.33-0.1,1.36-0.62,2.26c-0.43,0.76-0.79,1.55-1.14,2.35c-0.21,0.49-0.38,0.43-0.38,0.43
			S9.51,10.93,9.86,9.83z M9.98,16.67c0,0,0.17,0.72,0.57,0.96C10.95,17.86,9.62,17.72,9.98,16.67z M11.09,17.2
			c0,0,0.14,0.56,0.44,0.74C11.84,18.12,10.81,18.01,11.09,17.2z M6.56,27.21c-0.04-0.02-0.91-0.39-0.44-1.72
			c0.2-0.58,0.3-0.98,0.35-1.25c0.29,0.64,0.69,1.59,0.65,1.96C7.06,26.74,6.72,27.09,6.56,27.21L6.56,27.21z M12.43,40.42
			l-0.15,1.32c-0.05,0.44-0.06,0.89-0.17,1.32c-0.1,0.43-0.22,0.86-0.41,1.28l-0.04-0.01c-0.05-0.46-0.03-0.9,0.02-1.35
			c0.04-0.44,0.17-0.87,0.26-1.3l0.28-1.3c0.1-0.43,0.19-0.87,0.3-1.3l0.04,0.01C12.52,39.54,12.47,39.98,12.43,40.42z M15.42,38.96
			c0.1,0.43,0.2,0.87,0.3,1.3l0.28,1.3c0.09,0.43,0.22,0.86,0.26,1.31c0.04,0.44,0.06,0.89,0.02,1.34l-0.04,0.01
			c-0.19-0.42-0.31-0.85-0.41-1.28c-0.1-0.43-0.12-0.88-0.17-1.32l-0.15-1.32c-0.04-0.44-0.09-0.88-0.12-1.33L15.42,38.96z
			 M17.32,24.47c0.2-0.58,0.3-0.98,0.35-1.25c0.29,0.64,0.69,1.59,0.65,1.96c-0.05,0.53-0.4,0.88-0.55,1.01l0,0
			C17.73,26.17,16.85,25.8,17.32,24.47z M15.14,23.33c0.01,0.34,0,0.68-0.08,1.03l-0.02,0l-0.02,0c-0.16-0.32-0.25-0.65-0.32-0.98
			s-0.06-0.67-0.08-1.01l-0.05-1.01c-0.01-0.34-0.03-0.68-0.03-1.02l0.02,0l0.02,0c0.08,0.33,0.14,0.66,0.21,0.99l0.19,1
			C15.03,22.66,15.13,22.99,15.14,23.33z M18.33,16.34c-0.18,0.15-0.41,0.22-0.63,0.17c0.09-0.07,0.18-0.11,0.26-0.17
			c0.08-0.05,0.15-0.11,0.22-0.17c0.07-0.06,0.13-0.13,0.19-0.2c0.06-0.07,0.12-0.15,0.18-0.25C18.61,15.95,18.5,16.19,18.33,16.34z
			 M17.24,6.56c0,0,0.92-0.2,0.84,1.14L17.24,6.56z M18.85,9.5c0.64,0,1.17,0.4,1.17,0.9c0,0.5-0.52,0.9-1.17,0.9
			c-0.64,0-1.17-0.41-1.17-0.9C17.69,9.91,18.21,9.5,18.85,9.5z M16.23,13.62c0.08-0.04,0.23,0.12,0.35,0.35
			c0.12,0.23,0.15,0.45,0.07,0.48c-0.08,0.04-0.23-0.12-0.35-0.34C16.18,13.88,16.15,13.66,16.23,13.62z M15.38,13.93
			c0.1-0.05,0.31,0.15,0.46,0.46s0.19,0.59,0.09,0.64c-0.1,0.05-0.31-0.15-0.46-0.46S15.28,13.99,15.38,13.93z M14.69,14.31
			c0.12-0.04,0.29,0.21,0.4,0.55c0.1,0.34,0.1,0.64-0.02,0.68c-0.12,0.03-0.29-0.21-0.4-0.55C14.57,14.65,14.58,14.35,14.69,14.31z
			 M14.35,15.08c0,0.42-0.12,0.77-0.26,0.77c-0.14,0-0.26-0.34-0.26-0.77c0-0.42,0.12-0.77,0.26-0.77
			C14.24,14.31,14.35,14.65,14.35,15.08z M13.3,13.49c0.07-0.06,0.15-0.11,0.24-0.16c0.17-0.08,0.37-0.11,0.56-0.04
			c-0.17,0.11-0.31,0.17-0.47,0.24c-0.16,0.07-0.31,0.14-0.5,0.19C13.16,13.63,13.23,13.56,13.3,13.49z M13,15.06
			c0.06-0.42,0.23-0.74,0.37-0.72c0.14,0.02,0.2,0.38,0.14,0.8c-0.06,0.42-0.23,0.74-0.37,0.72C13,15.84,12.93,15.48,13,15.06z
			 M12.03,14.76c0.1-0.49,0.32-0.86,0.49-0.83c0.16,0.04,0.22,0.46,0.11,0.96c-0.1,0.49-0.32,0.86-0.49,0.83
			C11.98,15.68,11.93,15.26,12.03,14.76z M12.24,17.2c0.31-0.08,0.62-0.12,0.92-0.18l0.45-0.1l0.22-0.05l0.22-0.07
			c0.14-0.04,0.29-0.09,0.43-0.13c0.14-0.05,0.28-0.11,0.42-0.16l0.21-0.08l0.2-0.1c0.13-0.06,0.27-0.12,0.4-0.19
			c0.52-0.28,0.99-0.63,1.43-1.03c0.44-0.4,0.83-0.87,1.19-1.39c-0.1,0.64-0.41,1.23-0.8,1.74c-0.4,0.51-0.92,0.96-1.5,1.26
			c-0.14,0.08-0.3,0.14-0.45,0.21l-0.23,0.1l-0.24,0.07c-0.16,0.04-0.31,0.1-0.47,0.13c-0.16,0.03-0.32,0.05-0.48,0.07
			c-0.08,0.01-0.16,0.02-0.24,0.03l-0.24,0l-0.48,0C12.87,17.32,12.55,17.27,12.24,17.2z M14,19.09c-0.05,0.14-0.25,0.15-0.3,0.01
			l-0.45-1.16h0.22l0.23,0.42c0.07,0.12,0.24,0.11,0.29-0.01l0.17-0.4h0.22L14,19.09z M14.28,23.23c-0.06,0.38-0.16,0.76-0.4,1.13
			h-0.09c-0.25-0.38-0.34-0.76-0.4-1.13c-0.07-0.38,0.05-0.76,0.09-1.13c0.04-0.38,0.08-0.76,0.13-1.13c0.05-0.33,0.1-0.67,0.16-1
			h0.13c0.06,0.33,0.1,0.67,0.16,1c0.05,0.38,0.1,0.76,0.13,1.13C14.22,22.48,14.34,22.85,14.28,23.23z M12.55,23.33
			c0.01-0.34,0.1-0.67,0.16-1l0.19-1c0.07-0.33,0.13-0.66,0.21-0.99l0.04,0c0,0.34-0.02,0.68-0.03,1.02l-0.05,1.01
			c-0.02,0.34,0,0.68-0.08,1.01s-0.16,0.66-0.32,0.98l-0.02,0l-0.02,0C12.54,24.01,12.54,23.67,12.55,23.33z M12.24,25.5v-0.14
			c0-0.25,0.1-0.51,0.29-0.67c0.06-0.05,0.12-0.09,0.18-0.1c0.03-0.01,0.06-0.01,0.08,0h2.02c0.02-0.01,0.04-0.01,0.08,0
			c0.06,0.02,0.12,0.05,0.18,0.1c0.19,0.17,0.29,0.42,0.29,0.67v0.14h-0.51c0,0,0.06,1-0.47,1.45c-0.16,0.13-0.36,0.22-0.64,0.22
			s-0.48-0.08-0.63-0.22c-0.52-0.45-0.41-1.45-0.41-1.45H12.24z M14.22,28.4c0,0.37-0.18,0.66-0.41,0.66c-0.23,0-0.41-0.3-0.41-0.66
			c0-0.36,0.18-0.66,0.41-0.66C14.04,27.73,14.22,28.03,14.22,28.4z M9.52,24.4c0.2-0.58,0.3-0.98,0.35-1.25
			c0.29,0.64,0.69,1.59,0.65,1.96c-0.05,0.53-0.4,0.88-0.55,1.01l0,0C9.92,26.11,9.05,25.73,9.52,24.4z M7.56,28.08
			c0.65,0,1.3-0.15,1.89-0.43c0.47-0.22,1-0.27,1.5-0.11c1.12,0.37,1.86,1.16,1.86,1.16s-2.16-0.01-3.16,0
			c-1,0.01-2.26-0.63-2.26-0.63H7.56z M13.64,43.61c-0.05,0.28-0.11,0.56-0.2,0.83c-0.08,0.28-0.18,0.55-0.33,0.82l-0.09-0.01
			c-0.1-0.29-0.16-0.57-0.2-0.86c-0.04-0.28-0.06-0.57-0.07-0.85c0-0.28,0.02-0.56,0.07-0.84c0.05-0.28,0.11-0.55,0.15-0.83
			c0.08-0.56,0.16-1.11,0.26-1.67c0.1-0.56,0.19-1.11,0.3-1.66l0.09,0.01c0.03,0.56,0.03,1.13,0.05,1.69
			c0.01,0.56,0.01,1.12,0.01,1.69c0,0.28,0.01,0.56,0.02,0.84C13.71,43.06,13.69,43.34,13.64,43.61z M15.11,44.26
			c-0.04,0.28-0.1,0.57-0.2,0.86l-0.09,0.01c-0.15-0.27-0.25-0.54-0.33-0.82c-0.09-0.27-0.15-0.55-0.2-0.83
			c-0.05-0.28-0.07-0.56-0.06-0.84c0.01-0.28,0.02-0.56,0.02-0.84c-0.01-0.56,0-1.12,0-1.69c0.02-0.56,0.02-1.12,0.05-1.69
			l0.09-0.01c0.11,0.55,0.2,1.11,0.3,1.66c0.09,0.56,0.18,1.11,0.26,1.67c0.04,0.28,0.1,0.55,0.15,0.83
			c0.05,0.28,0.07,0.56,0.07,0.84C15.17,43.7,15.15,43.98,15.11,44.26z M15.66,35.42c0.04,0.09,0.07,0.19,0.09,0.3h-3.64
			c0.02-0.11,0.05-0.21,0.09-0.3c0.18-0.36,0.58-0.57,0.98-0.57h1.5C15.09,34.85,15.48,35.05,15.66,35.42z M14.83,34.19v0.37h-1.92
			v-0.37H14.83z M12.91,32.7v-0.48h0.08c0.52,0,1.05-0.01,1.57,0c0.09,0,0.18,0,0.27,0v0.49H12.91z M18.22,30.07
			c-0.98,0.64-3.94,0.74-4.4,0.75c-0.01,0-0.02,0-0.02,0c-0.01,0-0.02,0-0.04,0c-0.46-0.01-3.42-0.11-4.39-0.75l-1.36-1.01
			c0.09,0.03,1.58,0.59,2.39,0.62c0.49,0.02,0.85,0.02,1.06,0.01c0.14,0,0.28-0.08,0.36-0.2c0.08-0.11,0.2-0.19,0.34-0.19h0.52
			c0.15,0,0.3,0.05,0.42,0.14l0.54,0.41c0.09,0.07,0.22,0.07,0.31,0l0.54-0.41c0.12-0.09,0.26-0.14,0.42-0.14h0.52
			c0.14,0,0.26,0.07,0.34,0.18c0.08,0.12,0.22,0.2,0.37,0.2c0.22,0.01,0.58,0.01,1.06-0.01c0.81-0.03,2.3-0.59,2.39-0.62
			L18.22,30.07z M17.99,28.71c-1-0.01-3.16,0-3.16,0s0.74-0.8,1.86-1.16c0.49-0.16,1.03-0.12,1.5,0.11
			c0.59,0.28,1.23,0.43,1.89,0.43h0.16C20.25,28.08,18.99,28.71,17.99,28.71z M21.8,26.01c-0.05,0.51-0.38,0.84-0.52,0.96l0,0
			c-0.04-0.02-0.87-0.37-0.42-1.64c0.2-0.55,0.29-0.93,0.33-1.19C21.46,24.75,21.83,25.66,21.8,26.01z"/>
	</g>
	<g>
		<path class="st2" d="M21.12,27.61v0.14h0.21v-0.13L21.12,27.61z"/>
	</g>
	<polygon class="st2" points="21.34,27.63 21.34,27.76 21.12,27.76 21.12,27.61 	"/>
	<g>
		<path class="st2" d="M23.26,52.84v-0.01c0-0.05-0.02-0.09-0.04-0.14c-0.39-0.65-4.43-0.76-4.85-0.8l-0.05-0.01l0,0l-1.87-2.12
			c-2.38,1.12-4.81,0.16-4.81,0.16s-1.27,1-1.79,1.57l-1.16,0.07c-0.81,0.05-1.58,0.2-2.29,0.45c-0.82,0.29-1.18,0.57-1.14,0.88
			c-0.01,0.02-0.04,0.24-0.04,0.24v2.93c0,0,3.42,1.07,8.94,1.05c5.53-0.02,9.19-1.63,9.19-1.63L23.26,52.84z M23.03,52.86
			c-0.22,0.54-5.87,1.45-11.39,1.16c-4.15-0.22-6.1-0.75-6.16-1.16c-0.01-0.06,0.03-0.3,0.99-0.64c0.69-0.24,1.44-0.39,2.23-0.44
			l0.89-0.05c-0.01,0.08,0,0.18,0.06,0.3c0.27,0.56,1.42,0.96,3.42,1.16l0.16,0.01c0.26,0.02,0.53,0.03,0.79,0.03
			c1.18,0,2.33-0.21,3.36-0.63c0.58-0.23,0.72-0.22,1.02-0.49c1.56,0.16,4.38,0.28,4.63,0.69C23.04,52.83,23.04,52.85,23.03,52.86z"
			/>
	</g>
	<path class="st3" d="M13.8,30.62c-0.01,0-0.02,0-0.04,0"/>
	<path class="st2" d="M12.79,24.58h-0.08C12.74,24.57,12.77,24.57,12.79,24.58z"/>
	<path class="st2" d="M14.88,24.58H14.8C14.82,24.57,14.84,24.57,14.88,24.58z"/>
	<g>
		<path class="st2" d="M13.92,63.49c-7.28,0-13.21-5.93-13.21-13.21V13.72c0-7.28,5.93-13.21,13.21-13.21
			c3.53,0,6.85,1.37,9.34,3.87c2.5,2.5,3.87,5.81,3.87,9.34v36.55C27.13,57.56,21.2,63.49,13.92,63.49z M13.92,0.74
			c-7.16,0-12.99,5.83-12.99,12.99v36.55c0,7.16,5.83,12.99,12.99,12.99s12.99-5.83,12.99-12.99V13.72c0-3.47-1.35-6.73-3.8-9.19
			C20.65,2.09,17.39,0.74,13.92,0.74z M13.92,62.01c-6.59,0-11.95-5.36-11.95-11.95V13.94c0-6.59,5.36-11.95,11.95-11.95
			c3.19,0,6.19,1.24,8.45,3.5c2.26,2.26,3.5,5.26,3.5,8.45v36.12C25.87,56.65,20.51,62.01,13.92,62.01z M13.92,2.21
			c-6.47,0-11.73,5.26-11.73,11.73v36.12c0,6.47,5.26,11.73,11.73,11.73c6.47,0,11.73-5.26,11.73-11.73V13.94
			c0-3.14-1.22-6.08-3.44-8.3C20,3.43,17.05,2.21,13.92,2.21z"/>
	</g>
</g>
</svg>
