<svg width="34" height="37" viewBox="0 0 34 37" fill="none" xmlns="http://www.w3.org/2000/svg">
<g clip-path="url(#clip0)">
<path d="M33.7711 21.3093C33.4545 18.9288 32.6354 17.0375 31.263 15.5293C29.1442 13.2008 26.3747 12.5346 23.735 13.7202C21.7681 14.6042 20.641 16.3084 19.8799 17.695C19.6902 18.0393 19.5229 18.3965 19.3551 18.7518C19.1243 19.2768 18.8548 19.7837 18.5489 20.2682C17.7081 21.5238 17.1521 21.7823 16.5751 21.7823C16.3714 21.7794 16.1688 21.7519 15.9716 21.7004C15.4617 21.5733 14.9705 21.3322 14.4511 21.0764C14.4033 21.0542 14.355 21.0297 14.308 21.0076C15.2409 20.3911 16.0215 19.5683 16.5904 18.602C17.7 16.7708 17.9696 14.8105 17.3681 12.9286C16.6172 10.5799 14.9113 9.29018 12.297 9.09817C9.23503 8.87362 6.46905 9.69335 3.77909 11.6045C3.29331 11.951 3.19596 12.3687 3.48163 12.8801C3.80836 13.4682 4.11446 14.0668 4.42198 14.664L5.66996 17.0865L6.15665 16.7694C6.24426 16.7146 6.31346 16.6704 6.37972 16.6195C7.59132 15.6922 8.95185 14.9807 10.4022 14.5161C11.5297 14.1633 12.5488 14.2194 13.5279 14.6836C14.2297 15.0161 14.5866 15.5691 14.5885 16.3259C14.5904 16.9887 14.2541 17.5059 13.5905 17.8613C12.2027 18.6062 10.718 18.803 9.03615 18.4649C8.72497 18.4035 8.41623 18.338 8.05393 18.2631L7.30514 18.1064L7.49274 18.7031C7.70484 19.3758 7.66988 20.2351 7.63583 21.0637C7.57486 22.5409 7.51297 24.068 8.88788 24.6136C9.59083 24.893 10.5301 24.664 11.3761 24.4034C11.958 24.2241 12.4929 24.0483 12.9039 24.1338C14.1344 24.3862 14.9375 24.992 15.2912 25.9318C15.791 27.258 15.5572 28.5216 14.5995 29.6894C13.8189 30.6421 12.7379 31.1987 11.195 31.4419C8.52304 31.8585 6.27698 31.0941 4.53509 29.1666C3.05459 27.5277 2.03395 25.4661 1.41515 22.864C1.29462 22.3511 1.20884 21.8135 1.12653 21.2927C1.08842 21.0472 1.0497 20.8032 1.00661 20.5592L0.960163 20.2865L0.264832 20.214L0.158327 20.8233C0.118286 21.0421 0.0777369 21.2589 0.0591392 21.478C-0.205091 24.6441 0.409752 27.7695 1.88568 30.7655C3.19311 33.4151 5.23439 35.2941 7.95575 36.3511C9.91198 37.1308 12.075 37.2103 14.0824 36.5762C15.7615 36.0614 17.0226 35.1337 17.8325 33.8204C19.4361 31.222 19.5881 28.2611 18.2957 24.7713C18.2096 24.5385 18.1068 24.3185 17.9975 24.0937C18.2819 24.1333 18.5682 24.1581 18.8551 24.168L19.1397 24.1723C19.7642 24.1841 20.3873 24.1084 20.9911 23.9473L20.642 24.6272C20.5823 24.7397 20.5395 24.825 20.4998 24.9136C20.4579 25.0094 20.4311 25.1111 20.4205 25.2152C20.1429 27.4935 20.3864 29.3365 21.187 31.0147C22.1626 33.0607 24.0935 34.2802 26.3514 34.2802C27.3944 34.2794 28.4195 34.0071 29.327 33.4896C32.1958 31.8502 33.7135 29.1969 33.9686 25.3778C34.0445 24.2007 33.9835 22.9089 33.7711 21.3093ZM21.2836 23.8524C21.7836 23.6732 22.2463 23.4022 22.6482 23.0533C23.6666 22.1693 24.3397 21.038 24.9903 19.9433L25.1405 19.6902C25.6037 18.9138 26.1785 18.0381 26.9189 17.4315C27.3509 17.0704 27.8928 16.8693 28.4542 16.8617C29.3526 16.8617 30.1006 17.3894 30.5107 18.3106C31.351 20.1594 31.4776 22.2568 30.8659 24.1943C30.1306 26.6282 27.8171 28.3937 25.3645 28.3937C24.9822 28.3934 24.601 28.3518 24.2275 28.2696C22.8679 27.966 21.8414 26.9218 21.6121 25.6034C21.5755 25.3922 21.5345 25.1814 21.4901 24.9467L21.2836 23.8524Z" fill="#FA4616"/>
<path d="M17.3359 10.1093C18.5236 11.3295 20.1124 12.072 21.8048 12.1977C22.1075 12.223 22.4082 12.2348 22.7049 12.2348C24.7632 12.2348 26.7605 11.6681 28.8159 10.5012C29.6757 10.011 30.1413 9.60991 31.1068 8.65105C31.2053 8.55863 31.283 8.44591 31.3343 8.32057C31.3857 8.19523 31.4097 8.06021 31.4045 7.92471C31.371 7.217 30.5734 6.56228 29.65 5.80413C29.1338 5.38153 28.5998 4.9448 28.2849 4.5442L28.0042 4.18758L27.5135 4.7979C27.3982 4.94194 27.2945 5.07411 27.1847 5.19933C26.4458 6.03288 25.5486 6.70901 24.5459 7.18784C22.0597 8.41187 19.7603 8.18916 17.6681 6.51266C16.5053 5.58234 15.7671 4.55872 15.4129 3.38073L14.9888 1.97339L14.7069 3.41511C14.5263 4.33469 14.5951 5.2825 14.9245 6.39655C15.3981 8.00758 16.4092 9.17851 17.3359 10.1093Z" fill="#FA4616"/>
<path d="M18.7396 4.74224C19.2827 5.25701 19.8295 5.76749 20.3656 6.26508L21.2998 7.13647L22.2842 6.17014C23.0391 5.4299 23.7726 4.71022 24.4964 3.97682C24.6895 3.7799 24.7893 3.25898 24.5422 3.01356C23.7434 2.22667 22.9317 1.4542 22.1835 0.744644L21.4015 0L21.1523 0.226698C20.8715 0.478868 20.5982 0.721525 20.3314 0.958861C19.764 1.4632 19.2264 1.93931 18.7101 2.44764C18.2243 2.92528 17.932 3.21397 17.9351 3.60251C17.9396 3.98767 18.2245 4.2557 18.7396 4.74224Z" fill="#FA4616"/>
</g>
<defs>
<clipPath id="clip0">
<rect width="34" height="37" fill="white"/>
</clipPath>
</defs>
</svg>
