<svg width="20" height="20" viewBox="0 0 20 20" fill="none" xmlns="http://www.w3.org/2000/svg">
<path d="M19.79 9.08624C19.5845 8.66191 19.2419 8.3193 18.8176 8.11382L3.00875 0.464022C1.96734 -0.0405199 0.714149 0.394739 0.209608 1.43615C-0.0474307 1.96676 -0.0690382 2.58114 0.150146 3.12849L2.89912 9.99956L0.150146 16.8713C-0.278033 17.9493 0.24873 19.1703 1.32669 19.5984C1.57042 19.6952 1.83016 19.7455 2.09244 19.7467C2.40976 19.7467 2.72298 19.6751 3.00875 19.5372L18.8175 11.8853C19.859 11.3809 20.2944 10.1277 19.79 9.08624ZM2.40043 18.2779C2.05324 18.446 1.63553 18.3008 1.46746 17.9536C1.38181 17.7768 1.37469 17.572 1.44778 17.3895L4.12411 10.698H18.0653L2.40043 18.2779ZM4.12415 9.30113L1.44782 2.60954C1.33643 2.3428 1.40559 2.03477 1.62031 1.84129C1.82816 1.63876 2.142 1.59125 2.40043 1.72327L18.0653 9.30113H4.12415Z" fill="white"/>
</svg>
