<svg width="458" height="208" viewBox="0 0 458 208" fill="none" xmlns="http://www.w3.org/2000/svg">
<g filter="url(#filter0_d)">
<path fill-rule="evenodd" clip-rule="evenodd" d="M4 0H454V24C450.686 24 448 26.6863 448 30C448 33.3137 450.686 36 454 36V47C450.686 47 448 49.6863 448 53C448 56.3137 450.686 59 454 59V70C450.686 70 448 72.6863 448 76C448 79.3137 450.686 82 454 82V93C450.686 93 448 95.6863 448 99C448 102.314 450.686 105 454 105V116C450.686 116 448 118.686 448 122C448 125.314 450.686 128 454 128V139C450.686 139 448 141.686 448 145C448 148.314 450.686 151 454 151V162C450.686 162 448 164.686 448 168C448 171.314 450.686 174 454 174V200H4V174C7.31371 174 10 171.314 10 168C10 164.686 7.31371 162 4 162V151C7.31371 151 10 148.314 10 145C10 141.686 7.31371 139 4 139V128C7.31371 128 10 125.314 10 122C10 118.686 7.31371 116 4 116V105C7.31371 105 10 102.314 10 99C10 95.6863 7.31371 93 4 93V82C7.31371 82 10 79.3137 10 76C10 72.6863 7.31371 70 4 70V59C7.31371 59 10 56.3137 10 53C10 49.6863 7.31371 47 4 47V36C7.31371 36 10 33.3137 10 30C10 26.6863 7.31371 24 4 24V0Z" fill="white"/>
</g>
<g clip-path="url(#clip0)">
<path fill-rule="evenodd" clip-rule="evenodd" d="M252 190H234.971L214.971 210H232L252 190ZM248.971 210H266L286 190H268.971L248.971 210ZM370.971 190H388L368 210H350.971L370.971 190ZM402 210H384.971L404.971 190H422L402 210ZM116 190H98.9706L78.9706 210H96L116 190ZM112.971 210H130L150 190H132.971L112.971 210ZM436 210L454 192V190H438.971L418.971 210L436 210ZM452.971 210L454 208.971V210H452.971ZM184 190H166.971L146.971 210H164L184 190ZM180.971 210H198L218 190H200.971L180.971 210ZM302.971 190H320L300 210L282.971 210L302.971 190ZM334 210H316.971L336.971 190H354L334 210ZM48 190H30.9706L10.9706 210L28 210L48 190ZM44.9706 210H62L82 190H64.9706L44.9706 210ZM4 190H14L4 200V190Z" fill="#EB5757"/>
</g>
<g clip-path="url(#clip1)">
<path fill-rule="evenodd" clip-rule="evenodd" d="M252 0H234.971L214.971 20H232L252 0ZM248.971 20H266L286 0H268.971L248.971 20ZM370.971 0H388L368 20H350.971L370.971 0ZM402 20H384.971L404.971 0H422L402 20ZM116 0H98.9706L78.9706 20H96L116 0ZM112.971 20H130L150 0H132.971L112.971 20ZM436 20L454 2V0H438.971L418.971 20L436 20ZM452.971 20L454 18.9706V20H452.971ZM184 0H166.971L146.971 20H164L184 0ZM180.971 20H198L218 0H200.971L180.971 20ZM302.971 0H320L300 20L282.971 20L302.971 0ZM334 20H316.971L336.971 0H354L334 20ZM48 0H30.9706L10.9706 20L28 20L48 0ZM44.9706 20H62L82 0H64.9706L44.9706 20ZM4 0H14L4 10V0Z" fill="#EB5757"/>
</g>
<path d="M341 161L342.347 165.146H346.706L343.18 167.708L344.527 171.854L341 169.292L337.473 171.854L338.82 167.708L335.294 165.146H339.653L341 161Z" fill="#FF6610"/>
<path d="M41 161L42.3471 165.146H46.7063L43.1796 167.708L44.5267 171.854L41 169.292L37.4733 171.854L38.8204 167.708L35.2937 165.146H39.6529L41 161Z" fill="#FF6610"/>
<path d="M377 161L378.347 165.146H382.706L379.18 167.708L380.527 171.854L377 169.292L373.473 171.854L374.82 167.708L371.294 165.146H375.653L377 161Z" fill="#FF6610"/>
<path d="M77 161L78.3471 165.146H82.7063L79.1796 167.708L80.5267 171.854L77 169.292L73.4733 171.854L74.8204 167.708L71.2937 165.146H75.6529L77 161Z" fill="#FF6610"/>
<path d="M413 161L414.347 165.146H418.706L415.18 167.708L416.527 171.854L413 169.292L409.473 171.854L410.82 167.708L407.294 165.146H411.653L413 161Z" fill="#FF6610"/>
<path d="M113 161L114.347 165.146H118.706L115.18 167.708L116.527 171.854L113 169.292L109.473 171.854L110.82 167.708L107.294 165.146H111.653L113 161Z" fill="#FF6610"/>
<defs>
<filter id="filter0_d" x="0" y="0" width="458" height="208" filterUnits="userSpaceOnUse" color-interpolation-filters="sRGB">
<feFlood flood-opacity="0" result="BackgroundImageFix"/>
<feColorMatrix in="SourceAlpha" type="matrix" values="0 0 0 0 0 0 0 0 0 0 0 0 0 0 0 0 0 0 127 0"/>
<feOffset dy="4"/>
<feGaussianBlur stdDeviation="2"/>
<feColorMatrix type="matrix" values="0 0 0 0 0 0 0 0 0 0 0 0 0 0 0 0 0 0 0.2 0"/>
<feBlend mode="normal" in2="BackgroundImageFix" result="effect1_dropShadow"/>
<feBlend mode="normal" in="SourceGraphic" in2="effect1_dropShadow" result="shape"/>
</filter>
<clipPath id="clip0">
<rect width="450" height="10" fill="white" transform="translate(4 190)"/>
</clipPath>
<clipPath id="clip1">
<rect width="450" height="10" fill="white" transform="translate(4)"/>
</clipPath>
</defs>
</svg>
