<svg width="157" height="76" viewBox="0 0 157 76" fill="none" xmlns="http://www.w3.org/2000/svg">
<mask id="path-1-inside-1" fill="white">
<path fill-rule="evenodd" clip-rule="evenodd" d="M0 4C0 1.79086 1.79086 0 4 0H152.457C154.666 0 156.457 1.79086 156.457 4V4C156.457 8.41828 152.42 11.8108 149.146 14.7775C147.137 16.5978 145.886 19.1607 145.886 22C145.886 25.5329 147.822 28.6378 150.746 30.4167C153.577 32.1391 156.457 34.6863 156.457 38V38C156.457 41.3137 153.577 43.8609 150.746 45.5833C147.822 47.3622 145.886 50.4671 145.886 54C145.886 56.8393 147.137 59.4022 149.146 61.2225C152.42 64.1892 156.457 67.5817 156.457 72V72C156.457 74.2091 154.666 76 152.457 76H4C1.79086 76 0 74.2091 0 72V64.0011C0 64.0005 0.00049956 64 0.0011158 64V64C5.83955 64 10.5725 59.5228 10.5725 54C10.5725 48.4772 5.83955 44 0.0011158 44V44C0.00049956 44 0 43.9995 0 43.9989V32.0011C0 32.0005 0.00049956 32 0.0011158 32V32C5.83955 32 10.5725 27.5228 10.5725 22C10.5725 16.4772 5.83955 12 0.0011158 12V12C0.00049956 12 0 11.9995 0 11.9989V4Z"/>
</mask>
<path fill-rule="evenodd" clip-rule="evenodd" d="M0 4C0 1.79086 1.79086 0 4 0H152.457C154.666 0 156.457 1.79086 156.457 4V4C156.457 8.41828 152.42 11.8108 149.146 14.7775C147.137 16.5978 145.886 19.1607 145.886 22C145.886 25.5329 147.822 28.6378 150.746 30.4167C153.577 32.1391 156.457 34.6863 156.457 38V38C156.457 41.3137 153.577 43.8609 150.746 45.5833C147.822 47.3622 145.886 50.4671 145.886 54C145.886 56.8393 147.137 59.4022 149.146 61.2225C152.42 64.1892 156.457 67.5817 156.457 72V72C156.457 74.2091 154.666 76 152.457 76H4C1.79086 76 0 74.2091 0 72V64.0011C0 64.0005 0.00049956 64 0.0011158 64V64C5.83955 64 10.5725 59.5228 10.5725 54C10.5725 48.4772 5.83955 44 0.0011158 44V44C0.00049956 44 0 43.9995 0 43.9989V32.0011C0 32.0005 0.00049956 32 0.0011158 32V32C5.83955 32 10.5725 27.5228 10.5725 22C10.5725 16.4772 5.83955 12 0.0011158 12V12C0.00049956 12 0 11.9995 0 11.9989V4Z" fill="#EB5757" fill-opacity="0.3"/>
<path d="M150.746 45.5833L150.227 44.729L150.746 45.5833ZM149.146 61.2225L149.817 60.4815L149.146 61.2225ZM149.146 14.7775L148.474 14.0364L149.146 14.7775ZM4 -1C1.23858 -1 -1 1.23857 -1 4H1C1 2.34314 2.34315 1 4 1V-1ZM152.457 -1H4V1H152.457V-1ZM157.457 4C157.457 1.23858 155.219 -1 152.457 -1V1C154.114 1 155.457 2.34315 155.457 4H157.457ZM146.886 22C146.886 19.464 148.001 17.1638 149.817 15.5185L148.474 14.0364C146.272 16.0317 144.886 18.8574 144.886 22H146.886ZM151.266 29.5624C148.613 27.948 146.886 25.1524 146.886 22H144.886C144.886 25.9133 147.032 29.3276 150.227 31.271L151.266 29.5624ZM146.886 54C146.886 50.8476 148.613 48.052 151.266 46.4376L150.227 44.729C147.032 46.6724 144.886 50.0867 144.886 54H146.886ZM149.817 60.4815C148.001 58.8362 146.886 56.536 146.886 54H144.886C144.886 57.1426 146.272 59.9683 148.474 61.9636L149.817 60.4815ZM152.457 77C155.219 77 157.457 74.7614 157.457 72H155.457C155.457 73.6569 154.114 75 152.457 75V77ZM4 77H152.457V75H4V77ZM-1 72C-1 74.7614 1.23857 77 4 77V75C2.34315 75 1 73.6569 1 72H-1ZM-1 64.0011V72H1V64.0011H-1ZM9.57254 54C9.57254 58.9189 5.34035 63 0.0011158 63V65C6.33875 65 11.5725 60.1268 11.5725 54H9.57254ZM0.0011158 45C5.34035 45 9.57254 49.0811 9.57254 54H11.5725C11.5725 47.8732 6.33875 43 0.0011158 43V45ZM-1 32.0011V43.9989H1V32.0011H-1ZM9.57254 22C9.57254 26.9189 5.34035 31 0.0011158 31V33C6.33875 33 11.5725 28.1268 11.5725 22H9.57254ZM0.0011158 13C5.34035 13 9.57254 17.0811 9.57254 22H11.5725C11.5725 15.8732 6.33875 11 0.0011158 11V13ZM-1 4V11.9989H1V4H-1ZM0.0011158 11C0.552785 11 1 11.4472 1 11.9989H-1C-1 12.5518 -0.551785 13 0.0011158 13V11ZM1 32.0011C1 32.5528 0.552784 33 0.0011158 33V31C-0.551785 31 -1 31.4482 -1 32.0011H1ZM0.0011158 43C0.552784 43 1 43.4472 1 43.9989H-1C-1 44.5518 -0.551785 45 0.0011158 45V43ZM155.457 38C155.457 39.349 154.874 40.5933 153.901 41.7416C152.923 42.895 151.594 43.8973 150.227 44.729L151.266 46.4376C152.73 45.5469 154.256 44.4144 155.426 43.0352C156.6 41.6509 157.457 39.9647 157.457 38H155.457ZM150.227 31.271C151.594 32.1027 152.923 33.105 153.901 34.2584C154.874 35.4067 155.457 36.651 155.457 38H157.457C157.457 36.0353 156.6 34.3491 155.426 32.9648C154.256 31.5856 152.73 30.4531 151.266 29.5624L150.227 31.271ZM1 64.0011C1 64.5528 0.552784 65 0.0011158 65V63C-0.551785 63 -1 63.4482 -1 64.0011H1ZM148.474 61.9636C150.139 63.4724 151.892 64.9987 153.249 66.692C154.597 68.3753 155.457 70.1109 155.457 72L157.457 72C157.457 69.4708 156.299 67.3011 154.81 65.4418C153.329 63.5926 151.426 61.9393 149.817 60.4815L148.474 61.9636ZM155.457 4C155.457 5.88908 154.597 7.62474 153.249 9.30797C151.892 11.0013 150.139 12.5276 148.474 14.0364L149.817 15.5185C151.426 14.0607 153.329 12.4074 154.81 10.5582C156.299 8.69894 157.457 6.5292 157.457 4L155.457 4Z" fill="#EB5757" mask="url(#path-1-inside-1)"/>
</svg>
