<svg width="200" height="244" viewBox="0 0 200 244" fill="none" xmlns="http://www.w3.org/2000/svg">
<path d="M175.001 100.583V108.333C174.98 145.239 150.687 177.735 115.296 188.199C79.9045 198.663 41.8461 184.602 21.7591 153.642C1.67209 122.682 4.34165 82.1967 28.3201 54.142C52.2985 26.0873 91.8737 17.1458 125.584 32.1664" stroke="#44C42F" stroke-width="8" stroke-linecap="round" stroke-linejoin="round"/>
<path d="M183.336 33.333L91.6689 125L66.6689 99.9997" stroke="#44C42F" stroke-width="8" stroke-linecap="round" stroke-linejoin="round"/>
<path d="M57.68 242.24C56.352 242.24 55.12 242.072 53.984 241.736C52.848 241.384 51.888 240.912 51.104 240.32L52.04 237.896C52.824 238.456 53.68 238.888 54.608 239.192C55.552 239.496 56.576 239.648 57.68 239.648C58.944 239.648 59.864 239.44 60.44 239.024C61.016 238.592 61.304 238.04 61.304 237.368C61.304 236.808 61.096 236.368 60.68 236.048C60.28 235.728 59.584 235.464 58.592 235.256L55.952 234.704C52.944 234.064 51.44 232.52 51.44 230.072C51.44 229.016 51.72 228.096 52.28 227.312C52.84 226.528 53.616 225.92 54.608 225.488C55.6 225.056 56.744 224.84 58.04 224.84C59.192 224.84 60.272 225.016 61.28 225.368C62.288 225.704 63.128 226.184 63.8 226.808L62.864 229.112C61.536 227.992 59.92 227.432 58.016 227.432C56.912 227.432 56.048 227.664 55.424 228.128C54.8 228.592 54.488 229.2 54.488 229.952C54.488 230.528 54.68 230.992 55.064 231.344C55.448 231.68 56.104 231.944 57.032 232.136L59.648 232.688C61.232 233.024 62.408 233.552 63.176 234.272C63.96 234.992 64.352 235.952 64.352 237.152C64.352 238.16 64.08 239.048 63.536 239.816C62.992 240.584 62.216 241.184 61.208 241.616C60.216 242.032 59.04 242.24 57.68 242.24ZM70.9486 242.24C68.0686 242.24 66.6286 240.624 66.6286 237.392V230.264H69.6286V237.44C69.6286 238.272 69.7966 238.888 70.1326 239.288C70.4686 239.688 71.0046 239.888 71.7406 239.888C72.5406 239.888 73.1966 239.616 73.7086 239.072C74.2206 238.512 74.4766 237.776 74.4766 236.864V230.264H77.4766V242H74.5486V240.248C73.7646 241.576 72.5646 242.24 70.9486 242.24ZM86.0231 242.24C84.7911 242.24 83.7191 241.992 82.8071 241.496C81.8951 240.984 81.1911 240.264 80.6951 239.336C80.1991 238.408 79.9511 237.32 79.9511 236.072C79.9511 234.824 80.1991 233.752 80.6951 232.856C81.1911 231.944 81.8951 231.248 82.8071 230.768C83.7191 230.272 84.7911 230.024 86.0231 230.024C86.7751 230.024 87.5191 230.144 88.2551 230.384C88.9911 230.624 89.5991 230.96 90.0791 231.392L89.1911 233.48C88.7751 233.112 88.3031 232.832 87.7751 232.64C87.2631 232.448 86.7671 232.352 86.2871 232.352C85.2471 232.352 84.4391 232.68 83.8631 233.336C83.3031 233.976 83.0231 234.896 83.0231 236.096C83.0231 237.28 83.3031 238.216 83.8631 238.904C84.4391 239.576 85.2471 239.912 86.2871 239.912C86.7511 239.912 87.2471 239.816 87.7751 239.624C88.3031 239.432 88.7751 239.144 89.1911 238.76L90.0791 240.872C89.5991 241.288 88.9831 241.624 88.2311 241.88C87.4951 242.12 86.7591 242.24 86.0231 242.24ZM97.109 242.24C95.877 242.24 94.805 241.992 93.893 241.496C92.981 240.984 92.277 240.264 91.781 239.336C91.285 238.408 91.037 237.32 91.037 236.072C91.037 234.824 91.285 233.752 91.781 232.856C92.277 231.944 92.981 231.248 93.893 230.768C94.805 230.272 95.877 230.024 97.109 230.024C97.861 230.024 98.605 230.144 99.341 230.384C100.077 230.624 100.685 230.96 101.165 231.392L100.277 233.48C99.861 233.112 99.389 232.832 98.861 232.64C98.349 232.448 97.853 232.352 97.373 232.352C96.333 232.352 95.525 232.68 94.949 233.336C94.389 233.976 94.109 234.896 94.109 236.096C94.109 237.28 94.389 238.216 94.949 238.904C95.525 239.576 96.333 239.912 97.373 239.912C97.837 239.912 98.333 239.816 98.861 239.624C99.389 239.432 99.861 239.144 100.277 238.76L101.165 240.872C100.685 241.288 100.069 241.624 99.317 241.88C98.581 242.12 97.845 242.24 97.109 242.24ZM108.555 242.24C107.227 242.24 106.083 241.992 105.123 241.496C104.163 241 103.419 240.296 102.891 239.384C102.379 238.472 102.123 237.392 102.123 236.144C102.123 234.928 102.371 233.864 102.867 232.952C103.379 232.04 104.075 231.328 104.955 230.816C105.851 230.288 106.867 230.024 108.003 230.024C109.667 230.024 110.979 230.552 111.939 231.608C112.915 232.664 113.403 234.104 113.403 235.928V236.816H105.003C105.227 238.912 106.427 239.96 108.603 239.96C109.259 239.96 109.915 239.864 110.571 239.672C111.227 239.464 111.827 239.144 112.371 238.712L113.211 240.728C112.651 241.192 111.947 241.56 111.099 241.832C110.251 242.104 109.403 242.24 108.555 242.24ZM108.123 232.064C107.243 232.064 106.531 232.336 105.987 232.88C105.443 233.424 105.115 234.16 105.003 235.088H110.907C110.843 234.112 110.571 233.368 110.091 232.856C109.627 232.328 108.971 232.064 108.123 232.064ZM120.075 242.24C119.083 242.24 118.155 242.12 117.291 241.88C116.427 241.64 115.707 241.296 115.131 240.848L115.899 238.88C116.491 239.28 117.155 239.592 117.891 239.816C118.627 240.024 119.363 240.128 120.099 240.128C120.867 240.128 121.435 240 121.803 239.744C122.187 239.472 122.379 239.12 122.379 238.688C122.379 238.016 121.883 237.584 120.891 237.392L118.491 236.936C116.459 236.552 115.443 235.496 115.443 233.768C115.443 233 115.651 232.336 116.067 231.776C116.499 231.216 117.091 230.784 117.843 230.48C118.595 230.176 119.459 230.024 120.435 230.024C121.267 230.024 122.067 230.144 122.835 230.384C123.603 230.608 124.259 230.952 124.803 231.416L123.987 233.384C123.523 233 122.963 232.696 122.307 232.472C121.667 232.248 121.051 232.136 120.459 232.136C119.675 232.136 119.091 232.272 118.707 232.544C118.339 232.816 118.155 233.176 118.155 233.624C118.155 234.328 118.611 234.76 119.523 234.92L121.923 235.376C122.963 235.568 123.747 235.92 124.275 236.432C124.819 236.944 125.091 237.632 125.091 238.496C125.091 239.664 124.635 240.584 123.723 241.256C122.811 241.912 121.595 242.24 120.075 242.24ZM131.794 242.24C130.802 242.24 129.874 242.12 129.01 241.88C128.146 241.64 127.426 241.296 126.85 240.848L127.618 238.88C128.21 239.28 128.874 239.592 129.61 239.816C130.346 240.024 131.082 240.128 131.818 240.128C132.586 240.128 133.154 240 133.522 239.744C133.906 239.472 134.098 239.12 134.098 238.688C134.098 238.016 133.602 237.584 132.61 237.392L130.21 236.936C128.178 236.552 127.162 235.496 127.162 233.768C127.162 233 127.37 232.336 127.786 231.776C128.218 231.216 128.81 230.784 129.562 230.48C130.314 230.176 131.178 230.024 132.154 230.024C132.986 230.024 133.786 230.144 134.554 230.384C135.322 230.608 135.978 230.952 136.522 231.416L135.706 233.384C135.242 233 134.682 232.696 134.026 232.472C133.386 232.248 132.77 232.136 132.178 232.136C131.394 232.136 130.81 232.272 130.426 232.544C130.058 232.816 129.874 233.176 129.874 233.624C129.874 234.328 130.33 234.76 131.242 234.92L133.642 235.376C134.682 235.568 135.466 235.92 135.994 236.432C136.538 236.944 136.81 237.632 136.81 238.496C136.81 239.664 136.354 240.584 135.442 241.256C134.53 241.912 133.314 242.24 131.794 242.24ZM146.189 236.984L145.253 225.08H148.949L148.013 236.984H146.189ZM145.421 242V238.664H148.781V242H145.421Z" fill="#44C32F"/>
</svg>
