<svg width="458" height="208" viewBox="0 0 458 208" fill="none" xmlns="http://www.w3.org/2000/svg">
<g filter="url(#filter0_d)">
<path fill-rule="evenodd" clip-rule="evenodd" d="M4 0H454V24C450.686 24 448 26.6863 448 30C448 33.3137 450.686 36 454 36V47C450.686 47 448 49.6863 448 53C448 56.3137 450.686 59 454 59V70C450.686 70 448 72.6863 448 76C448 79.3137 450.686 82 454 82V93C450.686 93 448 95.6863 448 99C448 102.314 450.686 105 454 105V116C450.686 116 448 118.686 448 122C448 125.314 450.686 128 454 128V139C450.686 139 448 141.686 448 145C448 148.314 450.686 151 454 151V162C450.686 162 448 164.686 448 168C448 171.314 450.686 174 454 174V200H4V174C7.31371 174 10 171.314 10 168C10 164.686 7.31371 162 4 162V151C7.31371 151 10 148.314 10 145C10 141.686 7.31371 139 4 139V128C7.31371 128 10 125.314 10 122C10 118.686 7.31371 116 4 116V105C7.31371 105 10 102.314 10 99C10 95.6863 7.31371 93 4 93V82C7.31371 82 10 79.3137 10 76C10 72.6863 7.31371 70 4 70V59C7.31371 59 10 56.3137 10 53C10 49.6863 7.31371 47 4 47V36C7.31371 36 10 33.3137 10 30C10 26.6863 7.31371 24 4 24V0Z" fill="white"/>
</g>
<g clip-path="url(#clip0)">
<path fill-rule="evenodd" clip-rule="evenodd" d="M269 190H260.485L240.485 210H249L269 190ZM257.485 210H266L286 190H277.485L257.485 210ZM396.485 190H405L385 210H376.485L396.485 190ZM402 210H393.485L413.485 190H422L402 210ZM133 190H124.485L104.485 210H113L133 190ZM121.485 210H130L150 190H141.485L121.485 210ZM192.485 190H201L181 210H172.485L192.485 190ZM198 210H189.485L209.485 190H218L198 210ZM337 190H328.485L308.485 210H317L337 190ZM325.485 210H334L354 190H345.485L325.485 210ZM56.4853 190H65L45 210H36.4853L56.4853 190ZM62 210H53.4853L73.4853 190H82L62 210ZM235 190H226.485L206.485 210H215L235 190ZM223.485 210H232L252 190H243.485L223.485 210ZM362.485 190H371L351 210H342.485L362.485 190ZM368 210H359.485L379.485 190H388L368 210ZM99 190H90.4853L70.4853 210H79L99 190ZM87.4853 210H96L116 190H107.485L87.4853 210ZM430.485 190H439L419 210L410.485 210L430.485 190ZM436 210H427.485L447.485 190H454V192L436 210ZM167 190H158.485L138.485 210H147L167 190ZM155.485 210H164L184 190H175.485L155.485 210ZM294.485 190H303L283 210L274.485 210L294.485 190ZM300 210H291.485L311.485 190H320L300 210ZM31 190H22.4853L4 208.485V210L11 210L31 190ZM19.4853 210H28L48 190H39.4853L19.4853 210ZM454 200.485L444.485 210H454V200.485ZM14 190H4V200L14 190Z" fill="#0077B6"/>
</g>
<g clip-path="url(#clip1)">
<path fill-rule="evenodd" clip-rule="evenodd" d="M269 0H260.485L240.485 20H249L269 0ZM257.485 20H266L286 0H277.485L257.485 20ZM396.485 0H405L385 20H376.485L396.485 0ZM402 20H393.485L413.485 0H422L402 20ZM133 0H124.485L104.485 20H113L133 0ZM121.485 20H130L150 0H141.485L121.485 20ZM192.485 0H201L181 20H172.485L192.485 0ZM198 20H189.485L209.485 0H218L198 20ZM337 0H328.485L308.485 20H317L337 0ZM325.485 20H334L354 0H345.485L325.485 20ZM56.4853 0H65L45 20H36.4853L56.4853 0ZM62 20H53.4853L73.4853 0H82L62 20ZM235 0H226.485L206.485 20H215L235 0ZM223.485 20H232L252 0H243.485L223.485 20ZM362.485 0H371L351 20H342.485L362.485 0ZM368 20H359.485L379.485 0H388L368 20ZM99 0H90.4853L70.4853 20H79L99 0ZM87.4853 20H96L116 0H107.485L87.4853 20ZM430.485 0H439L419 20L410.485 20L430.485 0ZM436 20H427.485L447.485 0H454V2L436 20ZM167 0H158.485L138.485 20H147L167 0ZM155.485 20H164L184 0H175.485L155.485 20ZM294.485 0H303L283 20L274.485 20L294.485 0ZM300 20H291.485L311.485 0H320L300 20ZM31 0H22.4853L4 18.4853V20L11 20L31 0ZM19.4853 20H28L48 0H39.4853L19.4853 20ZM454 10.4853L444.485 20H454V10.4853ZM14 0H4V10L14 0Z" fill="#0077B6"/>
</g>
<path d="M341 161L342.347 165.146H346.706L343.18 167.708L344.527 171.854L341 169.292L337.473 171.854L338.82 167.708L335.294 165.146H339.653L341 161Z" fill="#3D291E"/>
<path d="M41 161L42.3471 165.146H46.7063L43.1796 167.708L44.5267 171.854L41 169.292L37.4733 171.854L38.8204 167.708L35.2937 165.146H39.6529L41 161Z" fill="#3D291E"/>
<path d="M377 161L378.347 165.146H382.706L379.18 167.708L380.527 171.854L377 169.292L373.473 171.854L374.82 167.708L371.294 165.146H375.653L377 161Z" fill="#3D291E"/>
<path d="M77 161L78.3471 165.146H82.7063L79.1796 167.708L80.5267 171.854L77 169.292L73.4733 171.854L74.8204 167.708L71.2937 165.146H75.6529L77 161Z" fill="#3D291E"/>
<path d="M413 161L414.347 165.146H418.706L415.18 167.708L416.527 171.854L413 169.292L409.473 171.854L410.82 167.708L407.294 165.146H411.653L413 161Z" fill="#3D291E"/>
<path d="M113 161L114.347 165.146H118.706L115.18 167.708L116.527 171.854L113 169.292L109.473 171.854L110.82 167.708L107.294 165.146H111.653L113 161Z" fill="#3D291E"/>
<defs>
<filter id="filter0_d" x="0" y="0" width="458" height="208" filterUnits="userSpaceOnUse" color-interpolation-filters="sRGB">
<feFlood flood-opacity="0" result="BackgroundImageFix"/>
<feColorMatrix in="SourceAlpha" type="matrix" values="0 0 0 0 0 0 0 0 0 0 0 0 0 0 0 0 0 0 127 0"/>
<feOffset dy="4"/>
<feGaussianBlur stdDeviation="2"/>
<feColorMatrix type="matrix" values="0 0 0 0 0.615686 0 0 0 0 0.737255 0 0 0 0 0.898039 0 0 0 1 0"/>
<feBlend mode="normal" in2="BackgroundImageFix" result="effect1_dropShadow"/>
<feBlend mode="normal" in="SourceGraphic" in2="effect1_dropShadow" result="shape"/>
</filter>
<clipPath id="clip0">
<rect width="450" height="10" fill="white" transform="translate(4 190)"/>
</clipPath>
<clipPath id="clip1">
<rect width="450" height="10" fill="white" transform="translate(4)"/>
</clipPath>
</defs>
</svg>
