<svg width="458" height="208" viewBox="0 0 458 208" fill="none" xmlns="http://www.w3.org/2000/svg">
<g filter="url(#filter0_d)">
<path fill-rule="evenodd" clip-rule="evenodd" d="M4 0H454V24C450.686 24 448 26.6863 448 30C448 33.3137 450.686 36 454 36V47C450.686 47 448 49.6863 448 53C448 56.3137 450.686 59 454 59V70C450.686 70 448 72.6863 448 76C448 79.3137 450.686 82 454 82V93C450.686 93 448 95.6863 448 99C448 102.314 450.686 105 454 105V116C450.686 116 448 118.686 448 122C448 125.314 450.686 128 454 128V139C450.686 139 448 141.686 448 145C448 148.314 450.686 151 454 151V162C450.686 162 448 164.686 448 168C448 171.314 450.686 174 454 174V200H4V174C7.31371 174 10 171.314 10 168C10 164.686 7.31371 162 4 162V151C7.31371 151 10 148.314 10 145C10 141.686 7.31371 139 4 139V128C7.31371 128 10 125.314 10 122C10 118.686 7.31371 116 4 116V105C7.31371 105 10 102.314 10 99C10 95.6863 7.31371 93 4 93V82C7.31371 82 10 79.3137 10 76C10 72.6863 7.31371 70 4 70V59C7.31371 59 10 56.3137 10 53C10 49.6863 7.31371 47 4 47V36C7.31371 36 10 33.3137 10 30C10 26.6863 7.31371 24 4 24V0Z" fill="#FBFBFB"/>
</g>
<path d="M149.049 132.104L153.253 133.438C152.608 135.781 151.534 137.524 150.03 138.667C148.536 139.8 146.637 140.366 144.332 140.366C141.48 140.366 139.137 139.395 137.301 137.451C135.465 135.498 134.547 132.832 134.547 129.453C134.547 125.879 135.47 123.105 137.315 121.133C139.161 119.15 141.588 118.159 144.596 118.159C147.223 118.159 149.356 118.936 150.997 120.488C151.974 121.406 152.706 122.725 153.194 124.443L148.902 125.469C148.648 124.355 148.116 123.477 147.306 122.832C146.505 122.188 145.528 121.865 144.376 121.865C142.784 121.865 141.49 122.437 140.494 123.579C139.508 124.722 139.015 126.572 139.015 129.131C139.015 131.846 139.503 133.779 140.479 134.932C141.456 136.084 142.726 136.66 144.288 136.66C145.44 136.66 146.432 136.294 147.262 135.562C148.092 134.829 148.688 133.677 149.049 132.104ZM156.109 129.395C156.109 127.207 156.437 125.371 157.091 123.887C157.579 122.793 158.243 121.812 159.083 120.942C159.933 120.073 160.86 119.429 161.866 119.009C163.204 118.442 164.747 118.159 166.495 118.159C169.659 118.159 172.188 119.141 174.083 121.104C175.987 123.066 176.939 125.796 176.939 129.292C176.939 132.759 175.997 135.474 174.112 137.437C172.228 139.39 169.708 140.366 166.554 140.366C163.36 140.366 160.821 139.395 158.937 137.451C157.052 135.498 156.109 132.812 156.109 129.395ZM160.577 129.248C160.577 131.68 161.139 133.525 162.262 134.785C163.385 136.035 164.811 136.66 166.539 136.66C168.268 136.66 169.684 136.04 170.787 134.8C171.9 133.55 172.457 131.68 172.457 129.189C172.457 126.729 171.915 124.893 170.831 123.682C169.757 122.471 168.326 121.865 166.539 121.865C164.752 121.865 163.312 122.48 162.218 123.711C161.124 124.932 160.577 126.777 160.577 129.248ZM180.382 140V118.525H184.601L193.39 132.866V118.525H197.418V140H193.067L184.41 125.996V140H180.382ZM202.047 140V118.525H216.769V122.158H206.383V127.241H215.348V130.874H206.383V140H202.047ZM220.226 140V118.525H224.562V140H220.226ZM228.722 140V118.525H237.848C240.143 118.525 241.808 118.721 242.843 119.111C243.888 119.492 244.723 120.176 245.348 121.162C245.973 122.148 246.285 123.276 246.285 124.546C246.285 126.157 245.812 127.49 244.864 128.545C243.917 129.59 242.501 130.249 240.616 130.522C241.554 131.069 242.325 131.67 242.931 132.324C243.546 132.979 244.371 134.141 245.406 135.811L248.028 140H242.843L239.708 135.327C238.595 133.657 237.833 132.607 237.423 132.178C237.013 131.738 236.578 131.44 236.119 131.284C235.66 131.118 234.933 131.035 233.937 131.035H233.058V140H228.722ZM233.058 127.607H236.266C238.346 127.607 239.645 127.52 240.162 127.344C240.68 127.168 241.085 126.865 241.378 126.436C241.671 126.006 241.817 125.469 241.817 124.824C241.817 124.102 241.622 123.521 241.231 123.081C240.851 122.632 240.309 122.349 239.605 122.231C239.254 122.183 238.199 122.158 236.441 122.158H233.058V127.607ZM250.328 140V118.525H256.817L260.714 133.174L264.566 118.525H271.07V140H267.042V123.096L262.779 140H258.604L254.356 123.096V140H250.328ZM275.377 140V118.525H291.3V122.158H279.713V126.919H290.494V130.537H279.713V136.382H291.71V140H275.377ZM295.372 118.525H303.297C305.084 118.525 306.446 118.662 307.384 118.936C308.644 119.307 309.723 119.966 310.621 120.913C311.52 121.86 312.203 123.022 312.672 124.399C313.141 125.767 313.375 127.456 313.375 129.468C313.375 131.235 313.155 132.759 312.716 134.038C312.179 135.601 311.412 136.865 310.416 137.832C309.664 138.564 308.648 139.136 307.369 139.546C306.412 139.849 305.133 140 303.531 140H295.372V118.525ZM299.708 122.158V136.382H302.945C304.156 136.382 305.03 136.313 305.567 136.177C306.271 136.001 306.852 135.703 307.311 135.283C307.779 134.863 308.16 134.175 308.453 133.218C308.746 132.251 308.893 130.938 308.893 129.277C308.893 127.617 308.746 126.343 308.453 125.454C308.16 124.565 307.75 123.872 307.223 123.374C306.695 122.876 306.026 122.539 305.216 122.363C304.61 122.227 303.424 122.158 301.656 122.158H299.708ZM318.648 134.463L317.579 123.564V118.525H322.032V123.564L320.978 134.463H318.648ZM317.755 140V135.884H321.871V140H317.755Z" fill="#EF4923"/>
<path d="M97.7852 80V75.7822L94.1143 69.9785H96.4863L98.8447 73.9434L101.155 69.9785H103.486L99.8018 75.7959V80H97.7852ZM102.994 76.2676C102.994 75.6296 103.151 75.012 103.466 74.415C103.78 73.818 104.225 73.3623 104.799 73.0479C105.378 72.7334 106.022 72.5762 106.733 72.5762C107.832 72.5762 108.732 72.9339 109.434 73.6494C110.135 74.3604 110.486 75.2604 110.486 76.3496C110.486 77.4479 110.131 78.3594 109.42 79.084C108.714 79.804 107.823 80.1641 106.747 80.1641C106.082 80.1641 105.446 80.0137 104.84 79.7129C104.238 79.4121 103.78 78.9723 103.466 78.3936C103.151 77.8102 102.994 77.1016 102.994 76.2676ZM104.963 76.3701C104.963 77.0902 105.134 77.6416 105.476 78.0244C105.817 78.4072 106.239 78.5986 106.74 78.5986C107.242 78.5986 107.661 78.4072 107.998 78.0244C108.34 77.6416 108.511 77.0856 108.511 76.3564C108.511 75.6455 108.34 75.0986 107.998 74.7158C107.661 74.333 107.242 74.1416 106.74 74.1416C106.239 74.1416 105.817 74.333 105.476 74.7158C105.134 75.0986 104.963 75.6501 104.963 76.3701ZM116.775 80V78.9131C116.511 79.3005 116.162 79.6058 115.729 79.8291C115.301 80.0524 114.848 80.1641 114.369 80.1641C113.882 80.1641 113.444 80.057 113.057 79.8428C112.669 79.6286 112.389 79.3278 112.216 78.9404C112.043 78.5531 111.956 78.0176 111.956 77.334V72.7402H113.877V76.0762C113.877 77.097 113.911 77.7236 113.979 77.9561C114.052 78.1839 114.182 78.3662 114.369 78.5029C114.556 78.6351 114.793 78.7012 115.08 78.7012C115.408 78.7012 115.702 78.6123 115.962 78.4346C116.222 78.2523 116.399 78.029 116.495 77.7646C116.591 77.4958 116.639 76.8418 116.639 75.8027V72.7402H118.56V80H116.775ZM122.395 80H120.474V72.7402H122.258V73.7725C122.563 73.2848 122.837 72.9635 123.078 72.8086C123.324 72.6536 123.602 72.5762 123.912 72.5762C124.35 72.5762 124.771 72.6969 125.177 72.9385L124.582 74.6133C124.258 74.4036 123.958 74.2988 123.68 74.2988C123.411 74.2988 123.183 74.374 122.996 74.5244C122.809 74.6702 122.661 74.9368 122.552 75.3242C122.447 75.7116 122.395 76.5228 122.395 77.7578V80ZM129.853 72.7402H131.644V73.8066C131.876 73.4421 132.19 73.1458 132.587 72.918C132.983 72.6901 133.423 72.5762 133.906 72.5762C134.749 72.5762 135.465 72.9066 136.053 73.5674C136.641 74.2282 136.935 75.1488 136.935 76.3291C136.935 77.5413 136.638 78.4847 136.046 79.1592C135.453 79.8291 134.736 80.1641 133.893 80.1641C133.492 80.1641 133.127 80.0843 132.799 79.9248C132.475 79.7653 132.133 79.4919 131.773 79.1045V82.7617H129.853V72.7402ZM131.753 76.2471C131.753 77.0628 131.915 77.6667 132.238 78.0586C132.562 78.446 132.956 78.6396 133.421 78.6396C133.868 78.6396 134.239 78.4619 134.535 78.1064C134.831 77.7464 134.979 77.1585 134.979 76.3428C134.979 75.5817 134.827 75.0166 134.521 74.6475C134.216 74.2783 133.838 74.0938 133.387 74.0938C132.917 74.0938 132.528 74.276 132.218 74.6406C131.908 75.0007 131.753 75.5361 131.753 76.2471ZM139.901 74.9551L138.158 74.6406C138.354 73.9388 138.691 73.4193 139.17 73.082C139.648 72.7448 140.359 72.5762 141.303 72.5762C142.16 72.5762 142.798 72.6787 143.217 72.8838C143.636 73.0843 143.93 73.3418 144.099 73.6562C144.272 73.9661 144.358 74.5381 144.358 75.3721L144.338 77.6143C144.338 78.2523 144.368 78.724 144.427 79.0293C144.491 79.3301 144.607 79.6536 144.775 80H142.875C142.825 79.8724 142.763 79.6833 142.69 79.4326C142.659 79.3187 142.636 79.2435 142.622 79.207C142.294 79.526 141.943 79.7653 141.569 79.9248C141.196 80.0843 140.797 80.1641 140.373 80.1641C139.626 80.1641 139.035 79.9613 138.603 79.5557C138.174 79.1501 137.96 78.6374 137.96 78.0176C137.96 77.6074 138.058 77.2428 138.254 76.9238C138.45 76.6003 138.723 76.3542 139.074 76.1855C139.43 76.0124 139.94 75.862 140.605 75.7344C141.503 75.5658 142.125 75.4085 142.472 75.2627V75.0713C142.472 74.7021 142.381 74.4401 142.198 74.2852C142.016 74.1257 141.672 74.0459 141.166 74.0459C140.824 74.0459 140.558 74.1143 140.366 74.251C140.175 74.3831 140.02 74.6178 139.901 74.9551ZM142.472 76.5137C142.226 76.5957 141.836 76.6937 141.303 76.8076C140.77 76.9215 140.421 77.0332 140.257 77.1426C140.006 77.3203 139.881 77.5459 139.881 77.8193C139.881 78.0882 139.981 78.3206 140.182 78.5166C140.382 78.7126 140.637 78.8105 140.947 78.8105C141.294 78.8105 141.624 78.6966 141.938 78.4688C142.171 78.2956 142.324 78.0837 142.396 77.833C142.447 77.6689 142.472 77.3568 142.472 76.8965V76.5137ZM148.098 80H146.177V72.7402H147.961V73.7725C148.266 73.2848 148.54 72.9635 148.781 72.8086C149.027 72.6536 149.305 72.5762 149.615 72.5762C150.053 72.5762 150.474 72.6969 150.88 72.9385L150.285 74.6133C149.962 74.4036 149.661 74.2988 149.383 74.2988C149.114 74.2988 148.886 74.374 148.699 74.5244C148.512 74.6702 148.364 74.9368 148.255 75.3242C148.15 75.7116 148.098 76.5228 148.098 77.7578V80ZM155.043 72.7402V74.2715H153.73V77.1973C153.73 77.7897 153.742 78.1361 153.765 78.2363C153.792 78.332 153.849 78.4118 153.936 78.4756C154.027 78.5394 154.136 78.5713 154.264 78.5713C154.441 78.5713 154.699 78.5098 155.036 78.3867L155.2 79.877C154.754 80.0684 154.248 80.1641 153.683 80.1641C153.336 80.1641 153.024 80.1071 152.746 79.9932C152.468 79.8747 152.263 79.7243 152.131 79.542C152.003 79.3551 151.914 79.1045 151.864 78.79C151.823 78.5667 151.803 78.1156 151.803 77.4365V74.2715H150.921V72.7402H151.803V71.2979L153.73 70.1768V72.7402H155.043ZM156.376 71.7559V69.9785H158.297V71.7559H156.376ZM156.376 80V72.7402H158.297V80H156.376ZM166.603 74.8867L164.709 75.2285C164.645 74.8503 164.499 74.5654 164.271 74.374C164.048 74.1826 163.757 74.0869 163.396 74.0869C162.918 74.0869 162.535 74.2533 162.248 74.5859C161.965 74.9141 161.824 75.4655 161.824 76.2402C161.824 77.1016 161.968 77.71 162.255 78.0654C162.547 78.4209 162.936 78.5986 163.424 78.5986C163.788 78.5986 164.087 78.4961 164.319 78.291C164.552 78.0814 164.716 77.7236 164.812 77.2178L166.698 77.5391C166.502 78.4049 166.126 79.0589 165.57 79.501C165.014 79.943 164.269 80.1641 163.335 80.1641C162.273 80.1641 161.425 79.8291 160.792 79.1592C160.163 78.4893 159.849 77.5618 159.849 76.377C159.849 75.1784 160.165 74.2464 160.799 73.5811C161.432 72.9111 162.289 72.5762 163.369 72.5762C164.253 72.5762 164.955 72.7676 165.475 73.1504C165.999 73.5286 166.375 74.1074 166.603 74.8867ZM168.065 71.7559V69.9785H169.986V71.7559H168.065ZM168.065 80V72.7402H169.986V80H168.065ZM171.907 72.7402H173.698V73.8066C173.931 73.4421 174.245 73.1458 174.642 72.918C175.038 72.6901 175.478 72.5762 175.961 72.5762C176.804 72.5762 177.52 72.9066 178.107 73.5674C178.695 74.2282 178.989 75.1488 178.989 76.3291C178.989 77.5413 178.693 78.4847 178.101 79.1592C177.508 79.8291 176.79 80.1641 175.947 80.1641C175.546 80.1641 175.182 80.0843 174.854 79.9248C174.53 79.7653 174.188 79.4919 173.828 79.1045V82.7617H171.907V72.7402ZM173.808 76.2471C173.808 77.0628 173.969 77.6667 174.293 78.0586C174.617 78.446 175.011 78.6396 175.476 78.6396C175.922 78.6396 176.294 78.4619 176.59 78.1064C176.886 77.7464 177.034 77.1585 177.034 76.3428C177.034 75.5817 176.882 75.0166 176.576 74.6475C176.271 74.2783 175.893 74.0938 175.441 74.0938C174.972 74.0938 174.582 74.276 174.272 74.6406C173.963 75.0007 173.808 75.5361 173.808 76.2471ZM181.956 74.9551L180.213 74.6406C180.409 73.9388 180.746 73.4193 181.225 73.082C181.703 72.7448 182.414 72.5762 183.357 72.5762C184.214 72.5762 184.852 72.6787 185.271 72.8838C185.691 73.0843 185.985 73.3418 186.153 73.6562C186.326 73.9661 186.413 74.5381 186.413 75.3721L186.393 77.6143C186.393 78.2523 186.422 78.724 186.481 79.0293C186.545 79.3301 186.661 79.6536 186.83 80H184.93C184.88 79.8724 184.818 79.6833 184.745 79.4326C184.713 79.3187 184.69 79.2435 184.677 79.207C184.349 79.526 183.998 79.7653 183.624 79.9248C183.25 80.0843 182.852 80.1641 182.428 80.1641C181.68 80.1641 181.09 79.9613 180.657 79.5557C180.229 79.1501 180.015 78.6374 180.015 78.0176C180.015 77.6074 180.113 77.2428 180.309 76.9238C180.505 76.6003 180.778 76.3542 181.129 76.1855C181.484 76.0124 181.995 75.862 182.66 75.7344C183.558 75.5658 184.18 75.4085 184.526 75.2627V75.0713C184.526 74.7021 184.435 74.4401 184.253 74.2852C184.071 74.1257 183.727 74.0459 183.221 74.0459C182.879 74.0459 182.612 74.1143 182.421 74.251C182.229 74.3831 182.075 74.6178 181.956 74.9551ZM184.526 76.5137C184.28 76.5957 183.891 76.6937 183.357 76.8076C182.824 76.9215 182.476 77.0332 182.312 77.1426C182.061 77.3203 181.936 77.5459 181.936 77.8193C181.936 78.0882 182.036 78.3206 182.236 78.5166C182.437 78.7126 182.692 78.8105 183.002 78.8105C183.348 78.8105 183.679 78.6966 183.993 78.4688C184.226 78.2956 184.378 78.0837 184.451 77.833C184.501 77.6689 184.526 77.3568 184.526 76.8965V76.5137ZM191.643 72.7402V74.2715H190.33V77.1973C190.33 77.7897 190.341 78.1361 190.364 78.2363C190.392 78.332 190.449 78.4118 190.535 78.4756C190.626 78.5394 190.736 78.5713 190.863 78.5713C191.041 78.5713 191.299 78.5098 191.636 78.3867L191.8 79.877C191.353 80.0684 190.847 80.1641 190.282 80.1641C189.936 80.1641 189.624 80.1071 189.346 79.9932C189.068 79.8747 188.863 79.7243 188.73 79.542C188.603 79.3551 188.514 79.1045 188.464 78.79C188.423 78.5667 188.402 78.1156 188.402 77.4365V74.2715H187.521V72.7402H188.402V71.2979L190.33 70.1768V72.7402H191.643ZM192.976 71.7559V69.9785H194.896V71.7559H192.976ZM192.976 80V72.7402H194.896V80H192.976ZM196.428 76.2676C196.428 75.6296 196.585 75.012 196.899 74.415C197.214 73.818 197.658 73.3623 198.232 73.0479C198.811 72.7334 199.456 72.5762 200.167 72.5762C201.265 72.5762 202.165 72.9339 202.867 73.6494C203.569 74.3604 203.92 75.2604 203.92 76.3496C203.92 77.4479 203.564 78.3594 202.854 79.084C202.147 79.804 201.256 80.1641 200.181 80.1641C199.515 80.1641 198.88 80.0137 198.273 79.7129C197.672 79.4121 197.214 78.9723 196.899 78.3936C196.585 77.8102 196.428 77.1016 196.428 76.2676ZM198.396 76.3701C198.396 77.0902 198.567 77.6416 198.909 78.0244C199.251 78.4072 199.673 78.5986 200.174 78.5986C200.675 78.5986 201.094 78.4072 201.432 78.0244C201.773 77.6416 201.944 77.0856 201.944 76.3564C201.944 75.6455 201.773 75.0986 201.432 74.7158C201.094 74.333 200.675 74.1416 200.174 74.1416C199.673 74.1416 199.251 74.333 198.909 74.7158C198.567 75.0986 198.396 75.6501 198.396 76.3701ZM212.034 80H210.113V76.2949C210.113 75.5111 210.072 75.0052 209.99 74.7773C209.908 74.5449 209.774 74.3649 209.587 74.2373C209.405 74.1097 209.184 74.0459 208.924 74.0459C208.591 74.0459 208.293 74.137 208.028 74.3193C207.764 74.5016 207.582 74.7432 207.481 75.0439C207.386 75.3447 207.338 75.9007 207.338 76.7119V80H205.417V72.7402H207.201V73.8066C207.835 72.9863 208.632 72.5762 209.594 72.5762C210.018 72.5762 210.405 72.6536 210.756 72.8086C211.107 72.959 211.371 73.1527 211.549 73.3896C211.731 73.6266 211.856 73.8955 211.925 74.1963C211.998 74.4971 212.034 74.9277 212.034 75.4883V80ZM217.886 71.7559V69.9785H219.807V71.7559H217.886ZM217.886 80V72.7402H219.807V80H217.886ZM228.386 80H226.465V76.2949C226.465 75.5111 226.424 75.0052 226.342 74.7773C226.26 74.5449 226.125 74.3649 225.938 74.2373C225.756 74.1097 225.535 74.0459 225.275 74.0459C224.943 74.0459 224.644 74.137 224.38 74.3193C224.116 74.5016 223.933 74.7432 223.833 75.0439C223.737 75.3447 223.689 75.9007 223.689 76.7119V80H221.769V72.7402H223.553V73.8066C224.186 72.9863 224.984 72.5762 225.945 72.5762C226.369 72.5762 226.757 72.6536 227.107 72.8086C227.458 72.959 227.723 73.1527 227.9 73.3896C228.083 73.6266 228.208 73.8955 228.276 74.1963C228.349 74.4971 228.386 74.9277 228.386 75.4883V80ZM304.333 71.7559V69.9785H306.254V71.7559H304.333ZM304.333 80V72.7402H306.254V80H304.333ZM307.553 77.9287L309.48 77.6348C309.562 78.0085 309.729 78.2933 309.979 78.4893C310.23 78.6807 310.581 78.7764 311.032 78.7764C311.529 78.7764 311.903 78.6852 312.153 78.5029C312.322 78.3753 312.406 78.2044 312.406 77.9902C312.406 77.8444 312.361 77.7236 312.27 77.6279C312.174 77.5368 311.96 77.4525 311.627 77.375C310.077 77.0332 309.095 76.721 308.681 76.4385C308.106 76.0465 307.819 75.502 307.819 74.8047C307.819 74.1758 308.068 73.6471 308.564 73.2188C309.061 72.7904 309.831 72.5762 310.875 72.5762C311.868 72.5762 312.607 72.738 313.09 73.0615C313.573 73.3851 313.906 73.8636 314.088 74.4971L312.276 74.832C312.199 74.5495 312.051 74.333 311.832 74.1826C311.618 74.0322 311.31 73.957 310.909 73.957C310.403 73.957 310.041 74.0277 309.822 74.1689C309.676 74.2692 309.604 74.3991 309.604 74.5586C309.604 74.6953 309.667 74.8115 309.795 74.9072C309.968 75.0348 310.565 75.2148 311.586 75.4473C312.611 75.6797 313.327 75.9645 313.732 76.3018C314.133 76.6436 314.334 77.1198 314.334 77.7305C314.334 78.3958 314.056 78.9678 313.5 79.4463C312.944 79.9248 312.121 80.1641 311.032 80.1641C310.043 80.1641 309.259 79.9635 308.681 79.5625C308.106 79.1615 307.73 78.6169 307.553 77.9287ZM321.833 69.9785V73.6631C322.453 72.9385 323.193 72.5762 324.055 72.5762C324.497 72.5762 324.896 72.6582 325.251 72.8223C325.606 72.9863 325.873 73.196 326.051 73.4512C326.233 73.7064 326.356 73.9889 326.42 74.2988C326.488 74.6087 326.522 75.0895 326.522 75.7412V80H324.602V76.165C324.602 75.404 324.565 74.9209 324.492 74.7158C324.419 74.5107 324.289 74.349 324.103 74.2305C323.92 74.1074 323.69 74.0459 323.412 74.0459C323.093 74.0459 322.808 74.1234 322.558 74.2783C322.307 74.4333 322.122 74.668 322.004 74.9824C321.89 75.2923 321.833 75.7526 321.833 76.3633V80H319.912V69.9785H321.833ZM332.682 77.6895L334.596 78.0107C334.35 78.7126 333.96 79.248 333.427 79.6172C332.898 79.9818 332.235 80.1641 331.438 80.1641C330.175 80.1641 329.241 79.7516 328.635 78.9268C328.156 78.266 327.917 77.432 327.917 76.4248C327.917 75.2217 328.231 74.2806 328.86 73.6016C329.489 72.918 330.285 72.5762 331.246 72.5762C332.326 72.5762 333.178 72.9339 333.803 73.6494C334.427 74.3604 334.726 75.4518 334.698 76.9238H329.886C329.899 77.4935 330.054 77.9378 330.351 78.2568C330.647 78.5713 331.016 78.7285 331.458 78.7285C331.759 78.7285 332.012 78.6465 332.217 78.4824C332.422 78.3184 332.577 78.054 332.682 77.6895ZM332.791 75.748C332.777 75.1921 332.634 74.7705 332.36 74.4834C332.087 74.1917 331.754 74.0459 331.362 74.0459C330.943 74.0459 330.597 74.1986 330.323 74.5039C330.05 74.8092 329.915 75.224 329.92 75.748H332.791ZM338.109 80H336.188V72.7402H337.973V73.7725C338.278 73.2848 338.551 72.9635 338.793 72.8086C339.039 72.6536 339.317 72.5762 339.627 72.5762C340.064 72.5762 340.486 72.6969 340.892 72.9385L340.297 74.6133C339.973 74.4036 339.673 74.2988 339.395 74.2988C339.126 74.2988 338.898 74.374 338.711 74.5244C338.524 74.6702 338.376 74.9368 338.267 75.3242C338.162 75.7116 338.109 76.5228 338.109 77.7578V80ZM345.93 77.6895L347.844 78.0107C347.598 78.7126 347.208 79.248 346.675 79.6172C346.146 79.9818 345.483 80.1641 344.686 80.1641C343.423 80.1641 342.489 79.7516 341.883 78.9268C341.404 78.266 341.165 77.432 341.165 76.4248C341.165 75.2217 341.479 74.2806 342.108 73.6016C342.737 72.918 343.533 72.5762 344.494 72.5762C345.574 72.5762 346.426 72.9339 347.051 73.6494C347.675 74.3604 347.974 75.4518 347.946 76.9238H343.134C343.147 77.4935 343.302 77.9378 343.599 78.2568C343.895 78.5713 344.264 78.7285 344.706 78.7285C345.007 78.7285 345.26 78.6465 345.465 78.4824C345.67 78.3184 345.825 78.054 345.93 77.6895ZM346.039 75.748C346.025 75.1921 345.882 74.7705 345.608 74.4834C345.335 74.1917 345.002 74.0459 344.61 74.0459C344.191 74.0459 343.845 74.1986 343.571 74.5039C343.298 74.8092 343.163 75.224 343.168 75.748H346.039ZM349.437 80V69.9785H351.357V73.5879C351.95 72.9134 352.652 72.5762 353.463 72.5762C354.347 72.5762 355.078 72.8975 355.657 73.54C356.236 74.1781 356.525 75.0964 356.525 76.2949C356.525 77.5345 356.229 78.4893 355.637 79.1592C355.049 79.8291 354.333 80.1641 353.49 80.1641C353.076 80.1641 352.665 80.0615 352.26 79.8564C351.859 79.6468 351.512 79.3392 351.221 78.9336V80H349.437ZM351.344 76.2129C351.344 76.9648 351.462 77.5208 351.699 77.8809C352.032 78.3913 352.474 78.6465 353.025 78.6465C353.449 78.6465 353.809 78.4665 354.105 78.1064C354.406 77.7419 354.557 77.1699 354.557 76.3906C354.557 75.5612 354.406 74.9642 354.105 74.5996C353.805 74.2305 353.42 74.0459 352.95 74.0459C352.49 74.0459 352.107 74.2259 351.802 74.5859C351.496 74.9414 351.344 75.4837 351.344 76.2129ZM357.168 72.7402H359.212L360.948 77.8945L362.644 72.7402H364.633L362.069 79.7266L361.611 80.9912C361.443 81.415 361.281 81.7386 361.126 81.9619C360.976 82.1852 360.8 82.3652 360.6 82.502C360.404 82.6432 360.16 82.7526 359.868 82.8301C359.581 82.9076 359.255 82.9463 358.891 82.9463C358.521 82.9463 358.159 82.9076 357.804 82.8301L357.633 81.3262C357.934 81.3854 358.205 81.415 358.446 81.415C358.893 81.415 359.223 81.2829 359.438 81.0186C359.652 80.7588 359.816 80.4261 359.93 80.0205L357.168 72.7402Z" fill="#2C2C2C"/>
<path d="M238.913 76.3154V74.627H243.274V78.6191C242.851 79.0293 242.235 79.3916 241.429 79.7061C240.627 80.016 239.813 80.1709 238.988 80.1709C237.94 80.1709 237.026 79.9521 236.247 79.5146C235.468 79.0726 234.882 78.4437 234.49 77.6279C234.098 76.8076 233.902 75.9167 233.902 74.9551C233.902 73.9115 234.121 72.984 234.559 72.1729C234.996 71.3617 235.636 70.7396 236.479 70.3066C237.122 69.974 237.922 69.8076 238.879 69.8076C240.123 69.8076 241.094 70.0697 241.791 70.5938C242.493 71.1133 242.944 71.8333 243.145 72.7539L241.135 73.1299C240.993 72.6377 240.727 72.2503 240.335 71.9678C239.948 71.6807 239.462 71.5371 238.879 71.5371C237.995 71.5371 237.291 71.8174 236.767 72.3779C236.247 72.9385 235.987 73.7702 235.987 74.873C235.987 76.0625 236.252 76.9557 236.78 77.5527C237.309 78.1452 238.002 78.4414 238.858 78.4414C239.282 78.4414 239.706 78.3594 240.13 78.1953C240.558 78.0267 240.925 77.8239 241.23 77.5869V76.3154H238.913ZM251.56 76.3154L253.521 76.9375C253.221 78.0312 252.719 78.8447 252.018 79.3779C251.32 79.9066 250.434 80.1709 249.358 80.1709C248.028 80.1709 246.934 79.7174 246.077 78.8105C245.22 77.8991 244.792 76.6549 244.792 75.0781C244.792 73.4102 245.223 72.1159 246.084 71.1953C246.945 70.2702 248.078 69.8076 249.481 69.8076C250.707 69.8076 251.703 70.1699 252.469 70.8945C252.924 71.3229 253.266 71.9382 253.494 72.7402L251.491 73.2188C251.373 72.6992 251.124 72.2891 250.746 71.9883C250.372 71.6875 249.917 71.5371 249.379 71.5371C248.636 71.5371 248.032 71.8037 247.567 72.3369C247.107 72.8701 246.877 73.7337 246.877 74.9277C246.877 76.1947 247.105 77.097 247.561 77.6348C248.016 78.1725 248.609 78.4414 249.338 78.4414C249.876 78.4414 250.338 78.2705 250.726 77.9287C251.113 77.5869 251.391 77.0492 251.56 76.3154ZM261.677 76.3154L263.639 76.9375C263.338 78.0312 262.837 78.8447 262.135 79.3779C261.438 79.9066 260.551 80.1709 259.476 80.1709C258.145 80.1709 257.051 79.7174 256.194 78.8105C255.338 77.8991 254.909 76.6549 254.909 75.0781C254.909 73.4102 255.34 72.1159 256.201 71.1953C257.062 70.2702 258.195 69.8076 259.599 69.8076C260.825 69.8076 261.82 70.1699 262.586 70.8945C263.042 71.3229 263.383 71.9382 263.611 72.7402L261.608 73.2188C261.49 72.6992 261.242 72.2891 260.863 71.9883C260.49 71.6875 260.034 71.5371 259.496 71.5371C258.753 71.5371 258.149 71.8037 257.685 72.3369C257.224 72.8701 256.994 73.7337 256.994 74.9277C256.994 76.1947 257.222 77.097 257.678 77.6348C258.133 78.1725 258.726 78.4414 259.455 78.4414C259.993 78.4414 260.455 78.2705 260.843 77.9287C261.23 77.5869 261.508 77.0492 261.677 76.3154ZM275.342 78.2158V80H268.608C268.681 79.3255 268.9 78.6875 269.265 78.0859C269.629 77.4798 270.349 76.6777 271.425 75.6797C272.291 74.873 272.822 74.3262 273.018 74.0391C273.282 73.6426 273.414 73.2507 273.414 72.8633C273.414 72.4349 273.298 72.1068 273.065 71.8789C272.838 71.6465 272.521 71.5303 272.115 71.5303C271.714 71.5303 271.395 71.651 271.158 71.8926C270.921 72.1341 270.785 72.5352 270.748 73.0957L268.834 72.9043C268.948 71.847 269.306 71.0882 269.907 70.6279C270.509 70.1676 271.261 69.9375 272.163 69.9375C273.152 69.9375 273.929 70.2041 274.494 70.7373C275.059 71.2705 275.342 71.9336 275.342 72.7266C275.342 73.1777 275.26 73.6084 275.096 74.0186C274.936 74.4242 274.681 74.8503 274.33 75.2969C274.098 75.5931 273.678 76.0192 273.072 76.5752C272.466 77.1312 272.081 77.5003 271.917 77.6826C271.757 77.8649 271.628 78.0426 271.527 78.2158H275.342ZM279.895 69.9375C280.865 69.9375 281.624 70.2839 282.171 70.9766C282.823 71.7969 283.148 73.1572 283.148 75.0576C283.148 76.9535 282.82 78.3161 282.164 79.1455C281.622 79.8291 280.865 80.1709 279.895 80.1709C278.919 80.1709 278.133 79.7972 277.536 79.0498C276.939 78.2979 276.641 76.9603 276.641 75.0371C276.641 73.1504 276.969 71.7923 277.625 70.9629C278.167 70.2793 278.924 69.9375 279.895 69.9375ZM279.895 71.5303C279.662 71.5303 279.455 71.6055 279.272 71.7559C279.09 71.9017 278.949 72.166 278.849 72.5488C278.716 73.0456 278.65 73.8818 278.65 75.0576C278.65 76.2334 278.71 77.0423 278.828 77.4844C278.947 77.9219 279.095 78.2135 279.272 78.3594C279.455 78.5052 279.662 78.5781 279.895 78.5781C280.127 78.5781 280.334 78.5052 280.517 78.3594C280.699 78.209 280.84 77.9424 280.94 77.5596C281.073 77.0674 281.139 76.2334 281.139 75.0576C281.139 73.8818 281.079 73.0752 280.961 72.6377C280.842 72.1956 280.692 71.9017 280.51 71.7559C280.332 71.6055 280.127 71.5303 279.895 71.5303ZM290.928 78.2158V80H284.194C284.267 79.3255 284.486 78.6875 284.851 78.0859C285.215 77.4798 285.935 76.6777 287.011 75.6797C287.877 74.873 288.408 74.3262 288.604 74.0391C288.868 73.6426 289 73.2507 289 72.8633C289 72.4349 288.884 72.1068 288.651 71.8789C288.424 71.6465 288.107 71.5303 287.701 71.5303C287.3 71.5303 286.981 71.651 286.744 71.8926C286.507 72.1341 286.37 72.5352 286.334 73.0957L284.42 72.9043C284.534 71.847 284.892 71.0882 285.493 70.6279C286.095 70.1676 286.847 69.9375 287.749 69.9375C288.738 69.9375 289.515 70.2041 290.08 70.7373C290.645 71.2705 290.928 71.9336 290.928 72.7266C290.928 73.1777 290.846 73.6084 290.682 74.0186C290.522 74.4242 290.267 74.8503 289.916 75.2969C289.684 75.5931 289.264 76.0192 288.658 76.5752C288.052 77.1312 287.667 77.5003 287.503 77.6826C287.343 77.8649 287.214 78.0426 287.113 78.2158H290.928ZM295.48 69.9375C296.451 69.9375 297.21 70.2839 297.757 70.9766C298.409 71.7969 298.734 73.1572 298.734 75.0576C298.734 76.9535 298.406 78.3161 297.75 79.1455C297.208 79.8291 296.451 80.1709 295.48 80.1709C294.505 80.1709 293.719 79.7972 293.122 79.0498C292.525 78.2979 292.227 76.9603 292.227 75.0371C292.227 73.1504 292.555 71.7923 293.211 70.9629C293.753 70.2793 294.51 69.9375 295.48 69.9375ZM295.48 71.5303C295.248 71.5303 295.041 71.6055 294.858 71.7559C294.676 71.9017 294.535 72.166 294.435 72.5488C294.302 73.0456 294.236 73.8818 294.236 75.0576C294.236 76.2334 294.296 77.0423 294.414 77.4844C294.533 77.9219 294.681 78.2135 294.858 78.3594C295.041 78.5052 295.248 78.5781 295.48 78.5781C295.713 78.5781 295.92 78.5052 296.103 78.3594C296.285 78.209 296.426 77.9424 296.526 77.5596C296.659 77.0674 296.725 76.2334 296.725 75.0576C296.725 73.8818 296.665 73.0752 296.547 72.6377C296.428 72.1956 296.278 71.9017 296.096 71.7559C295.918 71.6055 295.713 71.5303 295.48 71.5303Z" fill="#EF4923"/>
<path d="M139 95L140.347 99.1459H144.706L141.18 101.708L142.527 105.854L139 103.292L135.473 105.854L136.82 101.708L133.294 99.1459H137.653L139 95Z" fill="#3D291E"/>
<path d="M364 95L365.347 99.1459H369.706L366.18 101.708L367.527 105.854L364 103.292L360.473 105.854L361.82 101.708L358.294 99.1459H362.653L364 95Z" fill="#3D291E"/>
<path d="M139 152L140.347 156.146H144.706L141.18 158.708L142.527 162.854L139 160.292L135.473 162.854L136.82 158.708L133.294 156.146H137.653L139 152Z" fill="#3D291E"/>
<path d="M364 152L365.347 156.146H369.706L366.18 158.708L367.527 162.854L364 160.292L360.473 162.854L361.82 158.708L358.294 156.146H362.653L364 152Z" fill="#3D291E"/>
<path d="M184 95L185.347 99.1459H189.706L186.18 101.708L187.527 105.854L184 103.292L180.473 105.854L181.82 101.708L178.294 99.1459H182.653L184 95Z" fill="#3D291E"/>
<path d="M94 95L95.3471 99.1459H99.7063L96.1796 101.708L97.5267 105.854L94 103.292L90.4733 105.854L91.8204 101.708L88.2937 99.1459H92.6529L94 95Z" fill="#3D291E"/>
<path d="M184 152L185.347 156.146H189.706L186.18 158.708L187.527 162.854L184 160.292L180.473 162.854L181.82 158.708L178.294 156.146H182.653L184 152Z" fill="#3D291E"/>
<path d="M94 152L95.3471 156.146H99.7063L96.1796 158.708L97.5267 162.854L94 160.292L90.4733 162.854L91.8204 158.708L88.2937 156.146H92.6529L94 152Z" fill="#3D291E"/>
<path d="M229 95L230.347 99.1459H234.706L231.18 101.708L232.527 105.854L229 103.292L225.473 105.854L226.82 101.708L223.294 99.1459H227.653L229 95Z" fill="#3D291E"/>
<path d="M229 152L230.347 156.146H234.706L231.18 158.708L232.527 162.854L229 160.292L225.473 162.854L226.82 158.708L223.294 156.146H227.653L229 152Z" fill="#3D291E"/>
<path d="M274 95L275.347 99.1459H279.706L276.18 101.708L277.527 105.854L274 103.292L270.473 105.854L271.82 101.708L268.294 99.1459H272.653L274 95Z" fill="#3D291E"/>
<path d="M274 152L275.347 156.146H279.706L276.18 158.708L277.527 162.854L274 160.292L270.473 162.854L271.82 158.708L268.294 156.146H272.653L274 152Z" fill="#3D291E"/>
<path d="M319 95L320.347 99.1459H324.706L321.18 101.708L322.527 105.854L319 103.292L315.473 105.854L316.82 101.708L313.294 99.1459H317.653L319 95Z" fill="#3D291E"/>
<path d="M319 152L320.347 156.146H324.706L321.18 158.708L322.527 162.854L319 160.292L315.473 162.854L316.82 158.708L313.294 156.146H317.653L319 152Z" fill="#3D291E"/>
<path fill-rule="evenodd" clip-rule="evenodd" d="M269 0H260.485L240.485 20H249L269 0ZM257.485 20H266L286 0H277.485L257.485 20ZM396.485 0H405L385 20H376.485L396.485 0ZM402 20H393.485L413.485 0H422L402 20ZM133 0H124.485L104.485 20H113L133 0ZM121.485 20H130L150 0H141.485L121.485 20ZM192.485 0H201L181 20H172.485L192.485 0ZM198 20H189.485L209.485 0H218L198 20ZM337 0H328.485L308.485 20H317L337 0ZM325.485 20H334L354 0H345.485L325.485 20ZM56.4853 0H65L45 20H36.4853L56.4853 0ZM62 20H53.4853L73.4853 0H82L62 20ZM235 0H226.485L206.485 20H215L235 0ZM223.485 20H232L252 0H243.485L223.485 20ZM362.485 0H371L351 20H342.485L362.485 0ZM368 20H359.485L379.485 0H388L368 20ZM99 0H90.4853L70.4853 20H79L99 0ZM87.4853 20H96L116 0H107.485L87.4853 20ZM430.485 0H439L419 20L410.485 20L430.485 0ZM436 20H427.485L447.485 0H454V2L436 20ZM167 0H158.485L138.485 20H147L167 0ZM155.485 20H164L184 0H175.485L155.485 20ZM294.485 0H303L283 20L274.485 20L294.485 0ZM300 20H291.485L311.485 0H320L300 20ZM31 0H22.4853L4 18.4853V20L11 20L31 0ZM19.4853 20H28L48 0H39.4853L19.4853 20ZM454 10.4853L444.485 20H454V10.4853ZM14 0H4V10L14 0Z" fill="#0077B6"/>
<path fill-rule="evenodd" clip-rule="evenodd" d="M269 180H260.485L240.485 200H249L269 180ZM257.485 200H266L286 180H277.485L257.485 200ZM396.485 180H405L385 200H376.485L396.485 180ZM402 200H393.485L413.485 180H422L402 200ZM133 180H124.485L104.485 200H113L133 180ZM121.485 200H130L150 180H141.485L121.485 200ZM192.485 180H201L181 200H172.485L192.485 180ZM198 200H189.485L209.485 180H218L198 200ZM337 180H328.485L308.485 200H317L337 180ZM325.485 200H334L354 180H345.485L325.485 200ZM56.4853 180H65L45 200H36.4853L56.4853 180ZM62 200H53.4853L73.4853 180H82L62 200ZM235 180H226.485L206.485 200H215L235 180ZM223.485 200H232L252 180H243.485L223.485 200ZM362.485 180H371L351 200H342.485L362.485 180ZM368 200H359.485L379.485 180H388L368 200ZM99 180H90.4853L70.4853 200H79L99 180ZM87.4853 200H96L116 180H107.485L87.4853 200ZM430.485 180H439L419 200L410.485 200L430.485 180ZM436 200H427.485L447.485 180H454V182L436 200ZM167 180H158.485L138.485 200H147L167 180ZM155.485 200H164L184 180H175.485L155.485 200ZM294.485 180H303L283 200L274.485 200L294.485 180ZM300 200H291.485L311.485 180H320L300 200ZM31 180H22.4853L4 198.485V200L11 200L31 180ZM19.4853 200H28L48 180H39.4853L19.4853 200ZM454 190.485L444.485 200H454V190.485ZM14 180H4V190L14 180Z" fill="#0077B6"/>
<defs>
<filter id="filter0_d" x="0" y="0" width="458" height="208" filterUnits="userSpaceOnUse" color-interpolation-filters="sRGB">
<feFlood flood-opacity="0" result="BackgroundImageFix"/>
<feColorMatrix in="SourceAlpha" type="matrix" values="0 0 0 0 0 0 0 0 0 0 0 0 0 0 0 0 0 0 127 0"/>
<feOffset dy="4"/>
<feGaussianBlur stdDeviation="2"/>
<feColorMatrix type="matrix" values="0 0 0 0 0.615686 0 0 0 0 0.737255 0 0 0 0 0.898039 0 0 0 1 0"/>
<feBlend mode="normal" in2="BackgroundImageFix" result="effect1_dropShadow"/>
<feBlend mode="normal" in="SourceGraphic" in2="effect1_dropShadow" result="shape"/>
</filter>
</defs>
</svg>
