<svg width="458" height="208" viewBox="0 0 458 208" fill="none" xmlns="http://www.w3.org/2000/svg">
<g filter="url(#filter0_d)">
<path fill-rule="evenodd" clip-rule="evenodd" d="M4 0H454V24C450.686 24 448 26.6863 448 30C448 33.3137 450.686 36 454 36V47C450.686 47 448 49.6863 448 53C448 56.3137 450.686 59 454 59V70C450.686 70 448 72.6863 448 76C448 79.3137 450.686 82 454 82V93C450.686 93 448 95.6863 448 99C448 102.314 450.686 105 454 105V116C450.686 116 448 118.686 448 122C448 125.314 450.686 128 454 128V139C450.686 139 448 141.686 448 145C448 148.314 450.686 151 454 151V162C450.686 162 448 164.686 448 168C448 171.314 450.686 174 454 174V200H4V174C7.31371 174 10 171.314 10 168C10 164.686 7.31371 162 4 162V151C7.31371 151 10 148.314 10 145C10 141.686 7.31371 139 4 139V128C7.31371 128 10 125.314 10 122C10 118.686 7.31371 116 4 116V105C7.31371 105 10 102.314 10 99C10 95.6863 7.31371 93 4 93V82C7.31371 82 10 79.3137 10 76C10 72.6863 7.31371 70 4 70V59C7.31371 59 10 56.3137 10 53C10 49.6863 7.31371 47 4 47V36C7.31371 36 10 33.3137 10 30C10 26.6863 7.31371 24 4 24V0Z" fill="white"/>
</g>
<path d="M149.049 132.104L153.253 133.438C152.608 135.781 151.534 137.524 150.03 138.667C148.536 139.8 146.637 140.366 144.332 140.366C141.48 140.366 139.137 139.395 137.301 137.451C135.465 135.498 134.547 132.832 134.547 129.453C134.547 125.879 135.47 123.105 137.315 121.133C139.161 119.15 141.588 118.159 144.596 118.159C147.223 118.159 149.356 118.936 150.997 120.488C151.974 121.406 152.706 122.725 153.194 124.443L148.902 125.469C148.648 124.355 148.116 123.477 147.306 122.832C146.505 122.188 145.528 121.865 144.376 121.865C142.784 121.865 141.49 122.437 140.494 123.579C139.508 124.722 139.015 126.572 139.015 129.131C139.015 131.846 139.503 133.779 140.479 134.932C141.456 136.084 142.726 136.66 144.288 136.66C145.44 136.66 146.432 136.294 147.262 135.562C148.092 134.829 148.688 133.677 149.049 132.104ZM156.109 129.395C156.109 127.207 156.437 125.371 157.091 123.887C157.579 122.793 158.243 121.812 159.083 120.942C159.933 120.073 160.86 119.429 161.866 119.009C163.204 118.442 164.747 118.159 166.495 118.159C169.659 118.159 172.188 119.141 174.083 121.104C175.987 123.066 176.939 125.796 176.939 129.292C176.939 132.759 175.997 135.474 174.112 137.437C172.228 139.39 169.708 140.366 166.554 140.366C163.36 140.366 160.821 139.395 158.937 137.451C157.052 135.498 156.109 132.812 156.109 129.395ZM160.577 129.248C160.577 131.68 161.139 133.525 162.262 134.785C163.385 136.035 164.811 136.66 166.539 136.66C168.268 136.66 169.684 136.04 170.787 134.8C171.9 133.55 172.457 131.68 172.457 129.189C172.457 126.729 171.915 124.893 170.831 123.682C169.757 122.471 168.326 121.865 166.539 121.865C164.752 121.865 163.312 122.48 162.218 123.711C161.124 124.932 160.577 126.777 160.577 129.248ZM180.382 140V118.525H184.601L193.39 132.866V118.525H197.418V140H193.067L184.41 125.996V140H180.382ZM202.047 140V118.525H216.769V122.158H206.383V127.241H215.348V130.874H206.383V140H202.047ZM220.226 140V118.525H224.562V140H220.226ZM228.722 140V118.525H237.848C240.143 118.525 241.808 118.721 242.843 119.111C243.888 119.492 244.723 120.176 245.348 121.162C245.973 122.148 246.285 123.276 246.285 124.546C246.285 126.157 245.812 127.49 244.864 128.545C243.917 129.59 242.501 130.249 240.616 130.522C241.554 131.069 242.325 131.67 242.931 132.324C243.546 132.979 244.371 134.141 245.406 135.811L248.028 140H242.843L239.708 135.327C238.595 133.657 237.833 132.607 237.423 132.178C237.013 131.738 236.578 131.44 236.119 131.284C235.66 131.118 234.933 131.035 233.937 131.035H233.058V140H228.722ZM233.058 127.607H236.266C238.346 127.607 239.645 127.52 240.162 127.344C240.68 127.168 241.085 126.865 241.378 126.436C241.671 126.006 241.817 125.469 241.817 124.824C241.817 124.102 241.622 123.521 241.231 123.081C240.851 122.632 240.309 122.349 239.605 122.231C239.254 122.183 238.199 122.158 236.441 122.158H233.058V127.607ZM250.328 140V118.525H256.817L260.714 133.174L264.566 118.525H271.07V140H267.042V123.096L262.779 140H258.604L254.356 123.096V140H250.328ZM275.377 140V118.525H291.3V122.158H279.713V126.919H290.494V130.537H279.713V136.382H291.71V140H275.377ZM295.372 118.525H303.297C305.084 118.525 306.446 118.662 307.384 118.936C308.644 119.307 309.723 119.966 310.621 120.913C311.52 121.86 312.203 123.022 312.672 124.399C313.141 125.767 313.375 127.456 313.375 129.468C313.375 131.235 313.155 132.759 312.716 134.038C312.179 135.601 311.412 136.865 310.416 137.832C309.664 138.564 308.648 139.136 307.369 139.546C306.412 139.849 305.133 140 303.531 140H295.372V118.525ZM299.708 122.158V136.382H302.945C304.156 136.382 305.03 136.313 305.567 136.177C306.271 136.001 306.852 135.703 307.311 135.283C307.779 134.863 308.16 134.175 308.453 133.218C308.746 132.251 308.893 130.938 308.893 129.277C308.893 127.617 308.746 126.343 308.453 125.454C308.16 124.565 307.75 123.872 307.223 123.374C306.695 122.876 306.026 122.539 305.216 122.363C304.61 122.227 303.424 122.158 301.656 122.158H299.708ZM318.648 134.463L317.579 123.564V118.525H322.032V123.564L320.978 134.463H318.648ZM317.755 140V135.884H321.871V140H317.755Z" fill="#EF4923"/>
<path d="M96.1162 80V75.7822L92.4453 69.9785H94.8174L97.1758 73.9434L99.4863 69.9785H101.817L98.1328 75.7959V80H96.1162ZM101.325 76.2676C101.325 75.6296 101.482 75.012 101.797 74.415C102.111 73.818 102.556 73.3623 103.13 73.0479C103.709 72.7334 104.354 72.5762 105.064 72.5762C106.163 72.5762 107.063 72.9339 107.765 73.6494C108.466 74.3604 108.817 75.2604 108.817 76.3496C108.817 77.4479 108.462 78.3594 107.751 79.084C107.045 79.804 106.154 80.1641 105.078 80.1641C104.413 80.1641 103.777 80.0137 103.171 79.7129C102.569 79.4121 102.111 78.9723 101.797 78.3936C101.482 77.8102 101.325 77.1016 101.325 76.2676ZM103.294 76.3701C103.294 77.0902 103.465 77.6416 103.807 78.0244C104.148 78.4072 104.57 78.5986 105.071 78.5986C105.573 78.5986 105.992 78.4072 106.329 78.0244C106.671 77.6416 106.842 77.0856 106.842 76.3564C106.842 75.6455 106.671 75.0986 106.329 74.7158C105.992 74.333 105.573 74.1416 105.071 74.1416C104.57 74.1416 104.148 74.333 103.807 74.7158C103.465 75.0986 103.294 75.6501 103.294 76.3701ZM115.106 80V78.9131C114.842 79.3005 114.493 79.6058 114.061 79.8291C113.632 80.0524 113.179 80.1641 112.7 80.1641C112.213 80.1641 111.775 80.057 111.388 79.8428C111 79.6286 110.72 79.3278 110.547 78.9404C110.374 78.5531 110.287 78.0176 110.287 77.334V72.7402H112.208V76.0762C112.208 77.097 112.242 77.7236 112.311 77.9561C112.383 78.1839 112.513 78.3662 112.7 78.5029C112.887 78.6351 113.124 78.7012 113.411 78.7012C113.739 78.7012 114.033 78.6123 114.293 78.4346C114.553 78.2523 114.73 78.029 114.826 77.7646C114.922 77.4958 114.97 76.8418 114.97 75.8027V72.7402H116.891V80H115.106ZM120.726 80H118.805V72.7402H120.589V73.7725C120.894 73.2848 121.168 72.9635 121.409 72.8086C121.655 72.6536 121.933 72.5762 122.243 72.5762C122.681 72.5762 123.102 72.6969 123.508 72.9385L122.913 74.6133C122.59 74.4036 122.289 74.2988 122.011 74.2988C121.742 74.2988 121.514 74.374 121.327 74.5244C121.14 74.6702 120.992 74.9368 120.883 75.3242C120.778 75.7116 120.726 76.5228 120.726 77.7578V80ZM128.252 80V69.9785H131.499C132.729 69.9785 133.532 70.0286 133.905 70.1289C134.479 70.2793 134.96 70.6074 135.348 71.1133C135.735 71.6146 135.929 72.264 135.929 73.0615C135.929 73.6768 135.817 74.194 135.594 74.6133C135.37 75.0326 135.086 75.363 134.739 75.6045C134.397 75.8415 134.049 75.9987 133.693 76.0762C133.21 76.1719 132.511 76.2197 131.595 76.2197H130.275V80H128.252ZM130.275 71.6738V74.5176H131.383C132.18 74.5176 132.714 74.4652 132.982 74.3604C133.251 74.2555 133.461 74.0915 133.611 73.8682C133.766 73.6449 133.844 73.3851 133.844 73.0889C133.844 72.7243 133.737 72.4235 133.522 72.1865C133.308 71.9495 133.037 71.8014 132.709 71.7422C132.467 71.6966 131.982 71.6738 131.253 71.6738H130.275ZM139.012 74.9551L137.269 74.6406C137.465 73.9388 137.802 73.4193 138.28 73.082C138.759 72.7448 139.47 72.5762 140.413 72.5762C141.27 72.5762 141.908 72.6787 142.327 72.8838C142.746 73.0843 143.04 73.3418 143.209 73.6562C143.382 73.9661 143.469 74.5381 143.469 75.3721L143.448 77.6143C143.448 78.2523 143.478 78.724 143.537 79.0293C143.601 79.3301 143.717 79.6536 143.886 80H141.985C141.935 79.8724 141.874 79.6833 141.801 79.4326C141.769 79.3187 141.746 79.2435 141.732 79.207C141.404 79.526 141.053 79.7653 140.68 79.9248C140.306 80.0843 139.907 80.1641 139.483 80.1641C138.736 80.1641 138.146 79.9613 137.713 79.5557C137.285 79.1501 137.07 78.6374 137.07 78.0176C137.07 77.6074 137.168 77.2428 137.364 76.9238C137.56 76.6003 137.834 76.3542 138.185 76.1855C138.54 76.0124 139.05 75.862 139.716 75.7344C140.614 75.5658 141.236 75.4085 141.582 75.2627V75.0713C141.582 74.7021 141.491 74.4401 141.309 74.2852C141.126 74.1257 140.782 74.0459 140.276 74.0459C139.935 74.0459 139.668 74.1143 139.477 74.251C139.285 74.3831 139.13 74.6178 139.012 74.9551ZM141.582 76.5137C141.336 76.5957 140.946 76.6937 140.413 76.8076C139.88 76.9215 139.531 77.0332 139.367 77.1426C139.117 77.3203 138.991 77.5459 138.991 77.8193C138.991 78.0882 139.091 78.3206 139.292 78.5166C139.493 78.7126 139.748 78.8105 140.058 78.8105C140.404 78.8105 140.734 78.6966 141.049 78.4688C141.281 78.2956 141.434 78.0837 141.507 77.833C141.557 77.6689 141.582 77.3568 141.582 76.8965V76.5137ZM147.208 80H145.287V72.7402H147.071V73.7725C147.377 73.2848 147.65 72.9635 147.892 72.8086C148.138 72.6536 148.416 72.5762 148.726 72.5762C149.163 72.5762 149.585 72.6969 149.99 72.9385L149.396 74.6133C149.072 74.4036 148.771 74.2988 148.493 74.2988C148.224 74.2988 147.996 74.374 147.81 74.5244C147.623 74.6702 147.475 74.9368 147.365 75.3242C147.26 75.7116 147.208 76.5228 147.208 77.7578V80ZM154.153 72.7402V74.2715H152.841V77.1973C152.841 77.7897 152.852 78.1361 152.875 78.2363C152.902 78.332 152.959 78.4118 153.046 78.4756C153.137 78.5394 153.246 78.5713 153.374 78.5713C153.552 78.5713 153.809 78.5098 154.146 78.3867L154.311 79.877C153.864 80.0684 153.358 80.1641 152.793 80.1641C152.447 80.1641 152.134 80.1071 151.856 79.9932C151.578 79.8747 151.373 79.7243 151.241 79.542C151.114 79.3551 151.025 79.1045 150.975 78.79C150.934 78.5667 150.913 78.1156 150.913 77.4365V74.2715H150.031V72.7402H150.913V71.2979L152.841 70.1768V72.7402H154.153ZM155.486 71.7559V69.9785H157.407V71.7559H155.486ZM155.486 80V72.7402H157.407V80H155.486ZM165.713 74.8867L163.819 75.2285C163.756 74.8503 163.61 74.5654 163.382 74.374C163.159 74.1826 162.867 74.0869 162.507 74.0869C162.028 74.0869 161.646 74.2533 161.358 74.5859C161.076 74.9141 160.935 75.4655 160.935 76.2402C160.935 77.1016 161.078 77.71 161.365 78.0654C161.657 78.4209 162.047 78.5986 162.534 78.5986C162.899 78.5986 163.197 78.4961 163.43 78.291C163.662 78.0814 163.826 77.7236 163.922 77.2178L165.809 77.5391C165.613 78.4049 165.237 79.0589 164.681 79.501C164.125 79.943 163.38 80.1641 162.445 80.1641C161.383 80.1641 160.536 79.8291 159.902 79.1592C159.273 78.4893 158.959 77.5618 158.959 76.377C158.959 75.1784 159.276 74.2464 159.909 73.5811C160.543 72.9111 161.399 72.5762 162.479 72.5762C163.364 72.5762 164.065 72.7676 164.585 73.1504C165.109 73.5286 165.485 74.1074 165.713 74.8867ZM167.176 71.7559V69.9785H169.097V71.7559H167.176ZM167.176 80V72.7402H169.097V80H167.176ZM171.018 72.7402H172.809V73.8066C173.041 73.4421 173.355 73.1458 173.752 72.918C174.148 72.6901 174.588 72.5762 175.071 72.5762C175.914 72.5762 176.63 72.9066 177.218 73.5674C177.806 74.2282 178.1 75.1488 178.1 76.3291C178.1 77.5413 177.803 78.4847 177.211 79.1592C176.618 79.8291 175.901 80.1641 175.058 80.1641C174.657 80.1641 174.292 80.0843 173.964 79.9248C173.64 79.7653 173.299 79.4919 172.938 79.1045V82.7617H171.018V72.7402ZM172.918 76.2471C172.918 77.0628 173.08 77.6667 173.403 78.0586C173.727 78.446 174.121 78.6396 174.586 78.6396C175.033 78.6396 175.404 78.4619 175.7 78.1064C175.996 77.7464 176.145 77.1585 176.145 76.3428C176.145 75.5817 175.992 75.0166 175.687 74.6475C175.381 74.2783 175.003 74.0938 174.552 74.0938C174.082 74.0938 173.693 74.276 173.383 74.6406C173.073 75.0007 172.918 75.5361 172.918 76.2471ZM181.066 74.9551L179.323 74.6406C179.519 73.9388 179.856 73.4193 180.335 73.082C180.813 72.7448 181.524 72.5762 182.468 72.5762C183.325 72.5762 183.963 72.6787 184.382 72.8838C184.801 73.0843 185.095 73.3418 185.264 73.6562C185.437 73.9661 185.523 74.5381 185.523 75.3721L185.503 77.6143C185.503 78.2523 185.533 78.724 185.592 79.0293C185.656 79.3301 185.772 79.6536 185.94 80H184.04C183.99 79.8724 183.928 79.6833 183.855 79.4326C183.824 79.3187 183.801 79.2435 183.787 79.207C183.459 79.526 183.108 79.7653 182.734 79.9248C182.361 80.0843 181.962 80.1641 181.538 80.1641C180.791 80.1641 180.201 79.9613 179.768 79.5557C179.339 79.1501 179.125 78.6374 179.125 78.0176C179.125 77.6074 179.223 77.2428 179.419 76.9238C179.615 76.6003 179.888 76.3542 180.239 76.1855C180.595 76.0124 181.105 75.862 181.771 75.7344C182.668 75.5658 183.29 75.4085 183.637 75.2627V75.0713C183.637 74.7021 183.546 74.4401 183.363 74.2852C183.181 74.1257 182.837 74.0459 182.331 74.0459C181.989 74.0459 181.723 74.1143 181.531 74.251C181.34 74.3831 181.185 74.6178 181.066 74.9551ZM183.637 76.5137C183.391 76.5957 183.001 76.6937 182.468 76.8076C181.935 76.9215 181.586 77.0332 181.422 77.1426C181.171 77.3203 181.046 77.5459 181.046 77.8193C181.046 78.0882 181.146 78.3206 181.347 78.5166C181.547 78.7126 181.802 78.8105 182.112 78.8105C182.459 78.8105 182.789 78.6966 183.104 78.4688C183.336 78.2956 183.489 78.0837 183.562 77.833C183.612 77.6689 183.637 77.3568 183.637 76.8965V76.5137ZM190.753 72.7402V74.2715H189.44V77.1973C189.44 77.7897 189.452 78.1361 189.475 78.2363C189.502 78.332 189.559 78.4118 189.646 78.4756C189.737 78.5394 189.846 78.5713 189.974 78.5713C190.151 78.5713 190.409 78.5098 190.746 78.3867L190.91 79.877C190.464 80.0684 189.958 80.1641 189.393 80.1641C189.046 80.1641 188.734 80.1071 188.456 79.9932C188.178 79.8747 187.973 79.7243 187.841 79.542C187.713 79.3551 187.624 79.1045 187.574 78.79C187.533 78.5667 187.513 78.1156 187.513 77.4365V74.2715H186.631V72.7402H187.513V71.2979L189.44 70.1768V72.7402H190.753ZM192.086 71.7559V69.9785H194.007V71.7559H192.086ZM192.086 80V72.7402H194.007V80H192.086ZM195.538 76.2676C195.538 75.6296 195.695 75.012 196.01 74.415C196.324 73.818 196.769 73.3623 197.343 73.0479C197.922 72.7334 198.566 72.5762 199.277 72.5762C200.376 72.5762 201.276 72.9339 201.978 73.6494C202.679 74.3604 203.03 75.2604 203.03 76.3496C203.03 77.4479 202.675 78.3594 201.964 79.084C201.257 79.804 200.367 80.1641 199.291 80.1641C198.626 80.1641 197.99 80.0137 197.384 79.7129C196.782 79.4121 196.324 78.9723 196.01 78.3936C195.695 77.8102 195.538 77.1016 195.538 76.2676ZM197.507 76.3701C197.507 77.0902 197.678 77.6416 198.02 78.0244C198.361 78.4072 198.783 78.5986 199.284 78.5986C199.785 78.5986 200.205 78.4072 200.542 78.0244C200.884 77.6416 201.055 77.0856 201.055 76.3564C201.055 75.6455 200.884 75.0986 200.542 74.7158C200.205 74.333 199.785 74.1416 199.284 74.1416C198.783 74.1416 198.361 74.333 198.02 74.7158C197.678 75.0986 197.507 75.6501 197.507 76.3701ZM211.145 80H209.224V76.2949C209.224 75.5111 209.183 75.0052 209.101 74.7773C209.019 74.5449 208.884 74.3649 208.697 74.2373C208.515 74.1097 208.294 74.0459 208.034 74.0459C207.701 74.0459 207.403 74.137 207.139 74.3193C206.874 74.5016 206.692 74.7432 206.592 75.0439C206.496 75.3447 206.448 75.9007 206.448 76.7119V80H204.527V72.7402H206.312V73.8066C206.945 72.9863 207.743 72.5762 208.704 72.5762C209.128 72.5762 209.515 72.6536 209.866 72.8086C210.217 72.959 210.481 73.1527 210.659 73.3896C210.841 73.6266 210.967 73.8955 211.035 74.1963C211.108 74.4971 211.145 74.9277 211.145 75.4883V80ZM216.996 71.7559V69.9785H218.917V71.7559H216.996ZM216.996 80V72.7402H218.917V80H216.996ZM227.496 80H225.575V76.2949C225.575 75.5111 225.534 75.0052 225.452 74.7773C225.37 74.5449 225.236 74.3649 225.049 74.2373C224.867 74.1097 224.646 74.0459 224.386 74.0459C224.053 74.0459 223.755 74.137 223.49 74.3193C223.226 74.5016 223.044 74.7432 222.943 75.0439C222.848 75.3447 222.8 75.9007 222.8 76.7119V80H220.879V72.7402H222.663V73.8066C223.297 72.9863 224.094 72.5762 225.056 72.5762C225.479 72.5762 225.867 72.6536 226.218 72.8086C226.569 72.959 226.833 73.1527 227.011 73.3896C227.193 73.6266 227.318 73.8955 227.387 74.1963C227.46 74.4971 227.496 74.9277 227.496 75.4883V80ZM303.443 71.7559V69.9785H305.364V71.7559H303.443ZM303.443 80V72.7402H305.364V80H303.443ZM306.663 77.9287L308.591 77.6348C308.673 78.0085 308.839 78.2933 309.09 78.4893C309.34 78.6807 309.691 78.7764 310.143 78.7764C310.639 78.7764 311.013 78.6852 311.264 78.5029C311.432 78.3753 311.517 78.2044 311.517 77.9902C311.517 77.8444 311.471 77.7236 311.38 77.6279C311.284 77.5368 311.07 77.4525 310.737 77.375C309.188 77.0332 308.206 76.721 307.791 76.4385C307.217 76.0465 306.93 75.502 306.93 74.8047C306.93 74.1758 307.178 73.6471 307.675 73.2188C308.172 72.7904 308.942 72.5762 309.985 72.5762C310.979 72.5762 311.717 72.738 312.2 73.0615C312.683 73.3851 313.016 73.8636 313.198 74.4971L311.387 74.832C311.309 74.5495 311.161 74.333 310.942 74.1826C310.728 74.0322 310.421 73.957 310.02 73.957C309.514 73.957 309.151 74.0277 308.933 74.1689C308.787 74.2692 308.714 74.3991 308.714 74.5586C308.714 74.6953 308.778 74.8115 308.905 74.9072C309.078 75.0348 309.675 75.2148 310.696 75.4473C311.722 75.6797 312.437 75.9645 312.843 76.3018C313.244 76.6436 313.444 77.1198 313.444 77.7305C313.444 78.3958 313.166 78.9678 312.61 79.4463C312.054 79.9248 311.232 80.1641 310.143 80.1641C309.154 80.1641 308.37 79.9635 307.791 79.5625C307.217 79.1615 306.841 78.6169 306.663 77.9287ZM319.05 80V69.9785H321.073V73.9229H325.038V69.9785H327.062V80H325.038V75.6182H321.073V80H319.05ZM333.351 77.6895L335.265 78.0107C335.019 78.7126 334.629 79.248 334.096 79.6172C333.567 79.9818 332.904 80.1641 332.106 80.1641C330.844 80.1641 329.91 79.7516 329.304 78.9268C328.825 78.266 328.586 77.432 328.586 76.4248C328.586 75.2217 328.9 74.2806 329.529 73.6016C330.158 72.918 330.953 72.5762 331.915 72.5762C332.995 72.5762 333.847 72.9339 334.472 73.6494C335.096 74.3604 335.395 75.4518 335.367 76.9238H330.555C330.568 77.4935 330.723 77.9378 331.02 78.2568C331.316 78.5713 331.685 78.7285 332.127 78.7285C332.428 78.7285 332.681 78.6465 332.886 78.4824C333.091 78.3184 333.246 78.054 333.351 77.6895ZM333.46 75.748C333.446 75.1921 333.303 74.7705 333.029 74.4834C332.756 74.1917 332.423 74.0459 332.031 74.0459C331.612 74.0459 331.266 74.1986 330.992 74.5039C330.719 74.8092 330.584 75.224 330.589 75.748H333.46ZM338.375 74.9551L336.632 74.6406C336.828 73.9388 337.165 73.4193 337.644 73.082C338.122 72.7448 338.833 72.5762 339.776 72.5762C340.633 72.5762 341.271 72.6787 341.69 72.8838C342.11 73.0843 342.404 73.3418 342.572 73.6562C342.745 73.9661 342.832 74.5381 342.832 75.3721L342.812 77.6143C342.812 78.2523 342.841 78.724 342.9 79.0293C342.964 79.3301 343.08 79.6536 343.249 80H341.349C341.299 79.8724 341.237 79.6833 341.164 79.4326C341.132 79.3187 341.109 79.2435 341.096 79.207C340.768 79.526 340.417 79.7653 340.043 79.9248C339.669 80.0843 339.271 80.1641 338.847 80.1641C338.099 80.1641 337.509 79.9613 337.076 79.5557C336.648 79.1501 336.434 78.6374 336.434 78.0176C336.434 77.6074 336.532 77.2428 336.728 76.9238C336.924 76.6003 337.197 76.3542 337.548 76.1855C337.903 76.0124 338.414 75.862 339.079 75.7344C339.977 75.5658 340.599 75.4085 340.945 75.2627V75.0713C340.945 74.7021 340.854 74.4401 340.672 74.2852C340.49 74.1257 340.146 74.0459 339.64 74.0459C339.298 74.0459 339.031 74.1143 338.84 74.251C338.648 74.3831 338.493 74.6178 338.375 74.9551ZM340.945 76.5137C340.699 76.5957 340.31 76.6937 339.776 76.8076C339.243 76.9215 338.895 77.0332 338.73 77.1426C338.48 77.3203 338.354 77.5459 338.354 77.8193C338.354 78.0882 338.455 78.3206 338.655 78.5166C338.856 78.7126 339.111 78.8105 339.421 78.8105C339.767 78.8105 340.098 78.6966 340.412 78.4688C340.645 78.2956 340.797 78.0837 340.87 77.833C340.92 77.6689 340.945 77.3568 340.945 76.8965V76.5137ZM346.571 80H344.65V72.7402H346.435V73.7725C346.74 73.2848 347.013 72.9635 347.255 72.8086C347.501 72.6536 347.779 72.5762 348.089 72.5762C348.526 72.5762 348.948 72.6969 349.354 72.9385L348.759 74.6133C348.435 74.4036 348.134 74.2988 347.856 74.2988C347.588 74.2988 347.36 74.374 347.173 74.5244C346.986 74.6702 346.838 74.9368 346.729 75.3242C346.624 75.7116 346.571 76.5228 346.571 77.7578V80ZM350.105 80V69.9785H352.026V73.5879C352.619 72.9134 353.321 72.5762 354.132 72.5762C355.016 72.5762 355.747 72.8975 356.326 73.54C356.905 74.1781 357.194 75.0964 357.194 76.2949C357.194 77.5345 356.898 78.4893 356.306 79.1592C355.718 79.8291 355.002 80.1641 354.159 80.1641C353.744 80.1641 353.334 80.0615 352.929 79.8564C352.528 79.6468 352.181 79.3392 351.89 78.9336V80H350.105ZM352.013 76.2129C352.013 76.9648 352.131 77.5208 352.368 77.8809C352.701 78.3913 353.143 78.6465 353.694 78.6465C354.118 78.6465 354.478 78.4665 354.774 78.1064C355.075 77.7419 355.226 77.1699 355.226 76.3906C355.226 75.5612 355.075 74.9642 354.774 74.5996C354.474 74.2305 354.089 74.0459 353.619 74.0459C353.159 74.0459 352.776 74.2259 352.471 74.5859C352.165 74.9414 352.013 75.4837 352.013 76.2129ZM357.837 72.7402H359.881L361.617 77.8945L363.312 72.7402H365.302L362.738 79.7266L362.28 80.9912C362.112 81.415 361.95 81.7386 361.795 81.9619C361.645 82.1852 361.469 82.3652 361.269 82.502C361.073 82.6432 360.829 82.7526 360.537 82.8301C360.25 82.9076 359.924 82.9463 359.56 82.9463C359.19 82.9463 358.828 82.9076 358.473 82.8301L358.302 81.3262C358.603 81.3854 358.874 81.415 359.115 81.415C359.562 81.415 359.892 81.2829 360.106 81.0186C360.321 80.7588 360.485 80.4261 360.599 80.0205L357.837 72.7402Z" fill="#2C2C2C"/>
<path d="M238.023 76.3154V74.627H242.385V78.6191C241.961 79.0293 241.346 79.3916 240.539 79.7061C239.737 80.016 238.924 80.1709 238.099 80.1709C237.05 80.1709 236.137 79.9521 235.357 79.5146C234.578 79.0726 233.993 78.4437 233.601 77.6279C233.209 76.8076 233.013 75.9167 233.013 74.9551C233.013 73.9115 233.231 72.984 233.669 72.1729C234.106 71.3617 234.747 70.7396 235.59 70.3066C236.232 69.974 237.032 69.8076 237.989 69.8076C239.233 69.8076 240.204 70.0697 240.901 70.5938C241.603 71.1133 242.054 71.8333 242.255 72.7539L240.245 73.1299C240.104 72.6377 239.837 72.2503 239.445 71.9678C239.058 71.6807 238.573 71.5371 237.989 71.5371C237.105 71.5371 236.401 71.8174 235.877 72.3779C235.357 72.9385 235.098 73.7702 235.098 74.873C235.098 76.0625 235.362 76.9557 235.891 77.5527C236.419 78.1452 237.112 78.4414 237.969 78.4414C238.393 78.4414 238.816 78.3594 239.24 78.1953C239.669 78.0267 240.035 77.8239 240.341 77.5869V76.3154H238.023ZM250.67 76.3154L252.632 76.9375C252.331 78.0312 251.83 78.8447 251.128 79.3779C250.431 79.9066 249.544 80.1709 248.469 80.1709C247.138 80.1709 246.044 79.7174 245.188 78.8105C244.331 77.8991 243.902 76.6549 243.902 75.0781C243.902 73.4102 244.333 72.1159 245.194 71.1953C246.056 70.2702 247.188 69.8076 248.592 69.8076C249.818 69.8076 250.813 70.1699 251.579 70.8945C252.035 71.3229 252.377 71.9382 252.604 72.7402L250.602 73.2188C250.483 72.6992 250.235 72.2891 249.856 71.9883C249.483 71.6875 249.027 71.5371 248.489 71.5371C247.746 71.5371 247.143 71.8037 246.678 72.3369C246.217 72.8701 245.987 73.7337 245.987 74.9277C245.987 76.1947 246.215 77.097 246.671 77.6348C247.127 78.1725 247.719 78.4414 248.448 78.4414C248.986 78.4414 249.449 78.2705 249.836 77.9287C250.223 77.5869 250.501 77.0492 250.67 76.3154ZM260.787 76.3154L262.749 76.9375C262.448 78.0312 261.947 78.8447 261.245 79.3779C260.548 79.9066 259.661 80.1709 258.586 80.1709C257.255 80.1709 256.161 79.7174 255.305 78.8105C254.448 77.8991 254.02 76.6549 254.02 75.0781C254.02 73.4102 254.45 72.1159 255.312 71.1953C256.173 70.2702 257.305 69.8076 258.709 69.8076C259.935 69.8076 260.931 70.1699 261.696 70.8945C262.152 71.3229 262.494 71.9382 262.722 72.7402L260.719 73.2188C260.6 72.6992 260.352 72.2891 259.974 71.9883C259.6 71.6875 259.144 71.5371 258.606 71.5371C257.864 71.5371 257.26 71.8037 256.795 72.3369C256.335 72.8701 256.104 73.7337 256.104 74.9277C256.104 76.1947 256.332 77.097 256.788 77.6348C257.244 78.1725 257.836 78.4414 258.565 78.4414C259.103 78.4414 259.566 78.2705 259.953 77.9287C260.34 77.5869 260.618 77.0492 260.787 76.3154ZM274.452 78.2158V80H267.719C267.792 79.3255 268.01 78.6875 268.375 78.0859C268.74 77.4798 269.46 76.6777 270.535 75.6797C271.401 74.873 271.932 74.3262 272.128 74.0391C272.392 73.6426 272.524 73.2507 272.524 72.8633C272.524 72.4349 272.408 72.1068 272.176 71.8789C271.948 71.6465 271.631 71.5303 271.226 71.5303C270.825 71.5303 270.506 71.651 270.269 71.8926C270.032 72.1341 269.895 72.5352 269.858 73.0957L267.944 72.9043C268.058 71.847 268.416 71.0882 269.018 70.6279C269.619 70.1676 270.371 69.9375 271.273 69.9375C272.262 69.9375 273.039 70.2041 273.604 70.7373C274.17 71.2705 274.452 71.9336 274.452 72.7266C274.452 73.1777 274.37 73.6084 274.206 74.0186C274.047 74.4242 273.791 74.8503 273.44 75.2969C273.208 75.5931 272.789 76.0192 272.183 76.5752C271.576 77.1312 271.191 77.5003 271.027 77.6826C270.868 77.8649 270.738 78.0426 270.638 78.2158H274.452ZM279.005 69.9375C279.976 69.9375 280.734 70.2839 281.281 70.9766C281.933 71.7969 282.259 73.1572 282.259 75.0576C282.259 76.9535 281.931 78.3161 281.274 79.1455C280.732 79.8291 279.976 80.1709 279.005 80.1709C278.03 80.1709 277.243 79.7972 276.646 79.0498C276.049 78.2979 275.751 76.9603 275.751 75.0371C275.751 73.1504 276.079 71.7923 276.735 70.9629C277.278 70.2793 278.034 69.9375 279.005 69.9375ZM279.005 71.5303C278.772 71.5303 278.565 71.6055 278.383 71.7559C278.201 71.9017 278.059 72.166 277.959 72.5488C277.827 73.0456 277.761 73.8818 277.761 75.0576C277.761 76.2334 277.82 77.0423 277.938 77.4844C278.057 77.9219 278.205 78.2135 278.383 78.3594C278.565 78.5052 278.772 78.5781 279.005 78.5781C279.237 78.5781 279.445 78.5052 279.627 78.3594C279.809 78.209 279.951 77.9424 280.051 77.5596C280.183 77.0674 280.249 76.2334 280.249 75.0576C280.249 73.8818 280.19 73.0752 280.071 72.6377C279.953 72.1956 279.802 71.9017 279.62 71.7559C279.442 71.6055 279.237 71.5303 279.005 71.5303ZM290.038 78.2158V80H283.305C283.378 79.3255 283.596 78.6875 283.961 78.0859C284.326 77.4798 285.046 76.6777 286.121 75.6797C286.987 74.873 287.518 74.3262 287.714 74.0391C287.978 73.6426 288.11 73.2507 288.11 72.8633C288.11 72.4349 287.994 72.1068 287.762 71.8789C287.534 71.6465 287.217 71.5303 286.812 71.5303C286.41 71.5303 286.091 71.651 285.854 71.8926C285.618 72.1341 285.481 72.5352 285.444 73.0957L283.53 72.9043C283.644 71.847 284.002 71.0882 284.604 70.6279C285.205 70.1676 285.957 69.9375 286.859 69.9375C287.848 69.9375 288.625 70.2041 289.19 70.7373C289.756 71.2705 290.038 71.9336 290.038 72.7266C290.038 73.1777 289.956 73.6084 289.792 74.0186C289.632 74.4242 289.377 74.8503 289.026 75.2969C288.794 75.5931 288.375 76.0192 287.769 76.5752C287.162 77.1312 286.777 77.5003 286.613 77.6826C286.454 77.8649 286.324 78.0426 286.224 78.2158H290.038ZM294.591 69.9375C295.562 69.9375 296.32 70.2839 296.867 70.9766C297.519 71.7969 297.845 73.1572 297.845 75.0576C297.845 76.9535 297.517 78.3161 296.86 79.1455C296.318 79.8291 295.562 80.1709 294.591 80.1709C293.616 80.1709 292.829 79.7972 292.232 79.0498C291.635 78.2979 291.337 76.9603 291.337 75.0371C291.337 73.1504 291.665 71.7923 292.321 70.9629C292.864 70.2793 293.62 69.9375 294.591 69.9375ZM294.591 71.5303C294.358 71.5303 294.151 71.6055 293.969 71.7559C293.786 71.9017 293.645 72.166 293.545 72.5488C293.413 73.0456 293.347 73.8818 293.347 75.0576C293.347 76.2334 293.406 77.0423 293.524 77.4844C293.643 77.9219 293.791 78.2135 293.969 78.3594C294.151 78.5052 294.358 78.5781 294.591 78.5781C294.823 78.5781 295.031 78.5052 295.213 78.3594C295.395 78.209 295.536 77.9424 295.637 77.5596C295.769 77.0674 295.835 76.2334 295.835 75.0576C295.835 73.8818 295.776 73.0752 295.657 72.6377C295.539 72.1956 295.388 71.9017 295.206 71.7559C295.028 71.6055 294.823 71.5303 294.591 71.5303Z" fill="#EF4923"/>
<path d="M139 95L140.347 99.1459H144.706L141.18 101.708L142.527 105.854L139 103.292L135.473 105.854L136.82 101.708L133.294 99.1459H137.653L139 95Z" fill="#3D291E"/>
<path d="M364 95L365.347 99.1459H369.706L366.18 101.708L367.527 105.854L364 103.292L360.473 105.854L361.82 101.708L358.294 99.1459H362.653L364 95Z" fill="#3D291E"/>
<path d="M139 152L140.347 156.146H144.706L141.18 158.708L142.527 162.854L139 160.292L135.473 162.854L136.82 158.708L133.294 156.146H137.653L139 152Z" fill="#3D291E"/>
<path d="M364 152L365.347 156.146H369.706L366.18 158.708L367.527 162.854L364 160.292L360.473 162.854L361.82 158.708L358.294 156.146H362.653L364 152Z" fill="#3D291E"/>
<path d="M184 95L185.347 99.1459H189.706L186.18 101.708L187.527 105.854L184 103.292L180.473 105.854L181.82 101.708L178.294 99.1459H182.653L184 95Z" fill="#3D291E"/>
<path d="M94 95L95.3471 99.1459H99.7063L96.1796 101.708L97.5267 105.854L94 103.292L90.4733 105.854L91.8204 101.708L88.2937 99.1459H92.6529L94 95Z" fill="#3D291E"/>
<path d="M184 152L185.347 156.146H189.706L186.18 158.708L187.527 162.854L184 160.292L180.473 162.854L181.82 158.708L178.294 156.146H182.653L184 152Z" fill="#3D291E"/>
<path d="M94 152L95.3471 156.146H99.7063L96.1796 158.708L97.5267 162.854L94 160.292L90.4733 162.854L91.8204 158.708L88.2937 156.146H92.6529L94 152Z" fill="#3D291E"/>
<path d="M229 95L230.347 99.1459H234.706L231.18 101.708L232.527 105.854L229 103.292L225.473 105.854L226.82 101.708L223.294 99.1459H227.653L229 95Z" fill="#3D291E"/>
<path d="M229 152L230.347 156.146H234.706L231.18 158.708L232.527 162.854L229 160.292L225.473 162.854L226.82 158.708L223.294 156.146H227.653L229 152Z" fill="#3D291E"/>
<path d="M274 95L275.347 99.1459H279.706L276.18 101.708L277.527 105.854L274 103.292L270.473 105.854L271.82 101.708L268.294 99.1459H272.653L274 95Z" fill="#3D291E"/>
<path d="M274 152L275.347 156.146H279.706L276.18 158.708L277.527 162.854L274 160.292L270.473 162.854L271.82 158.708L268.294 156.146H272.653L274 152Z" fill="#3D291E"/>
<path d="M319 95L320.347 99.1459H324.706L321.18 101.708L322.527 105.854L319 103.292L315.473 105.854L316.82 101.708L313.294 99.1459H317.653L319 95Z" fill="#3D291E"/>
<path d="M319 152L320.347 156.146H324.706L321.18 158.708L322.527 162.854L319 160.292L315.473 162.854L316.82 158.708L313.294 156.146H317.653L319 152Z" fill="#3D291E"/>
<path fill-rule="evenodd" clip-rule="evenodd" d="M269 0H260.485L240.485 20H249L269 0ZM257.485 20H266L286 0H277.485L257.485 20ZM396.485 0H405L385 20H376.485L396.485 0ZM402 20H393.485L413.485 0H422L402 20ZM133 0H124.485L104.485 20H113L133 0ZM121.485 20H130L150 0H141.485L121.485 20ZM192.485 0H201L181 20H172.485L192.485 0ZM198 20H189.485L209.485 0H218L198 20ZM337 0H328.485L308.485 20H317L337 0ZM325.485 20H334L354 0H345.485L325.485 20ZM56.4853 0H65L45 20H36.4853L56.4853 0ZM62 20H53.4853L73.4853 0H82L62 20ZM235 0H226.485L206.485 20H215L235 0ZM223.485 20H232L252 0H243.485L223.485 20ZM362.485 0H371L351 20H342.485L362.485 0ZM368 20H359.485L379.485 0H388L368 20ZM99 0H90.4853L70.4853 20H79L99 0ZM87.4853 20H96L116 0H107.485L87.4853 20ZM430.485 0H439L419 20L410.485 20L430.485 0ZM436 20H427.485L447.485 0H454V2L436 20ZM167 0H158.485L138.485 20H147L167 0ZM155.485 20H164L184 0H175.485L155.485 20ZM294.485 0H303L283 20L274.485 20L294.485 0ZM300 20H291.485L311.485 0H320L300 20ZM31 0H22.4853L4 18.4853V20L11 20L31 0ZM19.4853 20H28L48 0H39.4853L19.4853 20ZM454 10.4853L444.485 20H454V10.4853ZM14 0H4V10L14 0Z" fill="#0077B6"/>
<path fill-rule="evenodd" clip-rule="evenodd" d="M269 180H260.485L240.485 200H249L269 180ZM257.485 200H266L286 180H277.485L257.485 200ZM396.485 180H405L385 200H376.485L396.485 180ZM402 200H393.485L413.485 180H422L402 200ZM133 180H124.485L104.485 200H113L133 180ZM121.485 200H130L150 180H141.485L121.485 200ZM192.485 180H201L181 200H172.485L192.485 180ZM198 200H189.485L209.485 180H218L198 200ZM337 180H328.485L308.485 200H317L337 180ZM325.485 200H334L354 180H345.485L325.485 200ZM56.4853 180H65L45 200H36.4853L56.4853 180ZM62 200H53.4853L73.4853 180H82L62 200ZM235 180H226.485L206.485 200H215L235 180ZM223.485 200H232L252 180H243.485L223.485 200ZM362.485 180H371L351 200H342.485L362.485 180ZM368 200H359.485L379.485 180H388L368 200ZM99 180H90.4853L70.4853 200H79L99 180ZM87.4853 200H96L116 180H107.485L87.4853 200ZM430.485 180H439L419 200L410.485 200L430.485 180ZM436 200H427.485L447.485 180H454V182L436 200ZM167 180H158.485L138.485 200H147L167 180ZM155.485 200H164L184 180H175.485L155.485 200ZM294.485 180H303L283 200L274.485 200L294.485 180ZM300 200H291.485L311.485 180H320L300 200ZM31 180H22.4853L4 198.485V200L11 200L31 180ZM19.4853 200H28L48 180H39.4853L19.4853 200ZM454 190.485L444.485 200H454V190.485ZM14 180H4V190L14 180Z" fill="#0077B6"/>
<defs>
<filter id="filter0_d" x="0" y="0" width="458" height="208" filterUnits="userSpaceOnUse" color-interpolation-filters="sRGB">
<feFlood flood-opacity="0" result="BackgroundImageFix"/>
<feColorMatrix in="SourceAlpha" type="matrix" values="0 0 0 0 0 0 0 0 0 0 0 0 0 0 0 0 0 0 127 0"/>
<feOffset dy="4"/>
<feGaussianBlur stdDeviation="2"/>
<feColorMatrix type="matrix" values="0 0 0 0 0.615686 0 0 0 0 0.737255 0 0 0 0 0.898039 0 0 0 1 0"/>
<feBlend mode="normal" in2="BackgroundImageFix" result="effect1_dropShadow"/>
<feBlend mode="normal" in="SourceGraphic" in2="effect1_dropShadow" result="shape"/>
</filter>
</defs>
</svg>
