<svg width="148" height="76" viewBox="0 0 148 76" fill="none" xmlns="http://www.w3.org/2000/svg">
<mask id="path-1-inside-1" fill="white">
<path fill-rule="evenodd" clip-rule="evenodd" d="M0 4C0 1.79086 1.79086 0 4 0H144C146.209 0 148 1.79086 148 4V12C142.477 12 138 16.4772 138 22C138 27.5228 142.477 32 148 32V44C142.477 44 138 48.4772 138 54C138 59.5228 142.477 64 148 64V72C148 74.2091 146.209 76 144 76H4C1.79086 76 0 74.2091 0 72V64C5.52285 64 10 59.5228 10 54C10 48.4772 5.52285 44 0 44V32C5.52285 32 10 27.5228 10 22C10 16.4772 5.52285 12 0 12V4Z"/>
</mask>
<path fill-rule="evenodd" clip-rule="evenodd" d="M0 4C0 1.79086 1.79086 0 4 0H144C146.209 0 148 1.79086 148 4V12C142.477 12 138 16.4772 138 22C138 27.5228 142.477 32 148 32V44C142.477 44 138 48.4772 138 54C138 59.5228 142.477 64 148 64V72C148 74.2091 146.209 76 144 76H4C1.79086 76 0 74.2091 0 72V64C5.52285 64 10 59.5228 10 54C10 48.4772 5.52285 44 0 44V32C5.52285 32 10 27.5228 10 22C10 16.4772 5.52285 12 0 12V4Z" fill="#EB5757" fill-opacity="0.3"/>
<path d="M148 12V13H149V12H148ZM148 32H149V31H148V32ZM148 44V45H149V44H148ZM148 64H149V63H148V64ZM0 64V63H-1V64H0ZM0 44H-1V45H0V44ZM0 32V31H-1V32H0ZM0 12H-1V13H0V12ZM4 -1C1.23858 -1 -1 1.23857 -1 4H1C1 2.34314 2.34315 1 4 1V-1ZM144 -1H4V1H144V-1ZM149 4C149 1.23858 146.761 -1 144 -1V1C145.657 1 147 2.34315 147 4H149ZM149 12V4H147V12H149ZM139 22C139 17.0294 143.029 13 148 13V11C141.925 11 137 15.9249 137 22H139ZM148 31C143.029 31 139 26.9706 139 22H137C137 28.0751 141.925 33 148 33V31ZM149 44V32H147V44H149ZM139 54C139 49.0294 143.029 45 148 45V43C141.925 43 137 47.9249 137 54H139ZM148 63C143.029 63 139 58.9706 139 54H137C137 60.0751 141.925 65 148 65V63ZM149 72V64H147V72H149ZM144 77C146.761 77 149 74.7614 149 72H147C147 73.6569 145.657 75 144 75V77ZM4 77H144V75H4V77ZM-1 72C-1 74.7614 1.23857 77 4 77V75C2.34314 75 1 73.6569 1 72H-1ZM-1 64V72H1V64H-1ZM9 54C9 58.9706 4.97056 63 0 63V65C6.07513 65 11 60.0751 11 54H9ZM0 45C4.97056 45 9 49.0294 9 54H11C11 47.9249 6.07513 43 0 43V45ZM-1 32V44H1V32H-1ZM9 22C9 26.9706 4.97056 31 0 31V33C6.07513 33 11 28.0751 11 22H9ZM0 13C4.97056 13 9 17.0294 9 22H11C11 15.9249 6.07513 11 0 11V13ZM-1 4V12H1V4H-1Z" fill="#EB5757" mask="url(#path-1-inside-1)"/>
<mask id="path-3-inside-2" fill="white">
<path fill-rule="evenodd" clip-rule="evenodd" d="M0 4C0 1.79086 1.79086 0 4 0H144C146.209 0 148 1.79086 148 4V12C142.477 12 138 16.4772 138 22C138 27.5228 142.477 32 148 32V44C142.477 44 138 48.4772 138 54C138 59.5228 142.477 64 148 64V72C148 74.2091 146.209 76 144 76H4C1.79086 76 0 74.2091 0 72V64C5.52285 64 10 59.5228 10 54C10 48.4772 5.52285 44 0 44V32C5.52285 32 10 27.5228 10 22C10 16.4772 5.52285 12 0 12V4Z"/>
</mask>
<path fill-rule="evenodd" clip-rule="evenodd" d="M0 4C0 1.79086 1.79086 0 4 0H144C146.209 0 148 1.79086 148 4V12C142.477 12 138 16.4772 138 22C138 27.5228 142.477 32 148 32V44C142.477 44 138 48.4772 138 54C138 59.5228 142.477 64 148 64V72C148 74.2091 146.209 76 144 76H4C1.79086 76 0 74.2091 0 72V64C5.52285 64 10 59.5228 10 54C10 48.4772 5.52285 44 0 44V32C5.52285 32 10 27.5228 10 22C10 16.4772 5.52285 12 0 12V4Z" fill="#EB5757" fill-opacity="0.3"/>
<path d="M148 12V13H149V12H148ZM148 32H149V31H148V32ZM148 44V45H149V44H148ZM148 64H149V63H148V64ZM0 64V63H-1V64H0ZM0 44H-1V45H0V44ZM0 32V31H-1V32H0ZM0 12H-1V13H0V12ZM4 -1C1.23858 -1 -1 1.23857 -1 4H1C1 2.34314 2.34315 1 4 1V-1ZM144 -1H4V1H144V-1ZM149 4C149 1.23858 146.761 -1 144 -1V1C145.657 1 147 2.34315 147 4H149ZM149 12V4H147V12H149ZM139 22C139 17.0294 143.029 13 148 13V11C141.925 11 137 15.9249 137 22H139ZM148 31C143.029 31 139 26.9706 139 22H137C137 28.0751 141.925 33 148 33V31ZM149 44V32H147V44H149ZM139 54C139 49.0294 143.029 45 148 45V43C141.925 43 137 47.9249 137 54H139ZM148 63C143.029 63 139 58.9706 139 54H137C137 60.0751 141.925 65 148 65V63ZM149 72V64H147V72H149ZM144 77C146.761 77 149 74.7614 149 72H147C147 73.6569 145.657 75 144 75V77ZM4 77H144V75H4V77ZM-1 72C-1 74.7614 1.23857 77 4 77V75C2.34314 75 1 73.6569 1 72H-1ZM-1 64V72H1V64H-1ZM9 54C9 58.9706 4.97056 63 0 63V65C6.07513 65 11 60.0751 11 54H9ZM0 45C4.97056 45 9 49.0294 9 54H11C11 47.9249 6.07513 43 0 43V45ZM-1 32V44H1V32H-1ZM9 22C9 26.9706 4.97056 31 0 31V33C6.07513 33 11 28.0751 11 22H9ZM0 13C4.97056 13 9 17.0294 9 22H11C11 15.9249 6.07513 11 0 11V13ZM-1 4V12H1V4H-1Z" fill="#EB5757" mask="url(#path-3-inside-2)"/>
</svg>
